999
"DXF R12 Output" (www.mydxf.blogspot.com)
 0 
SECTION
 2 
HEADER
 9 
$ACADVER
 1 
AC1009
 9 
$EXTMIN
 10 
 0 
 20 
 0 
 9 
$EXTMAX
 10 
 8.5 
 20 
 11 
 0 
ENDSEC
 0 
SECTION
 2 
ENTITIES
0
POLYLINE
8
0
62
7
70
0
10
0.000000
20
0.000000
66
1
0
VERTEX
8
0
10
24.968797
20
52.143258
70
0
0
VERTEX
8
0
10
274.968518
20
52.143258
70
0
0
SEQEND
8
0
0
POLYLINE
8
0
62
7
70
0
10
0.000000
20
0.000000
66
1
0
VERTEX
8
0
10
24.968797
20
252.142342
70
0
0
VERTEX
8
0
10
24.968797
20
52.143258
70
0
0
SEQEND
8
0
0
POLYLINE
8
0
62
7
70
0
10
0.000000
20
0.000000
66
1
0
VERTEX
8
0
10
274.968518
20
252.142342
70
0
0
VERTEX
8
0
10
24.968797
20
252.142342
70
0
0
SEQEND
8
0
0
POLYLINE
8
0
62
7
70
0
10
0.000000
20
0.000000
66
1
0
VERTEX
8
0
10
274.968518
20
52.143258
70
0
0
VERTEX
8
0
10
274.968518
20
252.142342
70
0
0
SEQEND
8
0
0
POLYLINE
8
Layer 1
62
7
70
0
10
0.000000
20
0.000000
66
1
0
VERTEX
8
Layer 1
10
153.524781
20
177.776149
70
0
0
VERTEX
8
Layer 1
10
152.377565
20
176.473905
70
0
0
VERTEX
8
Layer 1
10
151.069120
20
175.494121
70
0
0
VERTEX
8
Layer 1
10
150.090886
20
174.994927
70
0
0
VERTEX
8
Layer 1
10
149.041339
20
174.638360
70
0
0
VERTEX
8
Layer 1
10
147.920479
20
174.424420
70
0
0
VERTEX
8
Layer 1
10
146.728305
20
174.353106
70
0
0
VERTEX
8
Layer 1
10
143.503700
20
174.353106
70
0
0
VERTEX
8
Layer 1
10
143.503700
20
178.917163
70
0
0
VERTEX
8
Layer 1
10
145.364049
20
178.917163
70
0
0
VERTEX
8
Layer 1
10
146.506613
20
178.985376
70
0
0
VERTEX
8
Layer 1
10
147.478646
20
179.190014
70
0
0
VERTEX
8
Layer 1
10
148.280146
20
179.531078
70
0
0
VERTEX
8
Layer 1
10
148.911115
20
180.008568
70
0
0
VERTEX
8
Layer 1
10
149.779278
20
181.031760
70
0
0
VERTEX
8
Layer 1
10
150.399394
20
182.116964
70
0
0
VERTEX
8
Layer 1
10
150.771464
20
183.264179
70
0
0
VERTEX
8
Layer 1
10
150.895487
20
184.473406
70
0
0
VERTEX
8
Layer 1
10
150.895487
20
189.235900
70
0
0
VERTEX
8
Layer 1
10
155.459544
20
189.235900
70
0
0
VERTEX
8
Layer 1
10
155.459544
20
185.366374
70
0
0
VERTEX
8
Layer 1
10
155.732395
20
183.555634
70
0
0
VERTEX
8
Layer 1
10
156.550949
20
181.298410
70
0
0
VERTEX
8
Layer 1
10
157.178817
20
180.224058
70
0
0
VERTEX
8
Layer 1
10
157.995820
20
179.456664
70
0
0
VERTEX
8
Layer 1
10
159.001959
20
178.996228
70
0
0
VERTEX
8
Layer 1
10
160.197233
20
178.842749
70
0
0
VERTEX
8
Layer 1
10
161.448318
20
179.031885
70
0
0
VERTEX
8
Layer 1
10
162.497865
20
179.599291
70
0
0
VERTEX
8
Layer 1
10
163.345874
20
180.544969
70
0
0
VERTEX
8
Layer 1
10
163.992346
20
181.868917
70
0
0
VERTEX
8
Layer 1
10
164.393871
20
183.287434
70
0
0
VERTEX
8
Layer 1
10
164.680675
20
184.988103
70
0
0
VERTEX
8
Layer 1
10
164.910118
20
189.235900
70
0
0
VERTEX
8
Layer 1
10
169.474175
20
189.235900
70
0
0
VERTEX
8
Layer 1
10
169.591997
20
185.112126
70
0
0
VERTEX
8
Layer 1
10
169.945463
20
182.910713
70
0
0
VERTEX
8
Layer 1
10
170.810526
20
181.067417
70
0
0
VERTEX
8
Layer 1
10
171.818215
20
179.754320
70
0
0
VERTEX
8
Layer 1
10
172.968531
20
178.971423
70
0
0
VERTEX
8
Layer 1
10
174.261473
20
178.718726
70
0
0
VERTEX
8
Layer 1
10
175.087003
20
178.838098
70
0
0
VERTEX
8
Layer 1
10
175.802463
20
179.171411
70
0
0
VERTEX
8
Layer 1
10
176.407851
20
179.718664
70
0
0
VERTEX
8
Layer 1
10
176.903169
20
180.479856
70
0
0
VERTEX
8
Layer 1
10
177.288417
20
181.454990
70
0
0
VERTEX
8
Layer 1
10
177.563593
20
182.644063
70
0
0
VERTEX
8
Layer 1
10
177.783735
20
185.664030
70
0
0
VERTEX
8
Layer 1
10
177.783735
20
192.956599
70
0
0
VERTEX
8
Layer 1
10
182.347791
20
192.956599
70
0
0
VERTEX
8
Layer 1
10
182.347791
20
184.473406
70
0
0
VERTEX
8
Layer 1
10
182.205165
20
182.138668
70
0
0
VERTEX
8
Layer 1
10
181.777284
20
180.070580
70
0
0
VERTEX
8
Layer 1
10
181.064150
20
178.269142
70
0
0
VERTEX
8
Layer 1
10
180.065763
20
176.734353
70
0
0
VERTEX
8
Layer 1
10
179.093730
20
175.698759
70
0
0
VERTEX
8
Layer 1
10
178.037982
20
174.874004
70
0
0
VERTEX
8
Layer 1
10
176.898518
20
174.260089
70
0
0
VERTEX
8
Layer 1
10
175.675339
20
173.857013
70
0
0
VERTEX
8
Layer 1
10
173.889403
20
173.633771
70
0
0
VERTEX
8
Layer 1
10
172.376319
20
173.788800
70
0
0
VERTEX
8
Layer 1
10
170.962454
20
174.253888
70
0
0
VERTEX
8
Layer 1
10
169.447820
20
175.120500
70
0
0
VERTEX
8
Layer 1
10
168.302155
20
176.207254
70
0
0
VERTEX
8
Layer 1
10
167.525459
20
177.514150
70
0
0
VERTEX
8
Layer 1
10
167.117732
20
179.041186
70
0
0
VERTEX
8
Layer 1
10
166.448007
20
177.297109
70
0
0
VERTEX
8
Layer 1
10
165.629453
20
175.934403
70
0
0
VERTEX
8
Layer 1
10
164.662071
20
174.953069
70
0
0
VERTEX
8
Layer 1
10
163.545862
20
174.353106
70
0
0
VERTEX
8
Layer 1
10
161.877749
20
173.906623
70
0
0
VERTEX
8
Layer 1
10
160.246843
20
173.757795
70
0
0
VERTEX
8
Layer 1
10
159.071722
20
173.833759
70
0
0
VERTEX
8
Layer 1
10
157.977217
20
174.061652
70
0
0
VERTEX
8
Layer 1
10
156.963326
20
174.441473
70
0
0
VERTEX
8
Layer 1
10
156.030051
20
174.973223
70
0
0
VERTEX
8
Layer 1
10
154.659594
20
176.170047
70
0
0
VERTEX
8
Layer 1
10
153.524781
20
177.776149
70
0
0
VERTEX
8
Layer 1
10
153.524781
20
177.776149
70
0
0
SEQEND
8
Layer 1
0
POLYLINE
8
Layer 1
62
7
70
0
10
0.000000
20
0.000000
66
1
0
VERTEX
8
Layer 1
10
163.223401
20
204.118694
70
0
0
VERTEX
8
Layer 1
10
166.944100
20
204.118694
70
0
0
VERTEX
8
Layer 1
10
166.944100
20
200.397995
70
0
0
VERTEX
8
Layer 1
10
163.223401
20
200.397995
70
0
0
VERTEX
8
Layer 1
10
163.223401
20
204.118694
70
0
0
SEQEND
8
Layer 1
0
POLYLINE
8
Layer 1
62
7
70
0
10
0.000000
20
0.000000
66
1
0
VERTEX
8
Layer 1
10
166.323983
20
197.917530
70
0
0
VERTEX
8
Layer 1
10
170.044682
20
197.917530
70
0
0
VERTEX
8
Layer 1
10
170.044682
20
194.196831
70
0
0
VERTEX
8
Layer 1
10
166.323983
20
194.196831
70
0
0
VERTEX
8
Layer 1
10
166.323983
20
197.917530
70
0
0
SEQEND
8
Layer 1
0
POLYLINE
8
Layer 1
62
7
70
0
10
0.000000
20
0.000000
66
1
0
VERTEX
8
Layer 1
10
160.122819
20
197.917530
70
0
0
VERTEX
8
Layer 1
10
163.843518
20
197.917530
70
0
0
VERTEX
8
Layer 1
10
163.843518
20
194.196831
70
0
0
VERTEX
8
Layer 1
10
160.122819
20
194.196831
70
0
0
VERTEX
8
Layer 1
10
160.122819
20
197.917530
70
0
0
SEQEND
8
Layer 1
0
POLYLINE
8
Layer 1
62
7
70
0
10
0.000000
20
0.000000
66
1
0
VERTEX
8
Layer 1
10
136.087107
20
176.486307
70
0
0
VERTEX
8
Layer 1
10
135.015856
20
175.553032
70
0
0
VERTEX
8
Layer 1
10
133.712062
20
174.886407
70
0
0
VERTEX
8
Layer 1
10
132.175723
20
174.486431
70
0
0
VERTEX
8
Layer 1
10
130.406841
20
174.353106
70
0
0
VERTEX
8
Layer 1
10
128.174422
20
174.353106
70
0
0
VERTEX
8
Layer 1
10
128.174422
20
178.917163
70
0
0
VERTEX
8
Layer 1
10
129.042585
20
178.917163
70
0
0
VERTEX
8
Layer 1
10
130.185149
20
178.985376
70
0
0
VERTEX
8
Layer 1
10
131.157182
20
179.190014
70
0
0
VERTEX
8
Layer 1
10
131.958682
20
179.531078
70
0
0
VERTEX
8
Layer 1
10
132.589651
20
180.008568
70
0
0
VERTEX
8
Layer 1
10
133.121401
20
180.704649
70
0
0
VERTEX
8
Layer 1
10
133.501222
20
181.577463
70
0
0
VERTEX
8
Layer 1
10
133.729115
20
182.627010
70
0
0
VERTEX
8
Layer 1
10
133.805079
20
183.853290
70
0
0
VERTEX
8
Layer 1
10
133.805079
20
189.235900
70
0
0
VERTEX
8
Layer 1
10
138.369136
20
189.235900
70
0
0
VERTEX
8
Layer 1
10
138.369136
20
183.853290
70
0
0
VERTEX
8
Layer 1
10
138.445100
20
182.627010
70
0
0
VERTEX
8
Layer 1
10
138.672993
20
181.577463
70
0
0
VERTEX
8
Layer 1
10
139.052814
20
180.704649
70
0
0
VERTEX
8
Layer 1
10
139.584564
20
180.008568
70
0
0
VERTEX
8
Layer 1
10
140.215532
20
179.531078
70
0
0
VERTEX
8
Layer 1
10
141.017033
20
179.190014
70
0
0
VERTEX
8
Layer 1
10
141.989065
20
178.985376
70
0
0
VERTEX
8
Layer 1
10
143.131630
20
178.917163
70
0
0
VERTEX
8
Layer 1
10
144.495886
20
178.917163
70
0
0
VERTEX
8
Layer 1
10
144.495886
20
174.353106
70
0
0
VERTEX
8
Layer 1
10
141.767374
20
174.353106
70
0
0
VERTEX
8
Layer 1
10
140.017095
20
174.486431
70
0
0
VERTEX
8
Layer 1
10
138.486958
20
174.886407
70
0
0
VERTEX
8
Layer 1
10
137.176962
20
175.553032
70
0
0
VERTEX
8
Layer 1
10
136.087107
20
176.486307
70
0
0
VERTEX
8
Layer 1
10
136.087107
20
176.486307
70
0
0
SEQEND
8
Layer 1
0
POLYLINE
8
Layer 1
62
7
70
0
10
0.000000
20
0.000000
66
1
0
VERTEX
8
Layer 1
10
137.327340
20
170.632408
70
0
0
VERTEX
8
Layer 1
10
141.048039
20
170.632408
70
0
0
VERTEX
8
Layer 1
10
141.048039
20
166.911710
70
0
0
VERTEX
8
Layer 1
10
137.327340
20
166.911710
70
0
0
VERTEX
8
Layer 1
10
137.327340
20
170.632408
70
0
0
SEQEND
8
Layer 1
0
POLYLINE
8
Layer 1
62
7
70
0
10
0.000000
20
0.000000
66
1
0
VERTEX
8
Layer 1
10
131.126176
20
170.632408
70
0
0
VERTEX
8
Layer 1
10
134.846875
20
170.632408
70
0
0
VERTEX
8
Layer 1
10
134.846875
20
166.911710
70
0
0
VERTEX
8
Layer 1
10
131.126176
20
166.911710
70
0
0
VERTEX
8
Layer 1
10
131.126176
20
170.632408
70
0
0
SEQEND
8
Layer 1
0
POLYLINE
8
Layer 1
62
7
70
0
10
0.000000
20
0.000000
66
1
0
VERTEX
8
Layer 1
10
116.044945
20
176.163846
70
0
0
VERTEX
8
Layer 1
10
116.891404
20
177.883119
70
0
0
VERTEX
8
Layer 1
10
117.496018
20
179.915551
70
0
0
VERTEX
8
Layer 1
10
117.858786
20
182.261141
70
0
0
VERTEX
8
Layer 1
10
117.979708
20
184.919890
70
0
0
VERTEX
8
Layer 1
10
117.979708
20
212.949152
70
0
0
VERTEX
8
Layer 1
10
122.543765
20
212.949152
70
0
0
VERTEX
8
Layer 1
10
122.543765
20
183.853290
70
0
0
VERTEX
8
Layer 1
10
122.619729
20
182.627010
70
0
0
VERTEX
8
Layer 1
10
122.847622
20
181.577463
70
0
0
VERTEX
8
Layer 1
10
123.227443
20
180.704649
70
0
0
VERTEX
8
Layer 1
10
123.759193
20
180.008568
70
0
0
VERTEX
8
Layer 1
10
124.390162
20
179.531078
70
0
0
VERTEX
8
Layer 1
10
125.191662
20
179.190014
70
0
0
VERTEX
8
Layer 1
10
126.163695
20
178.985376
70
0
0
VERTEX
8
Layer 1
10
127.306259
20
178.917163
70
0
0
VERTEX
8
Layer 1
10
129.166608
20
178.917163
70
0
0
VERTEX
8
Layer 1
10
129.166608
20
174.353106
70
0
0
VERTEX
8
Layer 1
10
125.942003
20
174.353106
70
0
0
VERTEX
8
Layer 1
10
124.605652
20
174.432171
70
0
0
VERTEX
8
Layer 1
10
123.374721
20
174.669366
70
0
0
VERTEX
8
Layer 1
10
122.249210
20
175.064690
70
0
0
VERTEX
8
Layer 1
10
121.229118
20
175.618144
70
0
0
VERTEX
8
Layer 1
10
120.112909
20
173.484943
70
0
0
VERTEX
8
Layer 1
10
118.395186
20
171.461814
70
0
0
VERTEX
8
Layer 1
10
116.243382
20
169.782848
70
0
0
VERTEX
8
Layer 1
10
113.657497
20
168.448048
70
0
0
VERTEX
8
Layer 1
10
110.637530
20
167.457412
70
0
0
VERTEX
8
Layer 1
10
107.617563
20
166.824893
70
0
0
VERTEX
8
Layer 1
10
105.205310
20
166.614054
70
0
0
VERTEX
8
Layer 1
10
102.935684
20
166.750479
70
0
0
VERTEX
8
Layer 1
10
101.038128
20
167.159756
70
0
0
VERTEX
8
Layer 1
10
99.340172
20
167.794988
70
0
0
VERTEX
8
Layer 1
10
97.867783
20
168.572071
70
0
0
VERTEX
8
Layer 1
10
96.620961
20
169.491006
70
0
0
VERTEX
8
Layer 1
10
95.599707
20
170.551793
70
0
0
VERTEX
8
Layer 1
10
94.804020
20
171.754431
70
0
0
VERTEX
8
Layer 1
10
94.233901
20
173.098921
70
0
0
VERTEX
8
Layer 1
10
93.889349
20
174.585262
70
0
0
VERTEX
8
Layer 1
10
93.770364
20
176.213456
70
0
0
VERTEX
8
Layer 1
10
93.858735
20
177.853664
70
0
0
VERTEX
8
Layer 1
10
94.148641
20
179.351245
70
0
0
VERTEX
8
Layer 1
10
94.640082
20
180.706199
70
0
0
VERTEX
8
Layer 1
10
95.333057
20
181.918527
70
0
0
VERTEX
8
Layer 1
10
99.897114
20
181.918527
70
0
0
VERTEX
8
Layer 1
10
99.191731
20
180.492259
70
0
0
VERTEX
8
Layer 1
10
98.687887
20
179.065991
70
0
0
VERTEX
8
Layer 1
10
98.385580
20
177.639723
70
0
0
VERTEX
8
Layer 1
10
98.284811
20
176.213456
70
0
0
VERTEX
8
Layer 1
10
98.542160
20
174.743780
70
0
0
VERTEX
8
Layer 1
10
99.314204
20
173.460139
70
0
0
VERTEX
8
Layer 1
10
100.600946
20
172.362533
70
0
0
VERTEX
8
Layer 1
10
102.402384
20
171.450962
70
0
0
VERTEX
8
Layer 1
10
103.599209
20
171.153306
70
0
0
VERTEX
8
Layer 1
10
105.205310
20
171.054087
70
0
0
VERTEX
8
Layer 1
10
107.369517
20
171.264927
70
0
0
VERTEX
8
Layer 1
10
109.893390
20
171.897445
70
0
0
VERTEX
8
Layer 1
10
111.896366
20
172.657088
70
0
0
VERTEX
8
Layer 1
10
113.589284
20
173.621369
70
0
0
VERTEX
8
Layer 1
10
114.972144
20
174.790288
70
0
0
VERTEX
8
Layer 1
10
116.044945
20
176.163846
70
0
0
VERTEX
8
Layer 1
10
116.044945
20
176.163846
70
0
0
SEQEND
8
Layer 1
0
POLYLINE
8
Layer 1
62
7
70
0
10
0.000000
20
0.000000
66
1
0
VERTEX
8
Layer 1
10
140.204680
20
113.135215
70
0
0
VERTEX
8
Layer 1
10
142.328580
20
113.423569
70
0
0
VERTEX
8
Layer 1
10
144.706727
20
114.288633
70
0
0
VERTEX
8
Layer 1
10
143.847865
20
114.694809
70
0
0
VERTEX
8
Layer 1
10
143.131630
20
115.318025
70
0
0
VERTEX
8
Layer 1
10
142.313076
20
116.682281
70
0
0
VERTEX
8
Layer 1
10
142.040225
20
118.294583
70
0
0
VERTEX
8
Layer 1
10
142.198355
20
119.823945
70
0
0
VERTEX
8
Layer 1
10
142.672744
20
121.137817
70
0
0
VERTEX
8
Layer 1
10
143.463392
20
122.236199
70
0
0
VERTEX
8
Layer 1
10
144.570300
20
123.119090
70
0
0
VERTEX
8
Layer 1
10
145.443114
20
123.536893
70
0
0
VERTEX
8
Layer 1
10
146.511265
20
123.835324
70
0
0
VERTEX
8
Layer 1
10
149.233575
20
124.074068
70
0
0
VERTEX
8
Layer 1
10
149.233575
20
121.978076
70
0
0
VERTEX
8
Layer 1
10
146.917441
20
121.764136
70
0
0
VERTEX
8
Layer 1
10
146.050053
20
121.496710
70
0
0
VERTEX
8
Layer 1
10
145.376452
20
121.122314
70
0
0
VERTEX
8
Layer 1
10
144.871832
20
120.654126
70
0
0
VERTEX
8
Layer 1
10
144.511389
20
120.092921
70
0
0
VERTEX
8
Layer 1
10
144.295123
20
119.438698
70
0
0
VERTEX
8
Layer 1
10
144.223035
20
118.691458
70
0
0
VERTEX
8
Layer 1
10
144.415271
20
117.348907
70
0
0
VERTEX
8
Layer 1
10
144.991979
20
116.471442
70
0
0
VERTEX
8
Layer 1
10
145.981066
20
115.820320
70
0
0
VERTEX
8
Layer 1
10
146.889536
20
115.603279
70
0
0
VERTEX
8
Layer 1
10
147.630575
20
115.705598
70
0
0
VERTEX
8
Layer 1
10
148.489435
20
116.012555
70
0
0
VERTEX
8
Layer 1
10
152.061306
20
117.612457
70
0
0
VERTEX
8
Layer 1
10
152.061306
20
115.330428
70
0
0
VERTEX
8
Layer 1
10
146.852328
20
112.887168
70
0
0
VERTEX
8
Layer 1
10
143.044813
20
111.361682
70
0
0
VERTEX
8
Layer 1
10
141.541031
20
110.980310
70
0
0
VERTEX
8
Layer 1
10
140.303899
20
110.853186
70
0
0
VERTEX
8
Layer 1
10
139.212494
20
110.853186
70
0
0
VERTEX
8
Layer 1
10
139.212494
20
113.135215
70
0
0
VERTEX
8
Layer 1
10
140.204680
20
113.135215
70
0
0
SEQEND
8
Layer 1
0
POLYLINE
8
Layer 1
62
7
70
0
10
0.000000
20
0.000000
66
1
0
VERTEX
8
Layer 1
10
135.504199
20
111.919787
70
0
0
VERTEX
8
Layer 1
10
134.968573
20
111.453149
70
0
0
VERTEX
8
Layer 1
10
134.316675
20
111.119836
70
0
0
VERTEX
8
Layer 1
10
133.548506
20
110.919849
70
0
0
VERTEX
8
Layer 1
10
132.664065
20
110.853186
70
0
0
VERTEX
8
Layer 1
10
131.547855
20
110.853186
70
0
0
VERTEX
8
Layer 1
10
131.547855
20
113.135215
70
0
0
VERTEX
8
Layer 1
10
131.981938
20
113.135215
70
0
0
VERTEX
8
Layer 1
10
133.039236
20
113.271640
70
0
0
VERTEX
8
Layer 1
10
133.755470
20
113.680917
70
0
0
VERTEX
8
Layer 1
10
134.211256
20
114.465365
70
0
0
VERTEX
8
Layer 1
10
134.363185
20
115.603279
70
0
0
VERTEX
8
Layer 1
10
134.363185
20
118.294583
70
0
0
VERTEX
8
Layer 1
10
136.645213
20
118.294583
70
0
0
VERTEX
8
Layer 1
10
136.645213
20
115.603279
70
0
0
VERTEX
8
Layer 1
10
136.797142
20
114.465365
70
0
0
VERTEX
8
Layer 1
10
137.252926
20
113.680917
70
0
0
VERTEX
8
Layer 1
10
137.969161
20
113.271640
70
0
0
VERTEX
8
Layer 1
10
139.026460
20
113.135215
70
0
0
VERTEX
8
Layer 1
10
139.708587
20
113.135215
70
0
0
VERTEX
8
Layer 1
10
139.708587
20
110.853186
70
0
0
VERTEX
8
Layer 1
10
138.344331
20
110.853186
70
0
0
VERTEX
8
Layer 1
10
136.704124
20
111.119836
70
0
0
VERTEX
8
Layer 1
10
136.049126
20
111.453149
70
0
0
VERTEX
8
Layer 1
10
135.504199
20
111.919787
70
0
0
VERTEX
8
Layer 1
10
135.504199
20
111.919787
70
0
0
SEQEND
8
Layer 1
0
POLYLINE
8
Layer 1
62
7
70
0
10
0.000000
20
0.000000
66
1
0
VERTEX
8
Layer 1
10
136.124316
20
108.992837
70
0
0
VERTEX
8
Layer 1
10
137.984665
20
108.992837
70
0
0
VERTEX
8
Layer 1
10
137.984665
20
107.132488
70
0
0
VERTEX
8
Layer 1
10
136.124316
20
107.132488
70
0
0
VERTEX
8
Layer 1
10
136.124316
20
108.992837
70
0
0
SEQEND
8
Layer 1
0
POLYLINE
8
Layer 1
62
7
70
0
10
0.000000
20
0.000000
66
1
0
VERTEX
8
Layer 1
10
133.023734
20
108.992837
70
0
0
VERTEX
8
Layer 1
10
134.884083
20
108.992837
70
0
0
VERTEX
8
Layer 1
10
134.884083
20
107.132488
70
0
0
VERTEX
8
Layer 1
10
133.023734
20
107.132488
70
0
0
VERTEX
8
Layer 1
10
133.023734
20
108.992837
70
0
0
SEQEND
8
Layer 1
0
POLYLINE
8
Layer 1
62
7
70
0
10
0.000000
20
0.000000
66
1
0
VERTEX
8
Layer 1
10
126.772960
20
113.135215
70
0
0
VERTEX
8
Layer 1
10
126.574523
20
114.784726
70
0
0
VERTEX
8
Layer 1
10
126.208654
20
115.621883
70
0
0
VERTEX
8
Layer 1
10
125.706360
20
116.148982
70
0
0
VERTEX
8
Layer 1
10
124.962220
20
116.449737
70
0
0
VERTEX
8
Layer 1
10
124.218081
20
116.335015
70
0
0
VERTEX
8
Layer 1
10
123.554555
20
115.891633
70
0
0
VERTEX
8
Layer 1
10
123.225894
20
115.280819
70
0
0
VERTEX
8
Layer 1
10
123.266201
20
114.415755
70
0
0
VERTEX
8
Layer 1
10
123.808803
20
113.680917
70
0
0
VERTEX
8
Layer 1
10
124.841297
20
113.296445
70
0
0
VERTEX
8
Layer 1
10
126.772960
20
113.135215
70
0
0
VERTEX
8
Layer 1
10
126.772960
20
113.135215
70
0
0
SEQEND
8
Layer 1
0
POLYLINE
8
Layer 1
62
7
70
0
10
0.000000
20
0.000000
66
1
0
VERTEX
8
Layer 1
10
128.992976
20
113.135215
70
0
0
VERTEX
8
Layer 1
10
132.043948
20
113.135215
70
0
0
VERTEX
8
Layer 1
10
132.043948
20
110.853186
70
0
0
VERTEX
8
Layer 1
10
129.637897
20
110.853186
70
0
0
VERTEX
8
Layer 1
10
128.769734
20
110.865595
70
0
0
VERTEX
8
Layer 1
10
128.534090
20
109.919143
70
0
0
VERTEX
8
Layer 1
10
128.137216
20
109.014548
70
0
0
VERTEX
8
Layer 1
10
127.579111
20
108.151810
70
0
0
VERTEX
8
Layer 1
10
126.859775
20
107.330931
70
0
0
VERTEX
8
Layer 1
10
125.762170
20
106.413159
70
0
0
VERTEX
8
Layer 1
10
124.528138
20
105.718628
70
0
0
VERTEX
8
Layer 1
10
123.203414
20
105.251990
70
0
0
VERTEX
8
Layer 1
10
121.610490
20
104.918678
70
0
0
VERTEX
8
Layer 1
10
119.749366
20
104.718690
70
0
0
VERTEX
8
Layer 1
10
117.620042
20
104.652028
70
0
0
VERTEX
8
Layer 1
10
117.620042
20
106.934056
70
0
0
VERTEX
8
Layer 1
10
121.387248
20
107.169700
70
0
0
VERTEX
8
Layer 1
10
122.738327
20
107.464256
70
0
0
VERTEX
8
Layer 1
10
123.734389
20
107.876633
70
0
0
VERTEX
8
Layer 1
10
124.694019
20
108.506827
70
0
0
VERTEX
8
Layer 1
10
125.489318
20
109.219186
70
0
0
VERTEX
8
Layer 1
10
126.120286
20
110.013710
70
0
0
VERTEX
8
Layer 1
10
126.586924
20
110.890400
70
0
0
VERTEX
8
Layer 1
10
124.565346
20
111.014423
70
0
0
VERTEX
8
Layer 1
10
123.114273
20
111.370990
70
0
0
VERTEX
8
Layer 1
10
122.208904
20
111.845378
70
0
0
VERTEX
8
Layer 1
10
121.625994
20
112.432939
70
0
0
VERTEX
8
Layer 1
10
121.191913
20
113.091813
70
0
0
VERTEX
8
Layer 1
10
120.906659
20
113.821999
70
0
0
VERTEX
8
Layer 1
10
120.770233
20
114.623499
70
0
0
VERTEX
8
Layer 1
10
120.869452
20
115.714904
70
0
0
VERTEX
8
Layer 1
10
121.152380
20
116.614074
70
0
0
VERTEX
8
Layer 1
10
121.666301
20
117.389219
70
0
0
VERTEX
8
Layer 1
10
122.411215
20
118.040341
70
0
0
VERTEX
8
Layer 1
10
123.387123
20
118.567440
70
0
0
VERTEX
8
Layer 1
10
124.137465
20
118.796884
70
0
0
VERTEX
8
Layer 1
10
124.925012
20
118.865096
70
0
0
VERTEX
8
Layer 1
10
125.948205
20
118.694571
70
0
0
VERTEX
8
Layer 1
10
126.859775
20
118.232578
70
0
0
VERTEX
8
Layer 1
10
127.598489
20
117.624089
70
0
0
VERTEX
8
Layer 1
10
128.165121
20
116.939635
70
0
0
VERTEX
8
Layer 1
10
128.559671
20
116.179217
70
0
0
VERTEX
8
Layer 1
10
128.782137
20
115.342834
70
0
0
VERTEX
8
Layer 1
10
128.992976
20
113.135220
70
0
0
VERTEX
8
Layer 1
10
128.992976
20
113.135215
70
0
0
SEQEND
8
Layer 1
0
POLYLINE
8
Layer 1
62
7
70
0
10
0.000000
20
0.000000
66
1
0
VERTEX
8
Layer 1
10
114.383033
20
123.255515
70
0
0
VERTEX
8
Layer 1
10
116.243382
20
123.255515
70
0
0
VERTEX
8
Layer 1
10
116.243382
20
121.395165
70
0
0
VERTEX
8
Layer 1
10
114.383033
20
121.395165
70
0
0
VERTEX
8
Layer 1
10
114.383033
20
123.255515
70
0
0
SEQEND
8
Layer 1
0
POLYLINE
8
Layer 1
62
7
70
0
10
0.000000
20
0.000000
66
1
0
VERTEX
8
Layer 1
10
115.313209
20
111.919787
70
0
0
VERTEX
8
Layer 1
10
114.800838
20
111.453149
70
0
0
VERTEX
8
Layer 1
10
114.156692
20
111.119836
70
0
0
VERTEX
8
Layer 1
10
113.380771
20
110.919849
70
0
0
VERTEX
8
Layer 1
10
112.473075
20
110.853186
70
0
0
VERTEX
8
Layer 1
10
111.356865
20
110.853186
70
0
0
VERTEX
8
Layer 1
10
111.356865
20
113.135215
70
0
0
VERTEX
8
Layer 1
10
111.790948
20
113.135215
70
0
0
VERTEX
8
Layer 1
10
112.848245
20
113.271640
70
0
0
VERTEX
8
Layer 1
10
113.564479
20
113.680917
70
0
0
VERTEX
8
Layer 1
10
114.020266
20
114.465365
70
0
0
VERTEX
8
Layer 1
10
114.172195
20
115.603279
70
0
0
VERTEX
8
Layer 1
10
114.172195
20
118.294583
70
0
0
VERTEX
8
Layer 1
10
116.454223
20
118.294583
70
0
0
VERTEX
8
Layer 1
10
116.454223
20
115.603279
70
0
0
VERTEX
8
Layer 1
10
116.382910
20
114.503347
70
0
0
VERTEX
8
Layer 1
10
116.168970
20
113.522788
70
0
0
VERTEX
8
Layer 1
10
115.812403
20
112.661601
70
0
0
VERTEX
8
Layer 1
10
115.313209
20
111.919787
70
0
0
VERTEX
8
Layer 1
10
115.313209
20
111.919787
70
0
0
SEQEND
8
Layer 1
0
POLYLINE
8
Layer 1
62
7
70
0
10
0.000000
20
0.000000
66
1
0
VERTEX
8
Layer 1
10
102.303166
20
124.929830
70
0
0
VERTEX
8
Layer 1
10
102.303166
20
123.912839
70
0
0
VERTEX
8
Layer 1
10
100.914105
20
123.689597
70
0
0
VERTEX
8
Layer 1
10
100.169965
20
123.308225
70
0
0
VERTEX
8
Layer 1
10
99.921919
20
122.908249
70
0
0
VERTEX
8
Layer 1
10
100.095551
20
122.337742
70
0
0
VERTEX
8
Layer 1
10
101.087737
20
122.015282
70
0
0
VERTEX
8
Layer 1
10
101.641191
20
121.865679
70
0
0
VERTEX
8
Layer 1
10
102.036516
20
121.602905
70
0
0
VERTEX
8
Layer 1
10
102.273710
20
121.226960
70
0
0
VERTEX
8
Layer 1
10
102.352775
20
120.737843
70
0
0
VERTEX
8
Layer 1
10
102.284562
20
120.108425
70
0
0
VERTEX
8
Layer 1
10
102.079924
20
119.584427
70
0
0
VERTEX
8
Layer 1
10
101.738860
20
119.165848
70
0
0
VERTEX
8
Layer 1
10
101.261370
20
118.852689
70
0
0
VERTEX
8
Layer 1
10
100.256781
20
118.489920
70
0
0
VERTEX
8
Layer 1
10
99.276997
20
118.368997
70
0
0
VERTEX
8
Layer 1
10
97.763913
20
118.505424
70
0
0
VERTEX
8
Layer 1
10
97.763913
20
119.596829
70
0
0
VERTEX
8
Layer 1
10
99.165378
20
119.472806
70
0
0
VERTEX
8
Layer 1
10
99.900215
20
119.553421
70
0
0
VERTEX
8
Layer 1
10
100.616449
20
119.795266
70
0
0
VERTEX
8
Layer 1
10
101.174554
20
120.130129
70
0
0
VERTEX
8
Layer 1
10
101.360589
20
120.489797
70
0
0
VERTEX
8
Layer 1
10
101.118743
20
120.895973
70
0
0
VERTEX
8
Layer 1
10
100.393207
20
121.171923
70
0
0
VERTEX
8
Layer 1
10
99.649067
20
121.407568
70
0
0
VERTEX
8
Layer 1
10
99.252193
20
121.717626
70
0
0
VERTEX
8
Layer 1
10
98.957638
20
122.297436
70
0
0
VERTEX
8
Layer 1
10
98.867722
20
122.871044
70
0
0
VERTEX
8
Layer 1
10
99.118862
20
123.742306
70
0
0
VERTEX
8
Layer 1
10
99.822700
20
124.346919
70
0
0
VERTEX
8
Layer 1
10
100.969916
20
124.759298
70
0
0
VERTEX
8
Layer 1
10
102.303166
20
124.929830
70
0
0
VERTEX
8
Layer 1
10
102.303166
20
124.929830
70
0
0
SEQEND
8
Layer 1
0
POLYLINE
8
Layer 1
62
7
70
0
10
0.000000
20
0.000000
66
1
0
VERTEX
8
Layer 1
10
102.588420
20
110.394302
70
0
0
VERTEX
8
Layer 1
10
101.124945
20
110.214468
70
0
0
VERTEX
8
Layer 1
10
99.438229
20
110.171060
70
0
0
VERTEX
8
Layer 1
10
97.199608
20
110.282674
70
0
0
VERTEX
8
Layer 1
10
95.618312
20
110.567934
70
0
0
VERTEX
8
Layer 1
10
94.028488
20
111.196577
70
0
0
VERTEX
8
Layer 1
10
92.892899
20
111.991101
70
0
0
VERTEX
8
Layer 1
10
92.211546
20
112.951506
70
0
0
VERTEX
8
Layer 1
10
91.984429
20
114.077792
70
0
0
VERTEX
8
Layer 1
10
92.182866
20
115.665290
70
0
0
VERTEX
8
Layer 1
10
94.464894
20
115.665290
70
0
0
VERTEX
8
Layer 1
10
94.291262
20
114.400252
70
0
0
VERTEX
8
Layer 1
10
94.426132
20
113.865402
70
0
0
VERTEX
8
Layer 1
10
94.805952
20
113.401865
70
0
0
VERTEX
8
Layer 1
10
95.430721
20
113.009641
70
0
0
VERTEX
8
Layer 1
10
96.300439
20
112.688731
70
0
0
VERTEX
8
Layer 1
10
97.819725
20
112.363171
70
0
0
VERTEX
8
Layer 1
10
99.376216
20
112.254651
70
0
0
VERTEX
8
Layer 1
10
100.954413
20
112.338366
70
0
0
VERTEX
8
Layer 1
10
102.216351
20
112.589512
70
0
0
VERTEX
8
Layer 1
10
103.934073
20
113.318150
70
0
0
VERTEX
8
Layer 1
10
105.316933
20
114.338242
70
0
0
VERTEX
8
Layer 1
10
105.729310
20
114.933553
70
0
0
VERTEX
8
Layer 1
10
106.023865
20
115.814118
70
0
0
VERTEX
8
Layer 1
10
106.259510
20
118.431010
70
0
0
VERTEX
8
Layer 1
10
106.259510
20
130.151209
70
0
0
VERTEX
8
Layer 1
10
108.541538
20
130.151209
70
0
0
VERTEX
8
Layer 1
10
108.541538
20
115.603279
70
0
0
VERTEX
8
Layer 1
10
108.693466
20
114.465365
70
0
0
VERTEX
8
Layer 1
10
109.149251
20
113.680917
70
0
0
VERTEX
8
Layer 1
10
109.865485
20
113.271640
70
0
0
VERTEX
8
Layer 1
10
110.922785
20
113.135215
70
0
0
VERTEX
8
Layer 1
10
111.852958
20
113.135215
70
0
0
VERTEX
8
Layer 1
10
111.852958
20
110.853186
70
0
0
VERTEX
8
Layer 1
10
110.240656
20
110.853186
70
0
0
VERTEX
8
Layer 1
10
109.322884
20
110.948529
70
0
0
VERTEX
8
Layer 1
10
108.467123
20
111.234558
70
0
0
VERTEX
8
Layer 1
10
107.673374
20
111.711273
70
0
0
VERTEX
8
Layer 1
10
106.941636
20
112.378674
70
0
0
VERTEX
8
Layer 1
10
104.873548
20
111.101234
70
0
0
VERTEX
8
Layer 1
10
103.758114
20
110.676455
70
0
0
VERTEX
8
Layer 1
10
102.588420
20
110.394302
70
0
0
VERTEX
8
Layer 1
10
102.588420
20
110.394302
70
0
0
SEQEND
8
Layer 1
0
POLYLINE
8
Layer 1
62
7
70
0
10
0.000000
20
0.000000
66
1
0
VERTEX
8
Layer 1
10
149.357598
20
18.081192
70
0
0
VERTEX
8
Layer 1
10
151.417935
20
18.225369
70
0
0
VERTEX
8
Layer 1
10
153.605396
20
18.657897
70
0
0
VERTEX
8
Layer 1
10
155.919980
20
19.378778
70
0
0
VERTEX
8
Layer 1
10
158.361689
20
20.388012
70
0
0
VERTEX
8
Layer 1
10
156.643966
20
21.200368
70
0
0
VERTEX
8
Layer 1
10
155.211497
20
22.446812
70
0
0
VERTEX
8
Layer 1
10
154.256518
20
23.749056
70
0
0
VERTEX
8
Layer 1
10
153.574390
20
25.175324
70
0
0
VERTEX
8
Layer 1
10
153.165113
20
26.725615
70
0
0
VERTEX
8
Layer 1
10
153.028688
20
28.399929
70
0
0
VERTEX
8
Layer 1
10
153.107752
20
29.983163
70
0
0
VERTEX
8
Layer 1
10
153.344947
20
31.458651
70
0
0
VERTEX
8
Layer 1
10
153.740271
20
32.826395
70
0
0
VERTEX
8
Layer 1
10
154.293725
20
34.086393
70
0
0
VERTEX
8
Layer 1
10
155.005309
20
35.238646
70
0
0
VERTEX
8
Layer 1
10
155.875022
20
36.283154
70
0
0
VERTEX
8
Layer 1
10
156.902865
20
37.219917
70
0
0
VERTEX
8
Layer 1
10
158.088837
20
38.048935
70
0
0
VERTEX
8
Layer 1
10
159.834465
20
38.884542
70
0
0
VERTEX
8
Layer 1
10
161.970766
20
39.481404
70
0
0
VERTEX
8
Layer 1
10
164.497741
20
39.839521
70
0
0
VERTEX
8
Layer 1
10
167.415388
20
39.958894
70
0
0
VERTEX
8
Layer 1
10
167.415388
20
35.766907
70
0
0
VERTEX
8
Layer 1
10
164.905467
20
35.659937
70
0
0
VERTEX
8
Layer 1
10
162.783119
20
35.339027
70
0
0
VERTEX
8
Layer 1
10
161.048343
20
34.804176
70
0
0
VERTEX
8
Layer 1
10
159.701140
20
34.055386
70
0
0
VERTEX
8
Layer 1
10
158.691901
20
33.119012
70
0
0
VERTEX
8
Layer 1
10
157.971015
20
31.996603
70
0
0
VERTEX
8
Layer 1
10
157.538484
20
30.688159
70
0
0
VERTEX
8
Layer 1
10
157.394307
20
29.193678
70
0
0
VERTEX
8
Layer 1
10
157.490425
20
27.734849
70
0
0
VERTEX
8
Layer 1
10
157.778779
20
26.508564
70
0
0
VERTEX
8
Layer 1
10
158.259369
20
25.514825
70
0
0
VERTEX
8
Layer 1
10
158.932196
20
24.753632
70
0
0
VERTEX
8
Layer 1
10
159.941435
20
23.993989
70
0
0
VERTEX
8
Layer 1
10
160.910367
20
23.451387
70
0
0
VERTEX
8
Layer 1
10
161.838991
20
23.125826
70
0
0
VERTEX
8
Layer 1
10
162.727308
20
23.017306
70
0
0
VERTEX
8
Layer 1
10
164.209386
20
23.221947
70
0
0
VERTEX
8
Layer 1
10
165.927109
20
23.835873
70
0
0
VERTEX
8
Layer 1
10
173.070850
20
27.035660
70
0
0
VERTEX
8
Layer 1
10
173.070850
20
22.471603
70
0
0
VERTEX
8
Layer 1
10
162.652894
20
17.585099
70
0
0
VERTEX
8
Layer 1
10
158.578729
20
15.805365
70
0
0
VERTEX
8
Layer 1
10
155.037865
20
14.534127
70
0
0
VERTEX
8
Layer 1
10
152.030300
20
13.771383
70
0
0
VERTEX
8
Layer 1
10
149.556036
20
13.517136
70
0
0
VERTEX
8
Layer 1
10
147.373226
20
13.517136
70
0
0
VERTEX
8
Layer 1
10
147.373226
20
18.081192
70
0
0
VERTEX
8
Layer 1
10
149.357598
20
18.081192
70
0
0
SEQEND
8
Layer 1
0
POLYLINE
8
Layer 1
62
7
70
0
10
0.000000
20
0.000000
66
1
0
VERTEX
8
Layer 1
10
138.096285
20
38.321787
70
0
0
VERTEX
8
Layer 1
10
141.816983
20
38.321787
70
0
0
VERTEX
8
Layer 1
10
141.816983
20
34.601088
70
0
0
VERTEX
8
Layer 1
10
138.096285
20
34.601088
70
0
0
VERTEX
8
Layer 1
10
138.096285
20
38.321787
70
0
0
SEQEND
8
Layer 1
0
POLYLINE
8
Layer 1
62
7
70
0
10
0.000000
20
0.000000
66
1
0
VERTEX
8
Layer 1
10
139.956634
20
15.650336
70
0
0
VERTEX
8
Layer 1
10
138.885383
20
14.717061
70
0
0
VERTEX
8
Layer 1
10
137.581588
20
14.050436
70
0
0
VERTEX
8
Layer 1
10
136.045250
20
13.650461
70
0
0
VERTEX
8
Layer 1
10
134.276367
20
13.517136
70
0
0
VERTEX
8
Layer 1
10
132.043948
20
13.517136
70
0
0
VERTEX
8
Layer 1
10
132.043948
20
18.081192
70
0
0
VERTEX
8
Layer 1
10
132.912111
20
18.081192
70
0
0
VERTEX
8
Layer 1
10
134.054676
20
18.149405
70
0
0
VERTEX
8
Layer 1
10
135.026708
20
18.354044
70
0
0
VERTEX
8
Layer 1
10
135.828209
20
18.695108
70
0
0
VERTEX
8
Layer 1
10
136.459177
20
19.172597
70
0
0
VERTEX
8
Layer 1
10
136.990927
20
19.868672
70
0
0
VERTEX
8
Layer 1
10
137.370748
20
20.741482
70
0
0
VERTEX
8
Layer 1
10
137.598641
20
21.791026
70
0
0
VERTEX
8
Layer 1
10
137.674605
20
23.017306
70
0
0
VERTEX
8
Layer 1
10
137.674605
20
28.399929
70
0
0
VERTEX
8
Layer 1
10
142.238662
20
28.399929
70
0
0
VERTEX
8
Layer 1
10
142.238662
20
23.017306
70
0
0
VERTEX
8
Layer 1
10
142.314626
20
21.791026
70
0
0
VERTEX
8
Layer 1
10
142.542519
20
20.741482
70
0
0
VERTEX
8
Layer 1
10
142.922340
20
19.868672
70
0
0
VERTEX
8
Layer 1
10
143.454090
20
19.172597
70
0
0
VERTEX
8
Layer 1
10
144.085059
20
18.695108
70
0
0
VERTEX
8
Layer 1
10
144.886559
20
18.354044
70
0
0
VERTEX
8
Layer 1
10
145.858592
20
18.149405
70
0
0
VERTEX
8
Layer 1
10
147.001156
20
18.081192
70
0
0
VERTEX
8
Layer 1
10
148.365412
20
18.081192
70
0
0
VERTEX
8
Layer 1
10
148.365412
20
13.517136
70
0
0
VERTEX
8
Layer 1
10
145.636900
20
13.517136
70
0
0
VERTEX
8
Layer 1
10
143.886621
20
13.650461
70
0
0
VERTEX
8
Layer 1
10
142.356484
20
14.050436
70
0
0
VERTEX
8
Layer 1
10
141.046488
20
14.717061
70
0
0
VERTEX
8
Layer 1
10
139.956634
20
15.650336
70
0
0
VERTEX
8
Layer 1
10
139.956634
20
15.650336
70
0
0
SEQEND
8
Layer 1
0
POLYLINE
8
Layer 1
62
7
70
0
10
0.000000
20
0.000000
66
1
0
VERTEX
8
Layer 1
10
108.801985
20
4.835506
70
0
0
VERTEX
8
Layer 1
10
112.522684
20
4.835506
70
0
0
VERTEX
8
Layer 1
10
112.522684
20
1.114807
70
0
0
VERTEX
8
Layer 1
10
108.801985
20
1.114807
70
0
0
VERTEX
8
Layer 1
10
108.801985
20
4.835506
70
0
0
SEQEND
8
Layer 1
0
POLYLINE
8
Layer 1
62
7
70
0
10
0.000000
20
0.000000
66
1
0
VERTEX
8
Layer 1
10
102.600821
20
4.835506
70
0
0
VERTEX
8
Layer 1
10
106.321520
20
4.835506
70
0
0
VERTEX
8
Layer 1
10
106.321520
20
1.114807
70
0
0
VERTEX
8
Layer 1
10
102.600821
20
1.114807
70
0
0
VERTEX
8
Layer 1
10
102.600821
20
4.835506
70
0
0
SEQEND
8
Layer 1
0
POLYLINE
8
Layer 1
62
7
70
0
10
0.000000
20
0.000000
66
1
0
VERTEX
8
Layer 1
10
117.483615
20
12.698569
70
0
0
VERTEX
8
Layer 1
10
119.176533
20
13.851992
70
0
0
VERTEX
8
Layer 1
10
119.599762
20
14.344983
70
0
0
VERTEX
8
Layer 1
10
119.740839
20
14.782160
70
0
0
VERTEX
8
Layer 1
10
119.657128
20
15.268956
70
0
0
VERTEX
8
Layer 1
10
119.430787
20
15.662732
70
0
0
VERTEX
8
Layer 1
10
119.061816
20
15.963487
70
0
0
VERTEX
8
Layer 1
10
118.550215
20
16.171221
70
0
0
VERTEX
8
Layer 1
10
117.824679
20
16.568095
70
0
0
VERTEX
8
Layer 1
10
117.086741
20
17.361844
70
0
0
VERTEX
8
Layer 1
10
116.268187
20
18.837728
70
0
0
VERTEX
8
Layer 1
10
115.995336
20
20.338403
70
0
0
VERTEX
8
Layer 1
10
116.075951
20
21.136808
70
0
0
VERTEX
8
Layer 1
10
116.317796
20
21.919710
70
0
0
VERTEX
8
Layer 1
10
117.285178
20
23.438998
70
0
0
VERTEX
8
Layer 1
10
118.283565
20
24.480794
70
0
0
VERTEX
8
Layer 1
10
119.294355
20
25.274543
70
0
0
VERTEX
8
Layer 1
10
120.317547
20
25.820245
70
0
0
VERTEX
8
Layer 1
10
121.353142
20
26.117901
70
0
0
VERTEX
8
Layer 1
10
123.139077
20
26.266729
70
0
0
VERTEX
8
Layer 1
10
124.543640
20
26.058990
70
0
0
VERTEX
8
Layer 1
10
125.855187
20
25.435773
70
0
0
VERTEX
8
Layer 1
10
127.073715
20
24.397078
70
0
0
VERTEX
8
Layer 1
10
128.199227
20
22.942905
70
0
0
VERTEX
8
Layer 1
10
130.778911
20
19.296621
70
0
0
VERTEX
8
Layer 1
10
131.622269
20
18.385049
70
0
0
VERTEX
8
Layer 1
10
132.167972
20
18.081192
70
0
0
VERTEX
8
Layer 1
10
133.036135
20
18.081192
70
0
0
VERTEX
8
Layer 1
10
133.036135
20
13.517136
70
0
0
VERTEX
8
Layer 1
10
132.167972
20
13.517136
70
0
0
VERTEX
8
Layer 1
10
130.757207
20
13.783786
70
0
0
VERTEX
8
Layer 1
10
129.352643
20
14.583736
70
0
0
VERTEX
8
Layer 1
10
127.954281
20
15.916986
70
0
0
VERTEX
8
Layer 1
10
126.562119
20
17.783536
70
0
0
VERTEX
8
Layer 1
10
124.391712
20
20.853103
70
0
0
VERTEX
8
Layer 1
10
123.687880
20
21.620494
70
0
0
VERTEX
8
Layer 1
10
123.238295
20
21.876292
70
0
0
VERTEX
8
Layer 1
10
121.973258
20
21.727464
70
0
0
VERTEX
8
Layer 1
10
121.136101
20
21.194170
70
0
0
VERTEX
8
Layer 1
10
120.926812
20
20.843803
70
0
0
VERTEX
8
Layer 1
10
120.857048
20
20.437621
70
0
0
VERTEX
8
Layer 1
10
120.957817
20
19.874867
70
0
0
VERTEX
8
Layer 1
10
121.260124
20
19.377226
70
0
0
VERTEX
8
Layer 1
10
121.763969
20
18.944699
70
0
0
VERTEX
8
Layer 1
10
122.469351
20
18.577285
70
0
0
VERTEX
8
Layer 1
10
123.266201
20
18.061038
70
0
0
VERTEX
8
Layer 1
10
123.846010
20
17.256434
70
0
0
VERTEX
8
Layer 1
10
124.208778
20
16.163475
70
0
0
VERTEX
8
Layer 1
10
124.354505
20
14.782160
70
0
0
VERTEX
8
Layer 1
10
124.211878
20
13.585335
70
0
0
VERTEX
8
Layer 1
10
123.709584
20
12.425717
70
0
0
VERTEX
8
Layer 1
10
122.847622
20
11.303307
70
0
0
VERTEX
8
Layer 1
10
121.625993
20
10.218103
70
0
0
VERTEX
8
Layer 1
10
119.898969
20
9.128249
70
0
0
VERTEX
8
Layer 1
10
117.892892
20
8.239935
70
0
0
VERTEX
8
Layer 1
10
115.607763
20
7.553160
70
0
0
VERTEX
8
Layer 1
10
113.043582
20
7.067925
70
0
0
VERTEX
8
Layer 1
10
110.742950
20
6.844683
70
0
0
VERTEX
8
Layer 1
10
108.256283
20
6.770269
70
0
0
VERTEX
8
Layer 1
10
104.033290
20
7.024514
70
0
0
VERTEX
8
Layer 1
10
102.252006
20
7.342319
70
0
0
VERTEX
8
Layer 1
10
100.690863
20
7.787247
70
0
0
VERTEX
8
Layer 1
10
98.987481
20
8.487594
70
0
0
VERTEX
8
Layer 1
10
97.511216
20
9.311189
70
0
0
VERTEX
8
Layer 1
10
96.262069
20
10.258031
70
0
0
VERTEX
8
Layer 1
10
95.240040
20
11.328121
70
0
0
VERTEX
8
Layer 1
10
94.445128
20
12.521459
70
0
0
VERTEX
8
Layer 1
10
93.877334
20
13.838045
70
0
0
VERTEX
8
Layer 1
10
93.536657
20
15.277878
70
0
0
VERTEX
8
Layer 1
10
93.423099
20
16.840960
70
0
0
VERTEX
8
Layer 1
10
93.520767
20
18.640842
70
0
0
VERTEX
8
Layer 1
10
93.813772
20
20.245389
70
0
0
VERTEX
8
Layer 1
10
94.302114
20
21.654601
70
0
0
VERTEX
8
Layer 1
10
94.985792
20
22.868478
70
0
0
VERTEX
8
Layer 1
10
99.549849
20
22.868478
70
0
0
VERTEX
8
Layer 1
10
98.844466
20
21.654601
70
0
0
VERTEX
8
Layer 1
10
98.340622
20
20.245389
70
0
0
VERTEX
8
Layer 1
10
98.038315
20
18.640842
70
0
0
VERTEX
8
Layer 1
10
97.937546
20
16.840960
70
0
0
VERTEX
8
Layer 1
10
98.194894
20
15.482905
70
0
0
VERTEX
8
Layer 1
10
98.966939
20
14.236471
70
0
0
VERTEX
8
Layer 1
10
100.253681
20
13.101658
70
0
0
VERTEX
8
Layer 1
10
102.055119
20
12.078466
70
0
0
VERTEX
8
Layer 1
10
103.048856
20
11.742047
70
0
0
VERTEX
8
Layer 1
10
104.392958
20
11.501747
70
0
0
VERTEX
8
Layer 1
10
108.132260
20
11.309508
70
0
0
VERTEX
8
Layer 1
10
112.299442
20
11.507945
70
0
0
VERTEX
8
Layer 1
10
115.443432
20
11.991643
70
0
0
VERTEX
8
Layer 1
10
117.483615
20
12.698569
70
0
0
VERTEX
8
Layer 1
10
117.483615
20
12.698569
70
0
0
SEQEND
8
Layer 1
 0 
ENDSEC
 0 
EOF