  0
SECTION
  2
HEADER
  9
$ACADVER
  1
AC1014
  9
$HANDSEED
  5
FFFF
  9
$INSUNITS
 70
     4
  9
$MEASUREMENT
 70
     1
  0
ENDSEC
  0
SECTION
  2
TABLES
  0
TABLE
  2
VPORT
  5
8
330
0
100
AcDbSymbolTable
 70
     4
  0
VPORT
  5
2E
330
8
100
AcDbSymbolTableRecord
100
AcDbViewportTableRecord
  2
*ACTIVE
 70
     0
 10
0.0
 20
0.0
 11
1.0
 21
1.0
 12
210.0
 22
148.5
 13
0.0
 23
0.0
 14
10.0
 24
10.0
 15
10.0
 25
10.0
 16
0.0
 26
0.0
 36
1.0
 17
0.0
 27
0.0
 37
0.0
 40
341.0
 41
1.24
 42
50.0
 43
0.0
 44
0.0
 50
0.0
 51
0.0
 71
     0
 72
   100
 73
     1
 74
     3
 75
     0
 76
     0
 77
     0
 78
     0
  0
ENDTAB
  0
TABLE
  2
LTYPE
  5
5
330
0
100
AcDbSymbolTable
 70
     1
  0
LTYPE
  5
14
330
5
100
AcDbSymbolTableRecord
100
AcDbLinetypeTableRecord
  2
BYBLOCK
 70
     0
  3

 72
    65
 73
     0
 40
0.0
  0
LTYPE
  5
15
330
5
100
AcDbSymbolTableRecord
100
AcDbLinetypeTableRecord
  2
BYLAYER
 70
     0
  3

 72
    65
 73
     0
 40
0.0
  0
LTYPE
  5
16
330
5
100
AcDbSymbolTableRecord
100
AcDbLinetypeTableRecord
  2
CONTINUOUS
 70
     0
  3
Solid line
 72
    65
 73
     0
 40
0.0
  0
ENDTAB
  0
TABLE
  2
LAYER
  5
2
100
AcDbSymbolTable
 70
2
  0
LAYER
  5
50
100
AcDbSymbolTableRecord
100
AcDbLayerTableRecord
  2
0
 70
0
  6
CONTINUOUS
  0
LAYER
  5
51
100
AcDbSymbolTableRecord
100
AcDbLayerTableRecord
  2
Layer_1
 70
0
  6
CONTINUOUS
  0
ENDTAB
  0
TABLE
  2
STYLE
  5
3
330
0
100
AcDbSymbolTable
 70
     1
  0
STYLE
  5
11
330
3
100
AcDbSymbolTableRecord
100
AcDbTextStyleTableRecord
  2
STANDARD
 70
     0
 40
0.0
 41
1.0
 50
0.0
 71
     0
 42
2.5
  3
txt
  4

  0
ENDTAB
  0
TABLE
  2
VIEW
  5
6
330
0
100
AcDbSymbolTable
 70
     0
  0
ENDTAB
  0
TABLE
  2
UCS
  5
7
330
0
100
AcDbSymbolTable
 70
     0
  0
ENDTAB
  0
TABLE
  2
APPID
  5
9
330
0
100
AcDbSymbolTable
 70
     2
  0
APPID
  5
12
330
9
100
AcDbSymbolTableRecord
100
AcDbRegAppTableRecord
  2
ACAD
 70
     0
  0
ENDTAB
  0
TABLE
  2
DIMSTYLE
  5
A
330
0
100
AcDbSymbolTable
 70
     1
  0
DIMSTYLE
105
27
330
A
100
AcDbSymbolTableRecord
100
AcDbDimStyleTableRecord
  2
ISO-25
 70
     0
  3

  4

  5

  6

  7

 40
1.0
 41
2.5
 42
0.625
 43
3.75
 44
1.25
 45
0.0
 46
0.0
 47
0.0
 48
0.0
140
2.5
141
2.5
142
0.0
143
0.03937007874016
144
1.0
145
0.0
146
1.0
147
0.625
 71
     0
 72
     0
 73
     0
 74
     0
 75
     0
 76
     0
 77
     1
 78
     8
170
     0
171
     3
172
     1
173
     0
174
     0
175
     0
176
     0
177
     0
178
     0
270
     2
271
     2
272
     2
273
     2
274
     3
340
11
275
     0
280
     0
281
     0
282
     0
283
     0
284
     8
285
     0
286
     0
287
     3
288
     0
  0
ENDTAB
  0
TABLE
  2
BLOCK_RECORD
  5
1
330
0
100
AcDbSymbolTable
 70
     1
  0
BLOCK_RECORD
  5
1F
330
1
100
AcDbSymbolTableRecord
100
AcDbBlockTableRecord
  2
*MODEL_SPACE
  0
BLOCK_RECORD
  5
1B
330
1
100
AcDbSymbolTableRecord
100
AcDbBlockTableRecord
  2
*PAPER_SPACE
  0
ENDTAB
  0
ENDSEC
  0
SECTION
  2
BLOCKS
  0
BLOCK
  5
20
330
1F
100
AcDbEntity
  8
0
100
AcDbBlockBegin
  2
*MODEL_SPACE
 70
     0
 10
0.0
 20
0.0
 30
0.0
  3
*MODEL_SPACE
  1

  0
ENDBLK
  5
21
330
1F
100
AcDbEntity
  8
0
100
AcDbBlockEnd
  0
BLOCK
  5
1C
330
1B
100
AcDbEntity
 67
     1
  8
0
100
AcDbBlockBegin
  2
*PAPER_SPACE
  1

  0
ENDBLK
  5
1D
330
1B
100
AcDbEntity
 67
     1
  8
0
100
AcDbBlockEnd
  0
ENDSEC
  0
SECTION
  2
ENTITIES
  0
SPLINE
  5
100
100
AcDbEntity
  8
Layer_1
 62
7
100
AcDbSpline
 70
8
 71
3
 72
8
 73
4
 74
0
 40
0
 40
0
 40
0
 40
0
 40
1
 40
1
 40
1
 40
1
 10
115.371252
 20
23.110941
 30
0.0
 10
115.370760
 20
23.939019
 30
0.0
 10
114.699332
 20
24.610048
 30
0.0
 10
113.871254
 20
24.610048
 30
0.0
  0
SPLINE
  5
101
100
AcDbEntity
  8
Layer_1
 62
7
100
AcDbSpline
 70
8
 71
3
 72
8
 73
4
 74
0
 40
0
 40
0
 40
0
 40
0
 40
1
 40
1
 40
1
 40
1
 10
113.871254
 20
24.610048
 30
0.0
 10
113.043176
 20
24.610048
 30
0.0
 10
112.371748
 20
23.939019
 30
0.0
 10
112.371256
 20
23.110941
 30
0.0
  0
SPLINE
  5
102
100
AcDbEntity
  8
Layer_1
 62
7
100
AcDbSpline
 70
8
 71
3
 72
8
 73
4
 74
0
 40
0
 40
0
 40
0
 40
0
 40
1
 40
1
 40
1
 40
1
 10
112.371256
 20
23.110941
 30
0.0
 10
112.371748
 20
22.282863
 30
0.0
 10
113.043176
 20
21.611834
 30
0.0
 10
113.871254
 20
21.611834
 30
0.0
  0
SPLINE
  5
103
100
AcDbEntity
  8
Layer_1
 62
7
100
AcDbSpline
 70
8
 71
3
 72
8
 73
4
 74
0
 40
0
 40
0
 40
0
 40
0
 40
1
 40
1
 40
1
 40
1
 10
113.871254
 20
21.611834
 30
0.0
 10
114.699332
 20
21.611834
 30
0.0
 10
115.370760
 20
22.282863
 30
0.0
 10
115.371252
 20
23.110941
 30
0.0
  0
SPLINE
  5
104
100
AcDbEntity
  8
Layer_1
 62
7
100
AcDbSpline
 70
8
 71
3
 72
8
 73
4
 74
0
 40
0
 40
0
 40
0
 40
0
 40
1
 40
1
 40
1
 40
1
 10
43.371344
 20
23.110941
 30
0.0
 10
43.370852
 20
23.939019
 30
0.0
 10
42.699424
 20
24.610048
 30
0.0
 10
41.871346
 20
24.610048
 30
0.0
  0
SPLINE
  5
105
100
AcDbEntity
  8
Layer_1
 62
7
100
AcDbSpline
 70
8
 71
3
 72
8
 73
4
 74
0
 40
0
 40
0
 40
0
 40
0
 40
1
 40
1
 40
1
 40
1
 10
41.871346
 20
24.610048
 30
0.0
 10
41.043268
 20
24.610048
 30
0.0
 10
40.371840
 20
23.939019
 30
0.0
 10
40.371348
 20
23.110941
 30
0.0
  0
SPLINE
  5
106
100
AcDbEntity
  8
Layer_1
 62
7
100
AcDbSpline
 70
8
 71
3
 72
8
 73
4
 74
0
 40
0
 40
0
 40
0
 40
0
 40
1
 40
1
 40
1
 40
1
 10
40.371348
 20
23.110941
 30
0.0
 10
40.371840
 20
22.282863
 30
0.0
 10
41.043268
 20
21.611834
 30
0.0
 10
41.871346
 20
21.611834
 30
0.0
  0
SPLINE
  5
107
100
AcDbEntity
  8
Layer_1
 62
7
100
AcDbSpline
 70
8
 71
3
 72
8
 73
4
 74
0
 40
0
 40
0
 40
0
 40
0
 40
1
 40
1
 40
1
 40
1
 10
41.871346
 20
21.611834
 30
0.0
 10
42.699424
 20
21.611834
 30
0.0
 10
43.370852
 20
22.282863
 30
0.0
 10
43.371344
 20
23.110941
 30
0.0
  0
LWPOLYLINE
  5
108
100
AcDbEntity
  8
Layer_1
 62
7
100
AcDbPolyline
 90
1
 70
1
 10
115.371252
 20
23.110941
 30
0.0
  0
SPLINE
  5
109
100
AcDbEntity
  8
Layer_1
 62
7
100
AcDbSpline
 70
8
 71
3
 72
8
 73
4
 74
0
 40
0
 40
0
 40
0
 40
0
 40
1
 40
1
 40
1
 40
1
 10
19.371374
 20
174.920252
 30
0.0
 10
19.370772
 20
175.748252
 30
0.0
 10
18.699377
 20
176.419159
 30
0.0
 10
17.871377
 20
176.419159
 30
0.0
  0
SPLINE
  5
10a
100
AcDbEntity
  8
Layer_1
 62
7
100
AcDbSpline
 70
8
 71
3
 72
8
 73
4
 74
0
 40
0
 40
0
 40
0
 40
0
 40
1
 40
1
 40
1
 40
1
 10
17.871377
 20
176.419159
 30
0.0
 10
17.043377
 20
176.419159
 30
0.0
 10
16.371981
 20
175.748252
 30
0.0
 10
16.371379
 20
174.920252
 30
0.0
  0
SPLINE
  5
10b
100
AcDbEntity
  8
Layer_1
 62
7
100
AcDbSpline
 70
8
 71
3
 72
8
 73
4
 74
0
 40
0
 40
0
 40
0
 40
0
 40
1
 40
1
 40
1
 40
1
 10
16.371379
 20
174.920252
 30
0.0
 10
16.371981
 20
174.092252
 30
0.0
 10
17.043377
 20
173.421345
 30
0.0
 10
17.871377
 20
173.421345
 30
0.0
  0
SPLINE
  5
10c
100
AcDbEntity
  8
Layer_1
 62
7
100
AcDbSpline
 70
8
 71
3
 72
8
 73
4
 74
0
 40
0
 40
0
 40
0
 40
0
 40
1
 40
1
 40
1
 40
1
 10
17.871377
 20
173.421345
 30
0.0
 10
18.699377
 20
173.421345
 30
0.0
 10
19.370772
 20
174.092252
 30
0.0
 10
19.371374
 20
174.920252
 30
0.0
  0
LWPOLYLINE
  5
10d
100
AcDbEntity
  8
Layer_1
 62
7
100
AcDbPolyline
 90
1
 70
1
 10
43.371344
 20
23.110941
 30
0.0
  0
SPLINE
  5
10e
100
AcDbEntity
  8
Layer_1
 62
7
100
AcDbSpline
 70
8
 71
3
 72
8
 73
4
 74
0
 40
0
 40
0
 40
0
 40
0
 40
1
 40
1
 40
1
 40
1
 10
19.371374
 20
116.408304
 30
0.0
 10
19.370772
 20
117.236304
 30
0.0
 10
18.699377
 20
117.907211
 30
0.0
 10
17.871377
 20
117.907211
 30
0.0
  0
SPLINE
  5
10f
100
AcDbEntity
  8
Layer_1
 62
7
100
AcDbSpline
 70
8
 71
3
 72
8
 73
4
 74
0
 40
0
 40
0
 40
0
 40
0
 40
1
 40
1
 40
1
 40
1
 10
17.871377
 20
117.907211
 30
0.0
 10
17.043377
 20
117.907211
 30
0.0
 10
16.371981
 20
117.236304
 30
0.0
 10
16.371379
 20
116.408304
 30
0.0
  0
SPLINE
  5
110
100
AcDbEntity
  8
Layer_1
 62
7
100
AcDbSpline
 70
8
 71
3
 72
8
 73
4
 74
0
 40
0
 40
0
 40
0
 40
0
 40
1
 40
1
 40
1
 40
1
 10
16.371379
 20
116.408304
 30
0.0
 10
16.371981
 20
115.580304
 30
0.0
 10
17.043377
 20
114.909397
 30
0.0
 10
17.871377
 20
114.909397
 30
0.0
  0
SPLINE
  5
111
100
AcDbEntity
  8
Layer_1
 62
7
100
AcDbSpline
 70
8
 71
3
 72
8
 73
4
 74
0
 40
0
 40
0
 40
0
 40
0
 40
1
 40
1
 40
1
 40
1
 10
17.871377
 20
114.909397
 30
0.0
 10
18.699377
 20
114.909397
 30
0.0
 10
19.370772
 20
115.580304
 30
0.0
 10
19.371374
 20
116.408304
 30
0.0
  0
LWPOLYLINE
  5
112
100
AcDbEntity
  8
Layer_1
 62
7
100
AcDbPolyline
 90
1
 70
1
 10
19.371374
 20
174.920252
 30
0.0
  0
SPLINE
  5
113
100
AcDbEntity
  8
Layer_1
 62
7
100
AcDbSpline
 70
8
 71
3
 72
8
 73
4
 74
0
 40
0
 40
0
 40
0
 40
0
 40
1
 40
1
 40
1
 40
1
 10
139.371221
 20
116.408304
 30
0.0
 10
139.370619
 20
117.236304
 30
0.0
 10
138.699223
 20
117.907211
 30
0.0
 10
137.871223
 20
117.907211
 30
0.0
  0
SPLINE
  5
114
100
AcDbEntity
  8
Layer_1
 62
7
100
AcDbSpline
 70
8
 71
3
 72
8
 73
4
 74
0
 40
0
 40
0
 40
0
 40
0
 40
1
 40
1
 40
1
 40
1
 10
137.871223
 20
117.907211
 30
0.0
 10
137.043223
 20
117.907211
 30
0.0
 10
136.371828
 20
117.236304
 30
0.0
 10
136.371226
 20
116.408304
 30
0.0
  0
SPLINE
  5
115
100
AcDbEntity
  8
Layer_1
 62
7
100
AcDbSpline
 70
8
 71
3
 72
8
 73
4
 74
0
 40
0
 40
0
 40
0
 40
0
 40
1
 40
1
 40
1
 40
1
 10
136.371226
 20
116.408304
 30
0.0
 10
136.371828
 20
115.580304
 30
0.0
 10
137.043223
 20
114.909397
 30
0.0
 10
137.871223
 20
114.909397
 30
0.0
  0
SPLINE
  5
116
100
AcDbEntity
  8
Layer_1
 62
7
100
AcDbSpline
 70
8
 71
3
 72
8
 73
4
 74
0
 40
0
 40
0
 40
0
 40
0
 40
1
 40
1
 40
1
 40
1
 10
137.871223
 20
114.909397
 30
0.0
 10
138.699223
 20
114.909397
 30
0.0
 10
139.370619
 20
115.580304
 30
0.0
 10
139.371221
 20
116.408304
 30
0.0
  0
LWPOLYLINE
  5
117
100
AcDbEntity
  8
Layer_1
 62
7
100
AcDbPolyline
 90
1
 70
1
 10
19.371374
 20
116.408304
 30
0.0
  0
SPLINE
  5
118
100
AcDbEntity
  8
Layer_1
 62
7
100
AcDbSpline
 70
8
 71
3
 72
8
 73
4
 74
0
 40
0
 40
0
 40
0
 40
0
 40
1
 40
1
 40
1
 40
1
 10
139.371221
 20
174.920252
 30
0.0
 10
139.370619
 20
175.748252
 30
0.0
 10
138.699223
 20
176.419159
 30
0.0
 10
137.871223
 20
176.419159
 30
0.0
  0
SPLINE
  5
119
100
AcDbEntity
  8
Layer_1
 62
7
100
AcDbSpline
 70
8
 71
3
 72
8
 73
4
 74
0
 40
0
 40
0
 40
0
 40
0
 40
1
 40
1
 40
1
 40
1
 10
137.871223
 20
176.419159
 30
0.0
 10
137.043223
 20
176.419159
 30
0.0
 10
136.371828
 20
175.748252
 30
0.0
 10
136.371226
 20
174.920252
 30
0.0
  0
SPLINE
  5
11a
100
AcDbEntity
  8
Layer_1
 62
7
100
AcDbSpline
 70
8
 71
3
 72
8
 73
4
 74
0
 40
0
 40
0
 40
0
 40
0
 40
1
 40
1
 40
1
 40
1
 10
136.371226
 20
174.920252
 30
0.0
 10
136.371828
 20
174.092252
 30
0.0
 10
137.043223
 20
173.421345
 30
0.0
 10
137.871223
 20
173.421345
 30
0.0
  0
SPLINE
  5
11b
100
AcDbEntity
  8
Layer_1
 62
7
100
AcDbSpline
 70
8
 71
3
 72
8
 73
4
 74
0
 40
0
 40
0
 40
0
 40
0
 40
1
 40
1
 40
1
 40
1
 10
137.871223
 20
173.421345
 30
0.0
 10
138.699223
 20
173.421345
 30
0.0
 10
139.370619
 20
174.092252
 30
0.0
 10
139.371221
 20
174.920252
 30
0.0
  0
LWPOLYLINE
  5
11c
100
AcDbEntity
  8
Layer_1
 62
7
100
AcDbPolyline
 90
1
 70
1
 10
139.371221
 20
116.408304
 30
0.0
  0
SPLINE
  5
11d
100
AcDbEntity
  8
Layer_1
 62
7
100
AcDbSpline
 70
8
 71
3
 72
8
 73
4
 74
0
 40
0
 40
0
 40
0
 40
0
 40
1
 40
1
 40
1
 40
1
 10
104.362273
 20
244.245761
 30
0.0
 10
104.361671
 20
245.073761
 30
0.0
 10
103.690276
 20
245.744668
 30
0.0
 10
102.862276
 20
245.744668
 30
0.0
  0
SPLINE
  5
11e
100
AcDbEntity
  8
Layer_1
 62
7
100
AcDbSpline
 70
8
 71
3
 72
8
 73
4
 74
0
 40
0
 40
0
 40
0
 40
0
 40
1
 40
1
 40
1
 40
1
 10
102.862276
 20
245.744668
 30
0.0
 10
102.034276
 20
245.744668
 30
0.0
 10
101.362880
 20
245.073761
 30
0.0
 10
101.362278
 20
244.245761
 30
0.0
  0
SPLINE
  5
11f
100
AcDbEntity
  8
Layer_1
 62
7
100
AcDbSpline
 70
8
 71
3
 72
8
 73
4
 74
0
 40
0
 40
0
 40
0
 40
0
 40
1
 40
1
 40
1
 40
1
 10
101.362278
 20
244.245761
 30
0.0
 10
101.362880
 20
243.417761
 30
0.0
 10
102.034276
 20
242.746854
 30
0.0
 10
102.862276
 20
242.746854
 30
0.0
  0
SPLINE
  5
120
100
AcDbEntity
  8
Layer_1
 62
7
100
AcDbSpline
 70
8
 71
3
 72
8
 73
4
 74
0
 40
0
 40
0
 40
0
 40
0
 40
1
 40
1
 40
1
 40
1
 10
102.862276
 20
242.746854
 30
0.0
 10
103.690276
 20
242.746854
 30
0.0
 10
104.361671
 20
243.417761
 30
0.0
 10
104.362273
 20
244.245761
 30
0.0
  0
LWPOLYLINE
  5
121
100
AcDbEntity
  8
Layer_1
 62
7
100
AcDbPolyline
 90
1
 70
1
 10
139.371221
 20
174.920252
 30
0.0
  0
SPLINE
  5
122
100
AcDbEntity
  8
Layer_1
 62
7
100
AcDbSpline
 70
8
 71
3
 72
8
 73
4
 74
0
 40
0
 40
0
 40
0
 40
0
 40
1
 40
1
 40
1
 40
1
 10
54.362337
 20
244.245761
 30
0.0
 10
54.362337
 20
245.074187
 30
0.0
 10
53.690765
 20
245.745759
 30
0.0
 10
52.862339
 20
245.745759
 30
0.0
  0
SPLINE
  5
123
100
AcDbEntity
  8
Layer_1
 62
7
100
AcDbSpline
 70
8
 71
3
 72
8
 73
4
 74
0
 40
0
 40
0
 40
0
 40
0
 40
1
 40
1
 40
1
 40
1
 10
52.862339
 20
245.745759
 30
0.0
 10
52.033912
 20
245.745759
 30
0.0
 10
51.362340
 20
245.074187
 30
0.0
 10
51.362340
 20
244.245761
 30
0.0
  0
SPLINE
  5
124
100
AcDbEntity
  8
Layer_1
 62
7
100
AcDbSpline
 70
8
 71
3
 72
8
 73
4
 74
0
 40
0
 40
0
 40
0
 40
0
 40
1
 40
1
 40
1
 40
1
 10
51.362340
 20
244.245761
 30
0.0
 10
51.362340
 20
243.417335
 30
0.0
 10
52.033912
 20
242.745762
 30
0.0
 10
52.862339
 20
242.745762
 30
0.0
  0
SPLINE
  5
125
100
AcDbEntity
  8
Layer_1
 62
7
100
AcDbSpline
 70
8
 71
3
 72
8
 73
4
 74
0
 40
0
 40
0
 40
0
 40
0
 40
1
 40
1
 40
1
 40
1
 10
52.862339
 20
242.745762
 30
0.0
 10
53.690765
 20
242.745762
 30
0.0
 10
54.362337
 20
243.417335
 30
0.0
 10
54.362337
 20
244.245761
 30
0.0
  0
LWPOLYLINE
  5
126
100
AcDbEntity
  8
Layer_1
 62
7
100
AcDbPolyline
 90
1
 70
1
 10
104.362273
 20
244.245761
 30
0.0
  0
SPLINE
  5
127
100
AcDbEntity
  8
Layer_1
 62
7
100
AcDbSpline
 70
8
 71
3
 72
8
 73
4
 74
0
 40
0
 40
0
 40
0
 40
0
 40
1
 40
1
 40
1
 40
1
 10
133.618843
 20
244.245761
 30
0.0
 10
133.618843
 20
244.960291
 30
0.0
 10
133.237645
 20
245.620544
 30
0.0
 10
132.618844
 20
245.977809
 30
0.0
  0
SPLINE
  5
128
100
AcDbEntity
  8
Layer_1
 62
7
100
AcDbSpline
 70
8
 71
3
 72
8
 73
4
 74
0
 40
0
 40
0
 40
0
 40
0
 40
1
 40
1
 40
1
 40
1
 10
132.618844
 20
245.977809
 30
0.0
 10
132.000043
 20
246.335074
 30
0.0
 10
131.237648
 20
246.335074
 30
0.0
 10
130.618847
 20
245.977809
 30
0.0
  0
SPLINE
  5
129
100
AcDbEntity
  8
Layer_1
 62
7
100
AcDbSpline
 70
8
 71
3
 72
8
 73
4
 74
0
 40
0
 40
0
 40
0
 40
0
 40
1
 40
1
 40
1
 40
1
 10
130.618847
 20
245.977809
 30
0.0
 10
130.000045
 20
245.620544
 30
0.0
 10
129.618848
 20
244.960291
 30
0.0
 10
129.618848
 20
244.245761
 30
0.0
  0
SPLINE
  5
12a
100
AcDbEntity
  8
Layer_1
 62
7
100
AcDbSpline
 70
8
 71
3
 72
8
 73
4
 74
0
 40
0
 40
0
 40
0
 40
0
 40
1
 40
1
 40
1
 40
1
 10
129.618848
 20
244.245761
 30
0.0
 10
129.618848
 20
243.531230
 30
0.0
 10
130.000045
 20
242.870977
 30
0.0
 10
130.618847
 20
242.513712
 30
0.0
  0
SPLINE
  5
12b
100
AcDbEntity
  8
Layer_1
 62
7
100
AcDbSpline
 70
8
 71
3
 72
8
 73
4
 74
0
 40
0
 40
0
 40
0
 40
0
 40
1
 40
1
 40
1
 40
1
 10
130.618847
 20
242.513712
 30
0.0
 10
131.237648
 20
242.156447
 30
0.0
 10
132.000043
 20
242.156447
 30
0.0
 10
132.618844
 20
242.513712
 30
0.0
  0
SPLINE
  5
12c
100
AcDbEntity
  8
Layer_1
 62
7
100
AcDbSpline
 70
8
 71
3
 72
8
 73
4
 74
0
 40
0
 40
0
 40
0
 40
0
 40
1
 40
1
 40
1
 40
1
 10
132.618844
 20
242.513712
 30
0.0
 10
133.237645
 20
242.870977
 30
0.0
 10
133.618843
 20
243.531230
 30
0.0
 10
133.618843
 20
244.245761
 30
0.0
  0
LWPOLYLINE
  5
12d
100
AcDbEntity
  8
Layer_1
 62
7
100
AcDbPolyline
 90
1
 70
1
 10
54.362337
 20
244.245761
 30
0.0
  0
SPLINE
  5
12e
100
AcDbEntity
  8
Layer_1
 62
7
100
AcDbSpline
 70
8
 71
3
 72
8
 73
4
 74
0
 40
0
 40
0
 40
0
 40
0
 40
1
 40
1
 40
1
 40
1
 10
26.123752
 20
244.245761
 30
0.0
 10
26.123752
 20
244.960291
 30
0.0
 10
25.742555
 20
245.620544
 30
0.0
 10
25.123753
 20
245.977809
 30
0.0
  0
SPLINE
  5
12f
100
AcDbEntity
  8
Layer_1
 62
7
100
AcDbSpline
 70
8
 71
3
 72
8
 73
4
 74
0
 40
0
 40
0
 40
0
 40
0
 40
1
 40
1
 40
1
 40
1
 10
25.123753
 20
245.977809
 30
0.0
 10
24.504952
 20
246.335074
 30
0.0
 10
23.742557
 20
246.335074
 30
0.0
 10
23.123756
 20
245.977809
 30
0.0
  0
SPLINE
  5
130
100
AcDbEntity
  8
Layer_1
 62
7
100
AcDbSpline
 70
8
 71
3
 72
8
 73
4
 74
0
 40
0
 40
0
 40
0
 40
0
 40
1
 40
1
 40
1
 40
1
 10
23.123756
 20
245.977809
 30
0.0
 10
22.504955
 20
245.620544
 30
0.0
 10
22.123757
 20
244.960291
 30
0.0
 10
22.123757
 20
244.245761
 30
0.0
  0
SPLINE
  5
131
100
AcDbEntity
  8
Layer_1
 62
7
100
AcDbSpline
 70
8
 71
3
 72
8
 73
4
 74
0
 40
0
 40
0
 40
0
 40
0
 40
1
 40
1
 40
1
 40
1
 10
22.123757
 20
244.245761
 30
0.0
 10
22.123757
 20
243.531230
 30
0.0
 10
22.504955
 20
242.870977
 30
0.0
 10
23.123756
 20
242.513712
 30
0.0
  0
SPLINE
  5
132
100
AcDbEntity
  8
Layer_1
 62
7
100
AcDbSpline
 70
8
 71
3
 72
8
 73
4
 74
0
 40
0
 40
0
 40
0
 40
0
 40
1
 40
1
 40
1
 40
1
 10
23.123756
 20
242.513712
 30
0.0
 10
23.742557
 20
242.156447
 30
0.0
 10
24.504952
 20
242.156447
 30
0.0
 10
25.123753
 20
242.513712
 30
0.0
  0
SPLINE
  5
133
100
AcDbEntity
  8
Layer_1
 62
7
100
AcDbSpline
 70
8
 71
3
 72
8
 73
4
 74
0
 40
0
 40
0
 40
0
 40
0
 40
1
 40
1
 40
1
 40
1
 10
25.123753
 20
242.513712
 30
0.0
 10
25.742555
 20
242.870977
 30
0.0
 10
26.123752
 20
243.531230
 30
0.0
 10
26.123752
 20
244.245761
 30
0.0
  0
LWPOLYLINE
  5
134
100
AcDbEntity
  8
Layer_1
 62
7
100
AcDbPolyline
 90
1
 70
1
 10
133.618843
 20
244.245761
 30
0.0
  0
SPLINE
  5
135
100
AcDbEntity
  8
Layer_1
 62
7
100
AcDbSpline
 70
8
 71
3
 72
8
 73
4
 74
0
 40
0
 40
0
 40
0
 40
0
 40
1
 40
1
 40
1
 40
1
 10
20.371374
 20
57.710565
 30
0.0
 10
20.371374
 20
58.246463
 30
0.0
 10
20.085475
 20
58.741654
 30
0.0
 10
19.621374
 20
59.009603
 30
0.0
  0
SPLINE
  5
136
100
AcDbEntity
  8
Layer_1
 62
7
100
AcDbSpline
 70
8
 71
3
 72
8
 73
4
 74
0
 40
0
 40
0
 40
0
 40
0
 40
1
 40
1
 40
1
 40
1
 10
19.621374
 20
59.009603
 30
0.0
 10
19.157273
 20
59.277552
 30
0.0
 10
18.585476
 20
59.277552
 30
0.0
 10
18.121375
 20
59.009603
 30
0.0
  0
SPLINE
  5
137
100
AcDbEntity
  8
Layer_1
 62
7
100
AcDbSpline
 70
8
 71
3
 72
8
 73
4
 74
0
 40
0
 40
0
 40
0
 40
0
 40
1
 40
1
 40
1
 40
1
 10
18.121375
 20
59.009603
 30
0.0
 10
17.657274
 20
58.741654
 30
0.0
 10
17.371376
 20
58.246463
 30
0.0
 10
17.371376
 20
57.710565
 30
0.0
  0
SPLINE
  5
138
100
AcDbEntity
  8
Layer_1
 62
7
100
AcDbSpline
 70
8
 71
3
 72
8
 73
4
 74
0
 40
0
 40
0
 40
0
 40
0
 40
1
 40
1
 40
1
 40
1
 10
17.371376
 20
57.710565
 30
0.0
 10
17.371376
 20
57.174667
 30
0.0
 10
17.657274
 20
56.679477
 30
0.0
 10
18.121375
 20
56.411528
 30
0.0
  0
SPLINE
  5
139
100
AcDbEntity
  8
Layer_1
 62
7
100
AcDbSpline
 70
8
 71
3
 72
8
 73
4
 74
0
 40
0
 40
0
 40
0
 40
0
 40
1
 40
1
 40
1
 40
1
 10
18.121375
 20
56.411528
 30
0.0
 10
18.585476
 20
56.143579
 30
0.0
 10
19.157273
 20
56.143579
 30
0.0
 10
19.621374
 20
56.411528
 30
0.0
  0
SPLINE
  5
13a
100
AcDbEntity
  8
Layer_1
 62
7
100
AcDbSpline
 70
8
 71
3
 72
8
 73
4
 74
0
 40
0
 40
0
 40
0
 40
0
 40
1
 40
1
 40
1
 40
1
 10
19.621374
 20
56.411528
 30
0.0
 10
20.085475
 20
56.679477
 30
0.0
 10
20.371374
 20
57.174667
 30
0.0
 10
20.371374
 20
57.710565
 30
0.0
  0
LWPOLYLINE
  5
13b
100
AcDbEntity
  8
Layer_1
 62
7
100
AcDbPolyline
 90
1
 70
1
 10
26.123752
 20
244.245761
 30
0.0
  0
SPLINE
  5
13c
100
AcDbEntity
  8
Layer_1
 62
7
100
AcDbSpline
 70
8
 71
3
 72
8
 73
4
 74
0
 40
0
 40
0
 40
0
 40
0
 40
1
 40
1
 40
1
 40
1
 10
133.371230
 20
42.110566
 30
0.0
 10
133.370628
 20
42.938566
 30
0.0
 10
132.699232
 20
43.609473
 30
0.0
 10
131.871232
 20
43.609473
 30
0.0
  0
SPLINE
  5
13d
100
AcDbEntity
  8
Layer_1
 62
7
100
AcDbSpline
 70
8
 71
3
 72
8
 73
4
 74
0
 40
0
 40
0
 40
0
 40
0
 40
1
 40
1
 40
1
 40
1
 10
131.871232
 20
43.609473
 30
0.0
 10
131.043232
 20
43.609473
 30
0.0
 10
130.371837
 20
42.938566
 30
0.0
 10
130.371235
 20
42.110566
 30
0.0
  0
SPLINE
  5
13e
100
AcDbEntity
  8
Layer_1
 62
7
100
AcDbSpline
 70
8
 71
3
 72
8
 73
4
 74
0
 40
0
 40
0
 40
0
 40
0
 40
1
 40
1
 40
1
 40
1
 10
130.371235
 20
42.110566
 30
0.0
 10
130.371837
 20
41.282567
 30
0.0
 10
131.043232
 20
40.611659
 30
0.0
 10
131.871232
 20
40.611659
 30
0.0
  0
SPLINE
  5
13f
100
AcDbEntity
  8
Layer_1
 62
7
100
AcDbSpline
 70
8
 71
3
 72
8
 73
4
 74
0
 40
0
 40
0
 40
0
 40
0
 40
1
 40
1
 40
1
 40
1
 10
131.871232
 20
40.611659
 30
0.0
 10
132.699232
 20
40.611659
 30
0.0
 10
133.370628
 20
41.282567
 30
0.0
 10
133.371230
 20
42.110566
 30
0.0
  0
LWPOLYLINE
  5
140
100
AcDbEntity
  8
Layer_1
 62
7
100
AcDbPolyline
 90
1
 70
1
 10
20.371374
 20
57.710565
 30
0.0
  0
SPLINE
  5
141
100
AcDbEntity
  8
Layer_1
 62
7
100
AcDbSpline
 70
8
 71
3
 72
8
 73
4
 74
0
 40
0
 40
0
 40
0
 40
0
 40
1
 40
1
 40
1
 40
1
 10
133.371230
 20
57.910564
 30
0.0
 10
133.370628
 20
58.738563
 30
0.0
 10
132.699232
 20
59.409471
 30
0.0
 10
131.871232
 20
59.409471
 30
0.0
  0
SPLINE
  5
142
100
AcDbEntity
  8
Layer_1
 62
7
100
AcDbSpline
 70
8
 71
3
 72
8
 73
4
 74
0
 40
0
 40
0
 40
0
 40
0
 40
1
 40
1
 40
1
 40
1
 10
131.871232
 20
59.409471
 30
0.0
 10
131.043232
 20
59.409471
 30
0.0
 10
130.371837
 20
58.738563
 30
0.0
 10
130.371235
 20
57.910564
 30
0.0
  0
SPLINE
  5
143
100
AcDbEntity
  8
Layer_1
 62
7
100
AcDbSpline
 70
8
 71
3
 72
8
 73
4
 74
0
 40
0
 40
0
 40
0
 40
0
 40
1
 40
1
 40
1
 40
1
 10
130.371235
 20
57.910564
 30
0.0
 10
130.371837
 20
57.082564
 30
0.0
 10
131.043232
 20
56.411657
 30
0.0
 10
131.871232
 20
56.411657
 30
0.0
  0
SPLINE
  5
144
100
AcDbEntity
  8
Layer_1
 62
7
100
AcDbSpline
 70
8
 71
3
 72
8
 73
4
 74
0
 40
0
 40
0
 40
0
 40
0
 40
1
 40
1
 40
1
 40
1
 10
131.871232
 20
56.411657
 30
0.0
 10
132.699232
 20
56.411657
 30
0.0
 10
133.370628
 20
57.082564
 30
0.0
 10
133.371230
 20
57.910564
 30
0.0
  0
LWPOLYLINE
  5
145
100
AcDbEntity
  8
Layer_1
 62
7
100
AcDbPolyline
 90
1
 70
1
 10
133.371230
 20
42.110566
 30
0.0
  0
SPLINE
  5
146
100
AcDbEntity
  8
Layer_1
 62
7
100
AcDbSpline
 70
8
 71
3
 72
8
 73
4
 74
0
 40
0
 40
0
 40
0
 40
0
 40
1
 40
1
 40
1
 40
1
 10
119.471249
 20
57.910564
 30
0.0
 10
119.471249
 20
58.446462
 30
0.0
 10
119.185350
 20
58.941652
 30
0.0
 10
118.721249
 20
59.209601
 30
0.0
  0
SPLINE
  5
147
100
AcDbEntity
  8
Layer_1
 62
7
100
AcDbSpline
 70
8
 71
3
 72
8
 73
4
 74
0
 40
0
 40
0
 40
0
 40
0
 40
1
 40
1
 40
1
 40
1
 10
118.721249
 20
59.209601
 30
0.0
 10
118.257148
 20
59.477550
 30
0.0
 10
117.685351
 20
59.477550
 30
0.0
 10
117.221250
 20
59.209601
 30
0.0
  0
SPLINE
  5
148
100
AcDbEntity
  8
Layer_1
 62
7
100
AcDbSpline
 70
8
 71
3
 72
8
 73
4
 74
0
 40
0
 40
0
 40
0
 40
0
 40
1
 40
1
 40
1
 40
1
 10
117.221250
 20
59.209601
 30
0.0
 10
116.757149
 20
58.941652
 30
0.0
 10
116.471250
 20
58.446462
 30
0.0
 10
116.471250
 20
57.910564
 30
0.0
  0
SPLINE
  5
149
100
AcDbEntity
  8
Layer_1
 62
7
100
AcDbSpline
 70
8
 71
3
 72
8
 73
4
 74
0
 40
0
 40
0
 40
0
 40
0
 40
1
 40
1
 40
1
 40
1
 10
116.471250
 20
57.910564
 30
0.0
 10
116.471250
 20
57.374666
 30
0.0
 10
116.757149
 20
56.879475
 30
0.0
 10
117.221250
 20
56.611526
 30
0.0
  0
SPLINE
  5
14a
100
AcDbEntity
  8
Layer_1
 62
7
100
AcDbSpline
 70
8
 71
3
 72
8
 73
4
 74
0
 40
0
 40
0
 40
0
 40
0
 40
1
 40
1
 40
1
 40
1
 10
117.221250
 20
56.611526
 30
0.0
 10
117.685351
 20
56.343577
 30
0.0
 10
118.257148
 20
56.343577
 30
0.0
 10
118.721249
 20
56.611526
 30
0.0
  0
SPLINE
  5
14b
100
AcDbEntity
  8
Layer_1
 62
7
100
AcDbSpline
 70
8
 71
3
 72
8
 73
4
 74
0
 40
0
 40
0
 40
0
 40
0
 40
1
 40
1
 40
1
 40
1
 10
118.721249
 20
56.611526
 30
0.0
 10
119.185350
 20
56.879475
 30
0.0
 10
119.471249
 20
57.374666
 30
0.0
 10
119.471249
 20
57.910564
 30
0.0
  0
LWPOLYLINE
  5
14c
100
AcDbEntity
  8
Layer_1
 62
7
100
AcDbPolyline
 90
1
 70
1
 10
133.371230
 20
57.910564
 30
0.0
  0
SPLINE
  5
14d
100
AcDbEntity
  8
Layer_1
 62
7
100
AcDbSpline
 70
8
 71
3
 72
8
 73
4
 74
0
 40
0
 40
0
 40
0
 40
0
 40
1
 40
1
 40
1
 40
1
 10
20.371374
 20
41.910568
 30
0.0
 10
20.371374
 20
42.446466
 30
0.0
 10
20.085475
 20
42.941656
 30
0.0
 10
19.621374
 20
43.209605
 30
0.0
  0
SPLINE
  5
14e
100
AcDbEntity
  8
Layer_1
 62
7
100
AcDbSpline
 70
8
 71
3
 72
8
 73
4
 74
0
 40
0
 40
0
 40
0
 40
0
 40
1
 40
1
 40
1
 40
1
 10
19.621374
 20
43.209605
 30
0.0
 10
19.157273
 20
43.477555
 30
0.0
 10
18.585476
 20
43.477555
 30
0.0
 10
18.121375
 20
43.209605
 30
0.0
  0
SPLINE
  5
14f
100
AcDbEntity
  8
Layer_1
 62
7
100
AcDbSpline
 70
8
 71
3
 72
8
 73
4
 74
0
 40
0
 40
0
 40
0
 40
0
 40
1
 40
1
 40
1
 40
1
 10
18.121375
 20
43.209605
 30
0.0
 10
17.657274
 20
42.941656
 30
0.0
 10
17.371376
 20
42.446466
 30
0.0
 10
17.371376
 20
41.910568
 30
0.0
  0
SPLINE
  5
150
100
AcDbEntity
  8
Layer_1
 62
7
100
AcDbSpline
 70
8
 71
3
 72
8
 73
4
 74
0
 40
0
 40
0
 40
0
 40
0
 40
1
 40
1
 40
1
 40
1
 10
17.371376
 20
41.910568
 30
0.0
 10
17.371376
 20
41.374670
 30
0.0
 10
17.657274
 20
40.879480
 30
0.0
 10
18.121375
 20
40.611531
 30
0.0
  0
SPLINE
  5
151
100
AcDbEntity
  8
Layer_1
 62
7
100
AcDbSpline
 70
8
 71
3
 72
8
 73
4
 74
0
 40
0
 40
0
 40
0
 40
0
 40
1
 40
1
 40
1
 40
1
 10
18.121375
 20
40.611531
 30
0.0
 10
18.585476
 20
40.343582
 30
0.0
 10
19.157273
 20
40.343582
 30
0.0
 10
19.621374
 20
40.611531
 30
0.0
  0
SPLINE
  5
152
100
AcDbEntity
  8
Layer_1
 62
7
100
AcDbSpline
 70
8
 71
3
 72
8
 73
4
 74
0
 40
0
 40
0
 40
0
 40
0
 40
1
 40
1
 40
1
 40
1
 10
19.621374
 20
40.611531
 30
0.0
 10
20.085475
 20
40.879480
 30
0.0
 10
20.371374
 20
41.374670
 30
0.0
 10
20.371374
 20
41.910568
 30
0.0
  0
LWPOLYLINE
  5
153
100
AcDbEntity
  8
Layer_1
 62
7
100
AcDbPolyline
 90
1
 70
1
 10
119.471249
 20
57.910564
 30
0.0
  0
SPLINE
  5
154
100
AcDbEntity
  8
Layer_1
 62
7
100
AcDbSpline
 70
8
 71
3
 72
8
 73
4
 74
0
 40
0
 40
0
 40
0
 40
0
 40
1
 40
1
 40
1
 40
1
 10
34.271355
 20
41.910568
 30
0.0
 10
34.270864
 20
42.738646
 30
0.0
 10
33.599436
 20
43.409675
 30
0.0
 10
32.771358
 20
43.409675
 30
0.0
  0
SPLINE
  5
155
100
AcDbEntity
  8
Layer_1
 62
7
100
AcDbSpline
 70
8
 71
3
 72
8
 73
4
 74
0
 40
0
 40
0
 40
0
 40
0
 40
1
 40
1
 40
1
 40
1
 10
32.771358
 20
43.409675
 30
0.0
 10
31.943279
 20
43.409675
 30
0.0
 10
31.271852
 20
42.738646
 30
0.0
 10
31.271360
 20
41.910568
 30
0.0
  0
SPLINE
  5
156
100
AcDbEntity
  8
Layer_1
 62
7
100
AcDbSpline
 70
8
 71
3
 72
8
 73
4
 74
0
 40
0
 40
0
 40
0
 40
0
 40
1
 40
1
 40
1
 40
1
 10
31.271360
 20
41.910568
 30
0.0
 10
31.271852
 20
41.082490
 30
0.0
 10
31.943279
 20
40.411461
 30
0.0
 10
32.771358
 20
40.411461
 30
0.0
  0
SPLINE
  5
157
100
AcDbEntity
  8
Layer_1
 62
7
100
AcDbSpline
 70
8
 71
3
 72
8
 73
4
 74
0
 40
0
 40
0
 40
0
 40
0
 40
1
 40
1
 40
1
 40
1
 10
32.771358
 20
40.411461
 30
0.0
 10
33.599436
 20
40.411461
 30
0.0
 10
34.270864
 20
41.082490
 30
0.0
 10
34.271355
 20
41.910568
 30
0.0
  0
LWPOLYLINE
  5
158
100
AcDbEntity
  8
Layer_1
 62
7
100
AcDbPolyline
 90
1
 70
1
 10
20.371374
 20
41.910568
 30
0.0
  0
SPLINE
  5
159
100
AcDbEntity
  8
Layer_1
 62
7
100
AcDbSpline
 70
8
 71
3
 72
8
 73
4
 74
0
 40
0
 40
0
 40
0
 40
0
 40
1
 40
1
 40
1
 40
1
 10
34.271355
 20
57.710565
 30
0.0
 10
34.270864
 20
58.538643
 30
0.0
 10
33.599436
 20
59.209672
 30
0.0
 10
32.771358
 20
59.209672
 30
0.0
  0
SPLINE
  5
15a
100
AcDbEntity
  8
Layer_1
 62
7
100
AcDbSpline
 70
8
 71
3
 72
8
 73
4
 74
0
 40
0
 40
0
 40
0
 40
0
 40
1
 40
1
 40
1
 40
1
 10
32.771358
 20
59.209672
 30
0.0
 10
31.943279
 20
59.209672
 30
0.0
 10
31.271852
 20
58.538643
 30
0.0
 10
31.271360
 20
57.710565
 30
0.0
  0
SPLINE
  5
15b
100
AcDbEntity
  8
Layer_1
 62
7
100
AcDbSpline
 70
8
 71
3
 72
8
 73
4
 74
0
 40
0
 40
0
 40
0
 40
0
 40
1
 40
1
 40
1
 40
1
 10
31.271360
 20
57.710565
 30
0.0
 10
31.271852
 20
56.882487
 30
0.0
 10
31.943279
 20
56.211458
 30
0.0
 10
32.771358
 20
56.211458
 30
0.0
  0
SPLINE
  5
15c
100
AcDbEntity
  8
Layer_1
 62
7
100
AcDbSpline
 70
8
 71
3
 72
8
 73
4
 74
0
 40
0
 40
0
 40
0
 40
0
 40
1
 40
1
 40
1
 40
1
 10
32.771358
 20
56.211458
 30
0.0
 10
33.599436
 20
56.211458
 30
0.0
 10
34.270864
 20
56.882487
 30
0.0
 10
34.271355
 20
57.710565
 30
0.0
  0
LWPOLYLINE
  5
15d
100
AcDbEntity
  8
Layer_1
 62
7
100
AcDbPolyline
 90
1
 70
1
 10
34.271355
 20
41.910568
 30
0.0
  0
SPLINE
  5
15e
100
AcDbEntity
  8
Layer_1
 62
7
100
AcDbSpline
 70
8
 71
3
 72
8
 73
4
 74
0
 40
0
 40
0
 40
0
 40
0
 40
1
 40
1
 40
1
 40
1
 10
119.471249
 20
42.110566
 30
0.0
 10
119.471249
 20
42.646465
 30
0.0
 10
119.185350
 20
43.141655
 30
0.0
 10
118.721249
 20
43.409604
 30
0.0
  0
SPLINE
  5
15f
100
AcDbEntity
  8
Layer_1
 62
7
100
AcDbSpline
 70
8
 71
3
 72
8
 73
4
 74
0
 40
0
 40
0
 40
0
 40
0
 40
1
 40
1
 40
1
 40
1
 10
118.721249
 20
43.409604
 30
0.0
 10
118.257148
 20
43.677553
 30
0.0
 10
117.685351
 20
43.677553
 30
0.0
 10
117.221250
 20
43.409604
 30
0.0
  0
SPLINE
  5
160
100
AcDbEntity
  8
Layer_1
 62
7
100
AcDbSpline
 70
8
 71
3
 72
8
 73
4
 74
0
 40
0
 40
0
 40
0
 40
0
 40
1
 40
1
 40
1
 40
1
 10
117.221250
 20
43.409604
 30
0.0
 10
116.757149
 20
43.141655
 30
0.0
 10
116.471250
 20
42.646465
 30
0.0
 10
116.471250
 20
42.110566
 30
0.0
  0
SPLINE
  5
161
100
AcDbEntity
  8
Layer_1
 62
7
100
AcDbSpline
 70
8
 71
3
 72
8
 73
4
 74
0
 40
0
 40
0
 40
0
 40
0
 40
1
 40
1
 40
1
 40
1
 10
116.471250
 20
42.110566
 30
0.0
 10
116.471250
 20
41.574668
 30
0.0
 10
116.757149
 20
41.079478
 30
0.0
 10
117.221250
 20
40.811529
 30
0.0
  0
SPLINE
  5
162
100
AcDbEntity
  8
Layer_1
 62
7
100
AcDbSpline
 70
8
 71
3
 72
8
 73
4
 74
0
 40
0
 40
0
 40
0
 40
0
 40
1
 40
1
 40
1
 40
1
 10
117.221250
 20
40.811529
 30
0.0
 10
117.685351
 20
40.543580
 30
0.0
 10
118.257148
 20
40.543580
 30
0.0
 10
118.721249
 20
40.811529
 30
0.0
  0
SPLINE
  5
163
100
AcDbEntity
  8
Layer_1
 62
7
100
AcDbSpline
 70
8
 71
3
 72
8
 73
4
 74
0
 40
0
 40
0
 40
0
 40
0
 40
1
 40
1
 40
1
 40
1
 10
118.721249
 20
40.811529
 30
0.0
 10
119.185350
 20
41.079478
 30
0.0
 10
119.471249
 20
41.574668
 30
0.0
 10
119.471249
 20
42.110566
 30
0.0
  0
LWPOLYLINE
  5
164
100
AcDbEntity
  8
Layer_1
 62
7
100
AcDbPolyline
 90
1
 70
1
 10
34.271355
 20
57.710565
 30
0.0
  0
LWPOLYLINE
  5
165
100
AcDbEntity
  8
Layer_1
 62
7
100
AcDbPolyline
 90
1
 70
1
 10
119.471249
 20
42.110566
 30
0.0
  0
LWPOLYLINE
  5
166
100
AcDbEntity
  8
Layer_1
 62
7
100
AcDbPolyline
 90
4
 70
0
 10
72.883434
 20
285.820984
 30
0.0
 10
82.883428
 20
285.820984
 30
0.0
 10
82.883428
 20
290.820809
 30
0.0
 10
92.877151
 20
290.820809
 30
0.0
  0
LWPOLYLINE
  5
167
100
AcDbEntity
  8
Layer_1
 62
7
100
AcDbPolyline
 90
3
 70
0
 10
104.343887
 20
283.176477
 30
0.0
 10
131.600964
 20
264.993010
 30
0.0
 10
131.600964
 20
251.746133
 30
0.0
  0
LWPOLYLINE
  5
168
100
AcDbEntity
  8
Layer_1
 62
7
100
AcDbPolyline
 90
3
 70
0
 10
131.600964
 20
236.746923
 30
0.0
 10
131.600964
 20
209.418145
 30
0.0
 10
145.703237
 20
197.665368
 30
0.0
  0
LWPOLYLINE
  5
169
100
AcDbEntity
  8
Layer_1
 62
7
100
AcDbPolyline
 90
2
 70
0
 10
147.862235
 20
193.056332
 30
0.0
 10
147.862235
 20
190.513689
 30
0.0
  0
LWPOLYLINE
  5
16a
100
AcDbEntity
  8
Layer_1
 62
7
100
AcDbPolyline
 90
2
 70
0
 10
150.107221
 20
189.391858
 30
0.0
 10
147.862235
 20
190.513689
 30
0.0
  0
LWPOLYLINE
  5
16b
100
AcDbEntity
  8
Layer_1
 62
7
100
AcDbPolyline
 90
2
 70
0
 10
152.871320
 20
106.408045
 30
0.0
 10
152.871320
 20
184.920405
 30
0.0
  0
LWPOLYLINE
  5
16c
100
AcDbEntity
  8
Layer_1
 62
7
100
AcDbPolyline
 90
2
 70
0
 10
145.371186
 20
101.359802
 30
0.0
 10
152.871320
 20
106.408045
 30
0.0
  0
LWPOLYLINE
  5
16d
100
AcDbEntity
  8
Layer_1
 62
7
100
AcDbPolyline
 90
2
 70
0
 10
145.371186
 20
26.511917
 30
0.0
 10
145.371186
 20
101.359802
 30
0.0
  0
LWPOLYLINE
  5
16e
100
AcDbEntity
  8
Layer_1
 62
7
100
AcDbPolyline
 90
2
 70
0
 10
124.871295
 20
26.511917
 30
0.0
 10
145.371186
 20
26.511917
 30
0.0
  0
LWPOLYLINE
  5
16f
100
AcDbEntity
  8
Layer_1
 62
7
100
AcDbPolyline
 90
2
 70
0
 10
124.871295
 20
20.011113
 30
0.0
 10
124.871295
 20
26.511917
 30
0.0
  0
LWPOLYLINE
  5
170
100
AcDbEntity
  8
Layer_1
 62
7
100
AcDbPolyline
 90
2
 70
0
 10
35.871395
 20
15.010494
 30
0.0
 10
119.871205
 20
15.010494
 30
0.0
  0
LWPOLYLINE
  5
171
100
AcDbEntity
  8
Layer_1
 62
7
100
AcDbPolyline
 90
2
 70
0
 10
30.871305
 20
26.511917
 30
0.0
 10
30.871305
 20
20.011113
 30
0.0
  0
LWPOLYLINE
  5
172
100
AcDbEntity
  8
Layer_1
 62
7
100
AcDbPolyline
 90
2
 70
0
 10
10.371414
 20
26.511917
 30
0.0
 10
30.871305
 20
26.511917
 30
0.0
  0
LWPOLYLINE
  5
173
100
AcDbEntity
  8
Layer_1
 62
7
100
AcDbPolyline
 90
2
 70
0
 10
10.371414
 20
101.359802
 30
0.0
 10
10.371414
 20
26.511917
 30
0.0
  0
LWPOLYLINE
  5
174
100
AcDbEntity
  8
Layer_1
 62
7
100
AcDbPolyline
 90
2
 70
0
 10
2.871280
 20
106.408045
 30
0.0
 10
10.371414
 20
101.359802
 30
0.0
  0
LWPOLYLINE
  5
175
100
AcDbEntity
  8
Layer_1
 62
7
100
AcDbPolyline
 90
2
 70
0
 10
2.871280
 20
184.920405
 30
0.0
 10
2.871280
 20
106.408045
 30
0.0
  0
LWPOLYLINE
  5
176
100
AcDbEntity
  8
Layer_1
 62
7
100
AcDbPolyline
 90
2
 70
0
 10
7.880365
 20
190.513689
 30
0.0
 10
5.635379
 20
189.391858
 30
0.0
  0
LWPOLYLINE
  5
177
100
AcDbEntity
  8
Layer_1
 62
7
100
AcDbPolyline
 90
2
 70
0
 10
7.880365
 20
190.513689
 30
0.0
 10
7.880365
 20
193.056332
 30
0.0
  0
LWPOLYLINE
  5
178
100
AcDbEntity
  8
Layer_1
 62
7
100
AcDbPolyline
 90
3
 70
0
 10
10.039363
 20
197.665368
 30
0.0
 10
24.141636
 20
209.418145
 30
0.0
 10
24.141636
 20
236.746923
 30
0.0
  0
LWPOLYLINE
  5
179
100
AcDbEntity
  8
Layer_1
 62
7
100
AcDbPolyline
 90
7
 70
0
 10
24.141636
 20
251.746133
 30
0.0
 10
24.141636
 20
264.993010
 30
0.0
 10
51.398713
 20
283.176477
 30
0.0
 10
51.377281
 20
283.150019
 30
0.0
 10
62.883440
 20
290.820809
 30
0.0
 10
72.883434
 20
290.820809
 30
0.0
 10
72.883434
 20
285.820984
 30
0.0
  0
SPLINE
  5
17a
100
AcDbEntity
  8
Layer_1
 62
7
100
AcDbSpline
 70
8
 71
3
 72
8
 73
4
 74
0
 40
0
 40
0
 40
0
 40
0
 40
1
 40
1
 40
1
 40
1
 10
131.600860
 20
236.745785
 30
0.0
 10
135.740932
 20
236.748695
 30
0.0
 10
139.095580
 20
240.105702
 30
0.0
 10
139.095580
 20
244.245774
 30
0.0
  0
SPLINE
  5
17b
100
AcDbEntity
  8
Layer_1
 62
7
100
AcDbSpline
 70
8
 71
3
 72
8
 73
4
 74
0
 40
0
 40
0
 40
0
 40
0
 40
1
 40
1
 40
1
 40
1
 10
139.095580
 20
244.245774
 30
0.0
 10
139.095580
 20
248.385846
 30
0.0
 10
135.740932
 20
251.742853
 30
0.0
 10
131.600860
 20
251.745763
 30
0.0
  0
SPLINE
  5
17c
100
AcDbEntity
  8
Layer_1
 62
7
100
AcDbSpline
 70
8
 71
3
 72
8
 73
4
 74
0
 40
0
 40
0
 40
0
 40
0
 40
1
 40
1
 40
1
 40
1
 10
147.862219
 20
193.056120
 30
0.0
 10
147.862220
 20
194.836799
 30
0.0
 10
147.071283
 20
196.525485
 30
0.0
 10
145.703327
 20
197.665447
 30
0.0
  0
SPLINE
  5
17d
100
AcDbEntity
  8
Layer_1
 62
7
100
AcDbSpline
 70
8
 71
3
 72
8
 73
4
 74
0
 40
0
 40
0
 40
0
 40
0
 40
1
 40
1
 40
1
 40
1
 10
152.871206
 20
184.920220
 30
0.0
 10
152.871210
 20
186.814081
 30
0.0
 10
151.801199
 20
188.545400
 30
0.0
 10
150.107277
 20
189.392360
 30
0.0
  0
SPLINE
  5
17e
100
AcDbEntity
  8
Layer_1
 62
7
100
AcDbSpline
 70
8
 71
3
 72
8
 73
4
 74
0
 40
0
 40
0
 40
0
 40
0
 40
1
 40
1
 40
1
 40
1
 10
119.871248
 20
15.010600
 30
0.0
 10
121.197331
 20
15.010600
 30
0.0
 10
122.469101
 20
15.537386
 30
0.0
 10
123.406782
 20
16.475071
 30
0.0
  0
SPLINE
  5
17f
100
AcDbEntity
  8
Layer_1
 62
7
100
AcDbSpline
 70
8
 71
3
 72
8
 73
4
 74
0
 40
0
 40
0
 40
0
 40
0
 40
1
 40
1
 40
1
 40
1
 10
123.406782
 20
16.475071
 30
0.0
 10
124.344462
 20
17.412755
 30
0.0
 10
124.871244
 20
18.684527
 30
0.0
 10
124.871239
 20
20.010610
 30
0.0
  0
SPLINE
  5
180
100
AcDbEntity
  8
Layer_1
 62
7
100
AcDbSpline
 70
8
 71
3
 72
8
 73
4
 74
0
 40
0
 40
0
 40
0
 40
0
 40
1
 40
1
 40
1
 40
1
 10
30.871361
 20
20.010610
 30
0.0
 10
30.871356
 20
18.684527
 30
0.0
 10
31.398138
 20
17.412755
 30
0.0
 10
32.335818
 20
16.475071
 30
0.0
  0
SPLINE
  5
181
100
AcDbEntity
  8
Layer_1
 62
7
100
AcDbSpline
 70
8
 71
3
 72
8
 73
4
 74
0
 40
0
 40
0
 40
0
 40
0
 40
1
 40
1
 40
1
 40
1
 10
32.335818
 20
16.475071
 30
0.0
 10
33.273499
 20
15.537386
 30
0.0
 10
34.545269
 20
15.010600
 30
0.0
 10
35.871352
 20
15.010600
 30
0.0
  0
SPLINE
  5
182
100
AcDbEntity
  8
Layer_1
 62
7
100
AcDbSpline
 70
8
 71
3
 72
8
 73
4
 74
0
 40
0
 40
0
 40
0
 40
0
 40
1
 40
1
 40
1
 40
1
 10
5.635323
 20
189.392360
 30
0.0
 10
3.941401
 20
188.545400
 30
0.0
 10
2.871390
 20
186.814081
 30
0.0
 10
2.871394
 20
184.920220
 30
0.0
  0
SPLINE
  5
183
100
AcDbEntity
  8
Layer_1
 62
7
100
AcDbSpline
 70
8
 71
3
 72
8
 73
4
 74
0
 40
0
 40
0
 40
0
 40
0
 40
1
 40
1
 40
1
 40
1
 10
10.039273
 20
197.665447
 30
0.0
 10
8.671317
 20
196.525485
 30
0.0
 10
7.880380
 20
194.836799
 30
0.0
 10
7.880381
 20
193.056120
 30
0.0
  0
SPLINE
  5
184
100
AcDbEntity
  8
Layer_1
 62
7
100
AcDbSpline
 70
8
 71
3
 72
8
 73
4
 74
0
 40
0
 40
0
 40
0
 40
0
 40
1
 40
1
 40
1
 40
1
 10
24.141740
 20
251.745763
 30
0.0
 10
20.001668
 20
251.742853
 30
0.0
 10
16.647020
 20
248.385846
 30
0.0
 10
16.647020
 20
244.245774
 30
0.0
  0
SPLINE
  5
185
100
AcDbEntity
  8
Layer_1
 62
7
100
AcDbSpline
 70
8
 71
3
 72
8
 73
4
 74
0
 40
0
 40
0
 40
0
 40
0
 40
1
 40
1
 40
1
 40
1
 10
16.647020
 20
244.245774
 30
0.0
 10
16.647020
 20
240.105702
 30
0.0
 10
20.001668
 20
236.748695
 30
0.0
 10
24.141740
 20
236.745785
 30
0.0
  0
SPLINE
  5
186
100
AcDbEntity
  8
Layer_1
 62
7
100
AcDbSpline
 70
8
 71
3
 72
8
 73
4
 74
0
 40
0
 40
0
 40
0
 40
0
 40
1
 40
1
 40
1
 40
1
 10
192.121037
 20
276.237581
 30
0.0
 10
192.121037
 20
276.773479
 30
0.0
 10
191.835139
 20
277.268669
 30
0.0
 10
191.371037
 20
277.536618
 30
0.0
  0
SPLINE
  5
187
100
AcDbEntity
  8
Layer_1
 62
7
100
AcDbSpline
 70
8
 71
3
 72
8
 73
4
 74
0
 40
0
 40
0
 40
0
 40
0
 40
1
 40
1
 40
1
 40
1
 10
191.371037
 20
277.536618
 30
0.0
 10
190.906936
 20
277.804567
 30
0.0
 10
190.335140
 20
277.804567
 30
0.0
 10
189.871038
 20
277.536618
 30
0.0
  0
SPLINE
  5
188
100
AcDbEntity
  8
Layer_1
 62
7
100
AcDbSpline
 70
8
 71
3
 72
8
 73
4
 74
0
 40
0
 40
0
 40
0
 40
0
 40
1
 40
1
 40
1
 40
1
 10
189.871038
 20
277.536618
 30
0.0
 10
189.406937
 20
277.268669
 30
0.0
 10
189.121039
 20
276.773479
 30
0.0
 10
189.121039
 20
276.237581
 30
0.0
  0
SPLINE
  5
189
100
AcDbEntity
  8
Layer_1
 62
7
100
AcDbSpline
 70
8
 71
3
 72
8
 73
4
 74
0
 40
0
 40
0
 40
0
 40
0
 40
1
 40
1
 40
1
 40
1
 10
189.121039
 20
276.237581
 30
0.0
 10
189.121039
 20
275.701683
 30
0.0
 10
189.406937
 20
275.206493
 30
0.0
 10
189.871038
 20
274.938544
 30
0.0
  0
SPLINE
  5
18a
100
AcDbEntity
  8
Layer_1
 62
7
100
AcDbSpline
 70
8
 71
3
 72
8
 73
4
 74
0
 40
0
 40
0
 40
0
 40
0
 40
1
 40
1
 40
1
 40
1
 10
189.871038
 20
274.938544
 30
0.0
 10
190.335140
 20
274.670595
 30
0.0
 10
190.906936
 20
274.670595
 30
0.0
 10
191.371037
 20
274.938544
 30
0.0
  0
SPLINE
  5
18b
100
AcDbEntity
  8
Layer_1
 62
7
100
AcDbSpline
 70
8
 71
3
 72
8
 73
4
 74
0
 40
0
 40
0
 40
0
 40
0
 40
1
 40
1
 40
1
 40
1
 10
191.371037
 20
274.938544
 30
0.0
 10
191.835139
 20
275.206493
 30
0.0
 10
192.121037
 20
275.701683
 30
0.0
 10
192.121037
 20
276.237581
 30
0.0
  0
LWPOLYLINE
  5
18c
100
AcDbEntity
  8
Layer_1
 62
7
100
AcDbPolyline
 90
2
 70
0
 10
92.877151
 20
290.820809
 30
0.0
 10
104.343887
 20
283.176477
 30
0.0
  0
SPLINE
  5
18d
100
AcDbEntity
  8
Layer_1
 62
7
100
AcDbSpline
 70
8
 71
3
 72
8
 73
4
 74
0
 40
0
 40
0
 40
0
 40
0
 40
1
 40
1
 40
1
 40
1
 10
264.102961
 20
276.237581
 30
0.0
 10
264.102961
 20
276.773479
 30
0.0
 10
263.817063
 20
277.268669
 30
0.0
 10
263.352962
 20
277.536618
 30
0.0
  0
SPLINE
  5
18e
100
AcDbEntity
  8
Layer_1
 62
7
100
AcDbSpline
 70
8
 71
3
 72
8
 73
4
 74
0
 40
0
 40
0
 40
0
 40
0
 40
1
 40
1
 40
1
 40
1
 10
263.352962
 20
277.536618
 30
0.0
 10
262.888860
 20
277.804567
 30
0.0
 10
262.317064
 20
277.804567
 30
0.0
 10
261.852963
 20
277.536618
 30
0.0
  0
SPLINE
  5
18f
100
AcDbEntity
  8
Layer_1
 62
7
100
AcDbSpline
 70
8
 71
3
 72
8
 73
4
 74
0
 40
0
 40
0
 40
0
 40
0
 40
1
 40
1
 40
1
 40
1
 10
261.852963
 20
277.536618
 30
0.0
 10
261.388861
 20
277.268669
 30
0.0
 10
261.102963
 20
276.773479
 30
0.0
 10
261.102963
 20
276.237581
 30
0.0
  0
SPLINE
  5
190
100
AcDbEntity
  8
Layer_1
 62
7
100
AcDbSpline
 70
8
 71
3
 72
8
 73
4
 74
0
 40
0
 40
0
 40
0
 40
0
 40
1
 40
1
 40
1
 40
1
 10
261.102963
 20
276.237581
 30
0.0
 10
261.102963
 20
275.701683
 30
0.0
 10
261.388861
 20
275.206493
 30
0.0
 10
261.852963
 20
274.938544
 30
0.0
  0
SPLINE
  5
191
100
AcDbEntity
  8
Layer_1
 62
7
100
AcDbSpline
 70
8
 71
3
 72
8
 73
4
 74
0
 40
0
 40
0
 40
0
 40
0
 40
1
 40
1
 40
1
 40
1
 10
261.852963
 20
274.938544
 30
0.0
 10
262.317064
 20
274.670595
 30
0.0
 10
262.888860
 20
274.670595
 30
0.0
 10
263.352962
 20
274.938544
 30
0.0
  0
SPLINE
  5
192
100
AcDbEntity
  8
Layer_1
 62
7
100
AcDbSpline
 70
8
 71
3
 72
8
 73
4
 74
0
 40
0
 40
0
 40
0
 40
0
 40
1
 40
1
 40
1
 40
1
 10
263.352962
 20
274.938544
 30
0.0
 10
263.817063
 20
275.206493
 30
0.0
 10
264.102961
 20
275.701683
 30
0.0
 10
264.102961
 20
276.237581
 30
0.0
  0
LWPOLYLINE
  5
193
100
AcDbEntity
  8
Layer_1
 62
7
100
AcDbPolyline
 90
1
 70
1
 10
192.121037
 20
276.237581
 30
0.0
  0
SPLINE
  5
194
100
AcDbEntity
  8
Layer_1
 62
7
100
AcDbSpline
 70
8
 71
3
 72
8
 73
4
 74
0
 40
0
 40
0
 40
0
 40
0
 40
1
 40
1
 40
1
 40
1
 10
282.350550
 20
55.102753
 30
0.0
 10
282.350550
 20
55.817283
 30
0.0
 10
281.969352
 20
56.477536
 30
0.0
 10
281.350551
 20
56.834802
 30
0.0
  0
SPLINE
  5
195
100
AcDbEntity
  8
Layer_1
 62
7
100
AcDbSpline
 70
8
 71
3
 72
8
 73
4
 74
0
 40
0
 40
0
 40
0
 40
0
 40
1
 40
1
 40
1
 40
1
 10
281.350551
 20
56.834802
 30
0.0
 10
280.731750
 20
57.192067
 30
0.0
 10
279.969355
 20
57.192067
 30
0.0
 10
279.350554
 20
56.834802
 30
0.0
  0
SPLINE
  5
196
100
AcDbEntity
  8
Layer_1
 62
7
100
AcDbSpline
 70
8
 71
3
 72
8
 73
4
 74
0
 40
0
 40
0
 40
0
 40
0
 40
1
 40
1
 40
1
 40
1
 10
279.350554
 20
56.834802
 30
0.0
 10
278.731752
 20
56.477536
 30
0.0
 10
278.350555
 20
55.817283
 30
0.0
 10
278.350555
 20
55.102753
 30
0.0
  0
SPLINE
  5
197
100
AcDbEntity
  8
Layer_1
 62
7
100
AcDbSpline
 70
8
 71
3
 72
8
 73
4
 74
0
 40
0
 40
0
 40
0
 40
0
 40
1
 40
1
 40
1
 40
1
 10
278.350555
 20
55.102753
 30
0.0
 10
278.350555
 20
54.388223
 30
0.0
 10
278.731752
 20
53.727970
 30
0.0
 10
279.350554
 20
53.370704
 30
0.0
  0
SPLINE
  5
198
100
AcDbEntity
  8
Layer_1
 62
7
100
AcDbSpline
 70
8
 71
3
 72
8
 73
4
 74
0
 40
0
 40
0
 40
0
 40
0
 40
1
 40
1
 40
1
 40
1
 10
279.350554
 20
53.370704
 30
0.0
 10
279.969355
 20
53.013439
 30
0.0
 10
280.731750
 20
53.013439
 30
0.0
 10
281.350551
 20
53.370704
 30
0.0
  0
SPLINE
  5
199
100
AcDbEntity
  8
Layer_1
 62
7
100
AcDbSpline
 70
8
 71
3
 72
8
 73
4
 74
0
 40
0
 40
0
 40
0
 40
0
 40
1
 40
1
 40
1
 40
1
 10
281.350551
 20
53.370704
 30
0.0
 10
281.969352
 20
53.727970
 30
0.0
 10
282.350550
 20
54.388223
 30
0.0
 10
282.350550
 20
55.102753
 30
0.0
  0
LWPOLYLINE
  5
19a
100
AcDbEntity
  8
Layer_1
 62
7
100
AcDbPolyline
 90
1
 70
1
 10
264.102961
 20
276.237581
 30
0.0
  0
SPLINE
  5
19b
100
AcDbEntity
  8
Layer_1
 62
7
100
AcDbSpline
 70
8
 71
3
 72
8
 73
4
 74
0
 40
0
 40
0
 40
0
 40
0
 40
1
 40
1
 40
1
 40
1
 10
174.873445
 20
55.102753
 30
0.0
 10
174.873445
 20
55.817283
 30
0.0
 10
174.492248
 20
56.477536
 30
0.0
 10
173.873446
 20
56.834802
 30
0.0
  0
SPLINE
  5
19c
100
AcDbEntity
  8
Layer_1
 62
7
100
AcDbSpline
 70
8
 71
3
 72
8
 73
4
 74
0
 40
0
 40
0
 40
0
 40
0
 40
1
 40
1
 40
1
 40
1
 10
173.873446
 20
56.834802
 30
0.0
 10
173.254645
 20
57.192067
 30
0.0
 10
172.492250
 20
57.192067
 30
0.0
 10
171.873449
 20
56.834802
 30
0.0
  0
SPLINE
  5
19d
100
AcDbEntity
  8
Layer_1
 62
7
100
AcDbSpline
 70
8
 71
3
 72
8
 73
4
 74
0
 40
0
 40
0
 40
0
 40
0
 40
1
 40
1
 40
1
 40
1
 10
171.873449
 20
56.834802
 30
0.0
 10
171.254648
 20
56.477536
 30
0.0
 10
170.873450
 20
55.817283
 30
0.0
 10
170.873450
 20
55.102753
 30
0.0
  0
SPLINE
  5
19e
100
AcDbEntity
  8
Layer_1
 62
7
100
AcDbSpline
 70
8
 71
3
 72
8
 73
4
 74
0
 40
0
 40
0
 40
0
 40
0
 40
1
 40
1
 40
1
 40
1
 10
170.873450
 20
55.102753
 30
0.0
 10
170.873450
 20
54.388223
 30
0.0
 10
171.254648
 20
53.727970
 30
0.0
 10
171.873449
 20
53.370704
 30
0.0
  0
SPLINE
  5
19f
100
AcDbEntity
  8
Layer_1
 62
7
100
AcDbSpline
 70
8
 71
3
 72
8
 73
4
 74
0
 40
0
 40
0
 40
0
 40
0
 40
1
 40
1
 40
1
 40
1
 10
171.873449
 20
53.370704
 30
0.0
 10
172.492250
 20
53.013439
 30
0.0
 10
173.254645
 20
53.013439
 30
0.0
 10
173.873446
 20
53.370704
 30
0.0
  0
SPLINE
  5
1a0
100
AcDbEntity
  8
Layer_1
 62
7
100
AcDbSpline
 70
8
 71
3
 72
8
 73
4
 74
0
 40
0
 40
0
 40
0
 40
0
 40
1
 40
1
 40
1
 40
1
 10
173.873446
 20
53.370704
 30
0.0
 10
174.492248
 20
53.727970
 30
0.0
 10
174.873445
 20
54.388223
 30
0.0
 10
174.873445
 20
55.102753
 30
0.0
  0
LWPOLYLINE
  5
1a1
100
AcDbEntity
  8
Layer_1
 62
7
100
AcDbPolyline
 90
1
 70
1
 10
282.350550
 20
55.102753
 30
0.0
  0
SPLINE
  5
1a2
100
AcDbEntity
  8
Layer_1
 62
7
100
AcDbSpline
 70
8
 71
3
 72
8
 73
4
 74
0
 40
0
 40
0
 40
0
 40
0
 40
1
 40
1
 40
1
 40
1
 10
183.112054
 20
224.482008
 30
0.0
 10
183.111563
 20
225.310086
 30
0.0
 10
182.440135
 20
225.981115
 30
0.0
 10
181.612057
 20
225.981115
 30
0.0
  0
SPLINE
  5
1a3
100
AcDbEntity
  8
Layer_1
 62
7
100
AcDbSpline
 70
8
 71
3
 72
8
 73
4
 74
0
 40
0
 40
0
 40
0
 40
0
 40
1
 40
1
 40
1
 40
1
 10
181.612057
 20
225.981115
 30
0.0
 10
180.783979
 20
225.981115
 30
0.0
 10
180.112551
 20
225.310086
 30
0.0
 10
180.112059
 20
224.482008
 30
0.0
  0
SPLINE
  5
1a4
100
AcDbEntity
  8
Layer_1
 62
7
100
AcDbSpline
 70
8
 71
3
 72
8
 73
4
 74
0
 40
0
 40
0
 40
0
 40
0
 40
1
 40
1
 40
1
 40
1
 10
180.112059
 20
224.482008
 30
0.0
 10
180.112551
 20
223.653930
 30
0.0
 10
180.783979
 20
222.982901
 30
0.0
 10
181.612057
 20
222.982901
 30
0.0
  0
SPLINE
  5
1a5
100
AcDbEntity
  8
Layer_1
 62
7
100
AcDbSpline
 70
8
 71
3
 72
8
 73
4
 74
0
 40
0
 40
0
 40
0
 40
0
 40
1
 40
1
 40
1
 40
1
 10
181.612057
 20
222.982901
 30
0.0
 10
182.440135
 20
222.982901
 30
0.0
 10
183.111563
 20
223.653930
 30
0.0
 10
183.112054
 20
224.482008
 30
0.0
  0
LWPOLYLINE
  5
1a6
100
AcDbEntity
  8
Layer_1
 62
7
100
AcDbPolyline
 90
1
 70
1
 10
174.873445
 20
55.102753
 30
0.0
  0
SPLINE
  5
1a7
100
AcDbEntity
  8
Layer_1
 62
7
100
AcDbSpline
 70
8
 71
3
 72
8
 73
4
 74
0
 40
0
 40
0
 40
0
 40
0
 40
1
 40
1
 40
1
 40
1
 10
233.111992
 20
224.482008
 30
0.0
 10
233.111992
 20
225.017906
 30
0.0
 10
232.826094
 20
225.513096
 30
0.0
 10
232.361993
 20
225.781045
 30
0.0
  0
SPLINE
  5
1a8
100
AcDbEntity
  8
Layer_1
 62
7
100
AcDbSpline
 70
8
 71
3
 72
8
 73
4
 74
0
 40
0
 40
0
 40
0
 40
0
 40
1
 40
1
 40
1
 40
1
 10
232.361993
 20
225.781045
 30
0.0
 10
231.897892
 20
226.048994
 30
0.0
 10
231.326096
 20
226.048994
 30
0.0
 10
230.861995
 20
225.781045
 30
0.0
  0
SPLINE
  5
1a9
100
AcDbEntity
  8
Layer_1
 62
7
100
AcDbSpline
 70
8
 71
3
 72
8
 73
4
 74
0
 40
0
 40
0
 40
0
 40
0
 40
1
 40
1
 40
1
 40
1
 10
230.861995
 20
225.781045
 30
0.0
 10
230.397894
 20
225.513096
 30
0.0
 10
230.111995
 20
225.017906
 30
0.0
 10
230.111995
 20
224.482008
 30
0.0
  0
SPLINE
  5
1aa
100
AcDbEntity
  8
Layer_1
 62
7
100
AcDbSpline
 70
8
 71
3
 72
8
 73
4
 74
0
 40
0
 40
0
 40
0
 40
0
 40
1
 40
1
 40
1
 40
1
 10
230.111995
 20
224.482008
 30
0.0
 10
230.111995
 20
223.946111
 30
0.0
 10
230.397894
 20
223.450921
 30
0.0
 10
230.861995
 20
223.182972
 30
0.0
  0
SPLINE
  5
1ab
100
AcDbEntity
  8
Layer_1
 62
7
100
AcDbSpline
 70
8
 71
3
 72
8
 73
4
 74
0
 40
0
 40
0
 40
0
 40
0
 40
1
 40
1
 40
1
 40
1
 10
230.861995
 20
223.182972
 30
0.0
 10
231.326096
 20
222.915023
 30
0.0
 10
231.897892
 20
222.915023
 30
0.0
 10
232.361993
 20
223.182972
 30
0.0
  0
SPLINE
  5
1ac
100
AcDbEntity
  8
Layer_1
 62
7
100
AcDbSpline
 70
8
 71
3
 72
8
 73
4
 74
0
 40
0
 40
0
 40
0
 40
0
 40
1
 40
1
 40
1
 40
1
 10
232.361993
 20
223.182972
 30
0.0
 10
232.826094
 20
223.450921
 30
0.0
 10
233.111992
 20
223.946111
 30
0.0
 10
233.111992
 20
224.482008
 30
0.0
  0
LWPOLYLINE
  5
1ad
100
AcDbEntity
  8
Layer_1
 62
7
100
AcDbPolyline
 90
1
 70
1
 10
183.112054
 20
224.482008
 30
0.0
  0
SPLINE
  5
1ae
100
AcDbEntity
  8
Layer_1
 62
7
100
AcDbSpline
 70
8
 71
3
 72
8
 73
4
 74
0
 40
0
 40
0
 40
0
 40
0
 40
1
 40
1
 40
1
 40
1
 10
273.111941
 20
224.482008
 30
0.0
 10
273.111449
 20
225.310086
 30
0.0
 10
272.440021
 20
225.981115
 30
0.0
 10
271.611943
 20
225.981115
 30
0.0
  0
SPLINE
  5
1af
100
AcDbEntity
  8
Layer_1
 62
7
100
AcDbSpline
 70
8
 71
3
 72
8
 73
4
 74
0
 40
0
 40
0
 40
0
 40
0
 40
1
 40
1
 40
1
 40
1
 10
271.611943
 20
225.981115
 30
0.0
 10
270.783865
 20
225.981115
 30
0.0
 10
270.112437
 20
225.310086
 30
0.0
 10
270.111946
 20
224.482008
 30
0.0
  0
SPLINE
  5
1b0
100
AcDbEntity
  8
Layer_1
 62
7
100
AcDbSpline
 70
8
 71
3
 72
8
 73
4
 74
0
 40
0
 40
0
 40
0
 40
0
 40
1
 40
1
 40
1
 40
1
 10
270.111946
 20
224.482008
 30
0.0
 10
270.112437
 20
223.653930
 30
0.0
 10
270.783865
 20
222.982901
 30
0.0
 10
271.611943
 20
222.982901
 30
0.0
  0
SPLINE
  5
1b1
100
AcDbEntity
  8
Layer_1
 62
7
100
AcDbSpline
 70
8
 71
3
 72
8
 73
4
 74
0
 40
0
 40
0
 40
0
 40
0
 40
1
 40
1
 40
1
 40
1
 10
271.611943
 20
222.982901
 30
0.0
 10
272.440021
 20
222.982901
 30
0.0
 10
273.111449
 20
223.653930
 30
0.0
 10
273.111941
 20
224.482008
 30
0.0
  0
LWPOLYLINE
  5
1b2
100
AcDbEntity
  8
Layer_1
 62
7
100
AcDbPolyline
 90
1
 70
1
 10
233.111992
 20
224.482008
 30
0.0
  0
SPLINE
  5
1b3
100
AcDbEntity
  8
Layer_1
 62
7
100
AcDbSpline
 70
8
 71
3
 72
8
 73
4
 74
0
 40
0
 40
0
 40
0
 40
0
 40
1
 40
1
 40
1
 40
1
 10
273.111941
 20
264.681958
 30
0.0
 10
273.111449
 20
265.510036
 30
0.0
 10
272.440021
 20
266.181065
 30
0.0
 10
271.611943
 20
266.181065
 30
0.0
  0
SPLINE
  5
1b4
100
AcDbEntity
  8
Layer_1
 62
7
100
AcDbSpline
 70
8
 71
3
 72
8
 73
4
 74
0
 40
0
 40
0
 40
0
 40
0
 40
1
 40
1
 40
1
 40
1
 10
271.611943
 20
266.181065
 30
0.0
 10
270.783865
 20
266.181065
 30
0.0
 10
270.112437
 20
265.510036
 30
0.0
 10
270.111946
 20
264.681958
 30
0.0
  0
SPLINE
  5
1b5
100
AcDbEntity
  8
Layer_1
 62
7
100
AcDbSpline
 70
8
 71
3
 72
8
 73
4
 74
0
 40
0
 40
0
 40
0
 40
0
 40
1
 40
1
 40
1
 40
1
 10
270.111946
 20
264.681958
 30
0.0
 10
270.112437
 20
263.853880
 30
0.0
 10
270.783865
 20
263.182851
 30
0.0
 10
271.611943
 20
263.182851
 30
0.0
  0
SPLINE
  5
1b6
100
AcDbEntity
  8
Layer_1
 62
7
100
AcDbSpline
 70
8
 71
3
 72
8
 73
4
 74
0
 40
0
 40
0
 40
0
 40
0
 40
1
 40
1
 40
1
 40
1
 10
271.611943
 20
263.182851
 30
0.0
 10
272.440021
 20
263.182851
 30
0.0
 10
273.111449
 20
263.853880
 30
0.0
 10
273.111941
 20
264.681958
 30
0.0
  0
LWPOLYLINE
  5
1b7
100
AcDbEntity
  8
Layer_1
 62
7
100
AcDbPolyline
 90
1
 70
1
 10
273.111941
 20
224.482008
 30
0.0
  0
SPLINE
  5
1b8
100
AcDbEntity
  8
Layer_1
 62
7
100
AcDbSpline
 70
8
 71
3
 72
8
 73
4
 74
0
 40
0
 40
0
 40
0
 40
0
 40
1
 40
1
 40
1
 40
1
 10
223.112005
 20
224.482008
 30
0.0
 10
223.112005
 20
225.017906
 30
0.0
 10
222.826106
 20
225.513096
 30
0.0
 10
222.362005
 20
225.781045
 30
0.0
  0
SPLINE
  5
1b9
100
AcDbEntity
  8
Layer_1
 62
7
100
AcDbSpline
 70
8
 71
3
 72
8
 73
4
 74
0
 40
0
 40
0
 40
0
 40
0
 40
1
 40
1
 40
1
 40
1
 10
222.362005
 20
225.781045
 30
0.0
 10
221.897904
 20
226.048994
 30
0.0
 10
221.326108
 20
226.048994
 30
0.0
 10
220.862007
 20
225.781045
 30
0.0
  0
SPLINE
  5
1ba
100
AcDbEntity
  8
Layer_1
 62
7
100
AcDbSpline
 70
8
 71
3
 72
8
 73
4
 74
0
 40
0
 40
0
 40
0
 40
0
 40
1
 40
1
 40
1
 40
1
 10
220.862007
 20
225.781045
 30
0.0
 10
220.397906
 20
225.513096
 30
0.0
 10
220.112008
 20
225.017906
 30
0.0
 10
220.112008
 20
224.482008
 30
0.0
  0
SPLINE
  5
1bb
100
AcDbEntity
  8
Layer_1
 62
7
100
AcDbSpline
 70
8
 71
3
 72
8
 73
4
 74
0
 40
0
 40
0
 40
0
 40
0
 40
1
 40
1
 40
1
 40
1
 10
220.112008
 20
224.482008
 30
0.0
 10
220.112008
 20
223.946111
 30
0.0
 10
220.397906
 20
223.450921
 30
0.0
 10
220.862007
 20
223.182972
 30
0.0
  0
SPLINE
  5
1bc
100
AcDbEntity
  8
Layer_1
 62
7
100
AcDbSpline
 70
8
 71
3
 72
8
 73
4
 74
0
 40
0
 40
0
 40
0
 40
0
 40
1
 40
1
 40
1
 40
1
 10
220.862007
 20
223.182972
 30
0.0
 10
221.326108
 20
222.915023
 30
0.0
 10
221.897904
 20
222.915023
 30
0.0
 10
222.362005
 20
223.182972
 30
0.0
  0
SPLINE
  5
1bd
100
AcDbEntity
  8
Layer_1
 62
7
100
AcDbSpline
 70
8
 71
3
 72
8
 73
4
 74
0
 40
0
 40
0
 40
0
 40
0
 40
1
 40
1
 40
1
 40
1
 10
222.362005
 20
223.182972
 30
0.0
 10
222.826106
 20
223.450921
 30
0.0
 10
223.112005
 20
223.946111
 30
0.0
 10
223.112005
 20
224.482008
 30
0.0
  0
LWPOLYLINE
  5
1be
100
AcDbEntity
  8
Layer_1
 62
7
100
AcDbPolyline
 90
1
 70
1
 10
273.111941
 20
264.681958
 30
0.0
  0
SPLINE
  5
1bf
100
AcDbEntity
  8
Layer_1
 62
7
100
AcDbSpline
 70
8
 71
3
 72
8
 73
4
 74
0
 40
0
 40
0
 40
0
 40
0
 40
1
 40
1
 40
1
 40
1
 10
183.112054
 20
264.681958
 30
0.0
 10
183.111563
 20
265.510036
 30
0.0
 10
182.440135
 20
266.181065
 30
0.0
 10
181.612057
 20
266.181065
 30
0.0
  0
SPLINE
  5
1c0
100
AcDbEntity
  8
Layer_1
 62
7
100
AcDbSpline
 70
8
 71
3
 72
8
 73
4
 74
0
 40
0
 40
0
 40
0
 40
0
 40
1
 40
1
 40
1
 40
1
 10
181.612057
 20
266.181065
 30
0.0
 10
180.783979
 20
266.181065
 30
0.0
 10
180.112551
 20
265.510036
 30
0.0
 10
180.112059
 20
264.681958
 30
0.0
  0
SPLINE
  5
1c1
100
AcDbEntity
  8
Layer_1
 62
7
100
AcDbSpline
 70
8
 71
3
 72
8
 73
4
 74
0
 40
0
 40
0
 40
0
 40
0
 40
1
 40
1
 40
1
 40
1
 10
180.112059
 20
264.681958
 30
0.0
 10
180.112551
 20
263.853880
 30
0.0
 10
180.783979
 20
263.182851
 30
0.0
 10
181.612057
 20
263.182851
 30
0.0
  0
SPLINE
  5
1c2
100
AcDbEntity
  8
Layer_1
 62
7
100
AcDbSpline
 70
8
 71
3
 72
8
 73
4
 74
0
 40
0
 40
0
 40
0
 40
0
 40
1
 40
1
 40
1
 40
1
 10
181.612057
 20
263.182851
 30
0.0
 10
182.440135
 20
263.182851
 30
0.0
 10
183.111563
 20
263.853880
 30
0.0
 10
183.112054
 20
264.681958
 30
0.0
  0
LWPOLYLINE
  5
1c3
100
AcDbEntity
  8
Layer_1
 62
7
100
AcDbPolyline
 90
1
 70
1
 10
223.112005
 20
224.482008
 30
0.0
  0
SPLINE
  5
1c4
100
AcDbEntity
  8
Layer_1
 62
7
100
AcDbSpline
 70
8
 71
3
 72
8
 73
4
 74
0
 40
0
 40
0
 40
0
 40
0
 40
1
 40
1
 40
1
 40
1
 10
223.112005
 20
264.681958
 30
0.0
 10
223.112005
 20
265.217856
 30
0.0
 10
222.826106
 20
265.713046
 30
0.0
 10
222.362005
 20
265.980995
 30
0.0
  0
SPLINE
  5
1c5
100
AcDbEntity
  8
Layer_1
 62
7
100
AcDbSpline
 70
8
 71
3
 72
8
 73
4
 74
0
 40
0
 40
0
 40
0
 40
0
 40
1
 40
1
 40
1
 40
1
 10
222.362005
 20
265.980995
 30
0.0
 10
221.897904
 20
266.248944
 30
0.0
 10
221.326108
 20
266.248944
 30
0.0
 10
220.862007
 20
265.980995
 30
0.0
  0
SPLINE
  5
1c6
100
AcDbEntity
  8
Layer_1
 62
7
100
AcDbSpline
 70
8
 71
3
 72
8
 73
4
 74
0
 40
0
 40
0
 40
0
 40
0
 40
1
 40
1
 40
1
 40
1
 10
220.862007
 20
265.980995
 30
0.0
 10
220.397906
 20
265.713046
 30
0.0
 10
220.112008
 20
265.217856
 30
0.0
 10
220.112008
 20
264.681958
 30
0.0
  0
SPLINE
  5
1c7
100
AcDbEntity
  8
Layer_1
 62
7
100
AcDbSpline
 70
8
 71
3
 72
8
 73
4
 74
0
 40
0
 40
0
 40
0
 40
0
 40
1
 40
1
 40
1
 40
1
 10
220.112008
 20
264.681958
 30
0.0
 10
220.112008
 20
264.146061
 30
0.0
 10
220.397906
 20
263.650871
 30
0.0
 10
220.862007
 20
263.382922
 30
0.0
  0
SPLINE
  5
1c8
100
AcDbEntity
  8
Layer_1
 62
7
100
AcDbSpline
 70
8
 71
3
 72
8
 73
4
 74
0
 40
0
 40
0
 40
0
 40
0
 40
1
 40
1
 40
1
 40
1
 10
220.862007
 20
263.382922
 30
0.0
 10
221.326108
 20
263.114973
 30
0.0
 10
221.897904
 20
263.114973
 30
0.0
 10
222.362005
 20
263.382922
 30
0.0
  0
SPLINE
  5
1c9
100
AcDbEntity
  8
Layer_1
 62
7
100
AcDbSpline
 70
8
 71
3
 72
8
 73
4
 74
0
 40
0
 40
0
 40
0
 40
0
 40
1
 40
1
 40
1
 40
1
 10
222.362005
 20
263.382922
 30
0.0
 10
222.826106
 20
263.650871
 30
0.0
 10
223.112005
 20
264.146061
 30
0.0
 10
223.112005
 20
264.681958
 30
0.0
  0
LWPOLYLINE
  5
1ca
100
AcDbEntity
  8
Layer_1
 62
7
100
AcDbPolyline
 90
1
 70
1
 10
183.112054
 20
264.681958
 30
0.0
  0
SPLINE
  5
1cb
100
AcDbEntity
  8
Layer_1
 62
7
100
AcDbSpline
 70
8
 71
3
 72
8
 73
4
 74
0
 40
0
 40
0
 40
0
 40
0
 40
1
 40
1
 40
1
 40
1
 10
233.111992
 20
264.681958
 30
0.0
 10
233.111992
 20
265.217856
 30
0.0
 10
232.826094
 20
265.713046
 30
0.0
 10
232.361993
 20
265.980995
 30
0.0
  0
SPLINE
  5
1cc
100
AcDbEntity
  8
Layer_1
 62
7
100
AcDbSpline
 70
8
 71
3
 72
8
 73
4
 74
0
 40
0
 40
0
 40
0
 40
0
 40
1
 40
1
 40
1
 40
1
 10
232.361993
 20
265.980995
 30
0.0
 10
231.897892
 20
266.248944
 30
0.0
 10
231.326096
 20
266.248944
 30
0.0
 10
230.861995
 20
265.980995
 30
0.0
  0
SPLINE
  5
1cd
100
AcDbEntity
  8
Layer_1
 62
7
100
AcDbSpline
 70
8
 71
3
 72
8
 73
4
 74
0
 40
0
 40
0
 40
0
 40
0
 40
1
 40
1
 40
1
 40
1
 10
230.861995
 20
265.980995
 30
0.0
 10
230.397894
 20
265.713046
 30
0.0
 10
230.111995
 20
265.217856
 30
0.0
 10
230.111995
 20
264.681958
 30
0.0
  0
SPLINE
  5
1ce
100
AcDbEntity
  8
Layer_1
 62
7
100
AcDbSpline
 70
8
 71
3
 72
8
 73
4
 74
0
 40
0
 40
0
 40
0
 40
0
 40
1
 40
1
 40
1
 40
1
 10
230.111995
 20
264.681958
 30
0.0
 10
230.111995
 20
264.146061
 30
0.0
 10
230.397894
 20
263.650871
 30
0.0
 10
230.861995
 20
263.382922
 30
0.0
  0
SPLINE
  5
1cf
100
AcDbEntity
  8
Layer_1
 62
7
100
AcDbSpline
 70
8
 71
3
 72
8
 73
4
 74
0
 40
0
 40
0
 40
0
 40
0
 40
1
 40
1
 40
1
 40
1
 10
230.861995
 20
263.382922
 30
0.0
 10
231.326096
 20
263.114973
 30
0.0
 10
231.897892
 20
263.114973
 30
0.0
 10
232.361993
 20
263.382922
 30
0.0
  0
SPLINE
  5
1d0
100
AcDbEntity
  8
Layer_1
 62
7
100
AcDbSpline
 70
8
 71
3
 72
8
 73
4
 74
0
 40
0
 40
0
 40
0
 40
0
 40
1
 40
1
 40
1
 40
1
 10
232.361993
 20
263.382922
 30
0.0
 10
232.826094
 20
263.650871
 30
0.0
 10
233.111992
 20
264.146061
 30
0.0
 10
233.111992
 20
264.681958
 30
0.0
  0
LWPOLYLINE
  5
1d1
100
AcDbEntity
  8
Layer_1
 62
7
100
AcDbPolyline
 90
1
 70
1
 10
223.112005
 20
264.681958
 30
0.0
  0
SPLINE
  5
1d2
100
AcDbEntity
  8
Layer_1
 62
7
100
AcDbSpline
 70
8
 71
3
 72
8
 73
4
 74
0
 40
0
 40
0
 40
0
 40
0
 40
1
 40
1
 40
1
 40
1
 10
182.942055
 20
203.792036
 30
0.0
 10
182.941563
 20
204.620114
 30
0.0
 10
182.270135
 20
205.291143
 30
0.0
 10
181.442057
 20
205.291143
 30
0.0
  0
SPLINE
  5
1d3
100
AcDbEntity
  8
Layer_1
 62
7
100
AcDbSpline
 70
8
 71
3
 72
8
 73
4
 74
0
 40
0
 40
0
 40
0
 40
0
 40
1
 40
1
 40
1
 40
1
 10
181.442057
 20
205.291143
 30
0.0
 10
180.613979
 20
205.291143
 30
0.0
 10
179.942551
 20
204.620114
 30
0.0
 10
179.942059
 20
203.792036
 30
0.0
  0
SPLINE
  5
1d4
100
AcDbEntity
  8
Layer_1
 62
7
100
AcDbSpline
 70
8
 71
3
 72
8
 73
4
 74
0
 40
0
 40
0
 40
0
 40
0
 40
1
 40
1
 40
1
 40
1
 10
179.942059
 20
203.792036
 30
0.0
 10
179.942551
 20
202.963958
 30
0.0
 10
180.613979
 20
202.292929
 30
0.0
 10
181.442057
 20
202.292929
 30
0.0
  0
SPLINE
  5
1d5
100
AcDbEntity
  8
Layer_1
 62
7
100
AcDbSpline
 70
8
 71
3
 72
8
 73
4
 74
0
 40
0
 40
0
 40
0
 40
0
 40
1
 40
1
 40
1
 40
1
 10
181.442057
 20
202.292929
 30
0.0
 10
182.270135
 20
202.292929
 30
0.0
 10
182.941563
 20
202.963958
 30
0.0
 10
182.942055
 20
203.792036
 30
0.0
  0
LWPOLYLINE
  5
1d6
100
AcDbEntity
  8
Layer_1
 62
7
100
AcDbPolyline
 90
1
 70
1
 10
233.111992
 20
264.681958
 30
0.0
  0
SPLINE
  5
1d7
100
AcDbEntity
  8
Layer_1
 62
7
100
AcDbSpline
 70
8
 71
3
 72
8
 73
4
 74
0
 40
0
 40
0
 40
0
 40
0
 40
1
 40
1
 40
1
 40
1
 10
241.271982
 20
144.922109
 30
0.0
 10
241.271982
 20
145.458007
 30
0.0
 10
240.986083
 20
145.953197
 30
0.0
 10
240.521982
 20
146.221146
 30
0.0
  0
SPLINE
  5
1d8
100
AcDbEntity
  8
Layer_1
 62
7
100
AcDbSpline
 70
8
 71
3
 72
8
 73
4
 74
0
 40
0
 40
0
 40
0
 40
0
 40
1
 40
1
 40
1
 40
1
 10
240.521982
 20
146.221146
 30
0.0
 10
240.057881
 20
146.489095
 30
0.0
 10
239.486085
 20
146.489095
 30
0.0
 10
239.021984
 20
146.221146
 30
0.0
  0
SPLINE
  5
1d9
100
AcDbEntity
  8
Layer_1
 62
7
100
AcDbSpline
 70
8
 71
3
 72
8
 73
4
 74
0
 40
0
 40
0
 40
0
 40
0
 40
1
 40
1
 40
1
 40
1
 10
239.021984
 20
146.221146
 30
0.0
 10
238.557883
 20
145.953197
 30
0.0
 10
238.271985
 20
145.458007
 30
0.0
 10
238.271985
 20
144.922109
 30
0.0
  0
SPLINE
  5
1da
100
AcDbEntity
  8
Layer_1
 62
7
100
AcDbSpline
 70
8
 71
3
 72
8
 73
4
 74
0
 40
0
 40
0
 40
0
 40
0
 40
1
 40
1
 40
1
 40
1
 10
238.271985
 20
144.922109
 30
0.0
 10
238.271985
 20
144.386212
 30
0.0
 10
238.557883
 20
143.891022
 30
0.0
 10
239.021984
 20
143.623073
 30
0.0
  0
SPLINE
  5
1db
100
AcDbEntity
  8
Layer_1
 62
7
100
AcDbSpline
 70
8
 71
3
 72
8
 73
4
 74
0
 40
0
 40
0
 40
0
 40
0
 40
1
 40
1
 40
1
 40
1
 10
239.021984
 20
143.623073
 30
0.0
 10
239.486085
 20
143.355124
 30
0.0
 10
240.057881
 20
143.355124
 30
0.0
 10
240.521982
 20
143.623073
 30
0.0
  0
SPLINE
  5
1dc
100
AcDbEntity
  8
Layer_1
 62
7
100
AcDbSpline
 70
8
 71
3
 72
8
 73
4
 74
0
 40
0
 40
0
 40
0
 40
0
 40
1
 40
1
 40
1
 40
1
 10
240.521982
 20
143.623073
 30
0.0
 10
240.986083
 20
143.891022
 30
0.0
 10
241.271982
 20
144.386212
 30
0.0
 10
241.271982
 20
144.922109
 30
0.0
  0
LWPOLYLINE
  5
1dd
100
AcDbEntity
  8
Layer_1
 62
7
100
AcDbPolyline
 90
1
 70
1
 10
182.942055
 20
203.792036
 30
0.0
  0
SPLINE
  5
1de
100
AcDbEntity
  8
Layer_1
 62
7
100
AcDbSpline
 70
8
 71
3
 72
8
 73
4
 74
0
 40
0
 40
0
 40
0
 40
0
 40
1
 40
1
 40
1
 40
1
 10
183.312055
 20
144.922109
 30
0.0
 10
183.312055
 20
145.458007
 30
0.0
 10
183.026157
 20
145.953198
 30
0.0
 10
182.562056
 20
146.221147
 30
0.0
  0
SPLINE
  5
1df
100
AcDbEntity
  8
Layer_1
 62
7
100
AcDbSpline
 70
8
 71
3
 72
8
 73
4
 74
0
 40
0
 40
0
 40
0
 40
0
 40
1
 40
1
 40
1
 40
1
 10
182.562056
 20
146.221147
 30
0.0
 10
182.097955
 20
146.489096
 30
0.0
 10
181.526158
 20
146.489096
 30
0.0
 10
181.062057
 20
146.221147
 30
0.0
  0
SPLINE
  5
1e0
100
AcDbEntity
  8
Layer_1
 62
7
100
AcDbSpline
 70
8
 71
3
 72
8
 73
4
 74
0
 40
0
 40
0
 40
0
 40
0
 40
1
 40
1
 40
1
 40
1
 10
181.062057
 20
146.221147
 30
0.0
 10
180.597955
 20
145.953198
 30
0.0
 10
180.312057
 20
145.458007
 30
0.0
 10
180.312057
 20
144.922109
 30
0.0
  0
SPLINE
  5
1e1
100
AcDbEntity
  8
Layer_1
 62
7
100
AcDbSpline
 70
8
 71
3
 72
8
 73
4
 74
0
 40
0
 40
0
 40
0
 40
0
 40
1
 40
1
 40
1
 40
1
 10
180.312057
 20
144.922109
 30
0.0
 10
180.312057
 20
144.386211
 30
0.0
 10
180.597955
 20
143.891021
 30
0.0
 10
181.062057
 20
143.623072
 30
0.0
  0
SPLINE
  5
1e2
100
AcDbEntity
  8
Layer_1
 62
7
100
AcDbSpline
 70
8
 71
3
 72
8
 73
4
 74
0
 40
0
 40
0
 40
0
 40
0
 40
1
 40
1
 40
1
 40
1
 10
181.062057
 20
143.623072
 30
0.0
 10
181.526158
 20
143.355123
 30
0.0
 10
182.097955
 20
143.355123
 30
0.0
 10
182.562056
 20
143.623072
 30
0.0
  0
SPLINE
  5
1e3
100
AcDbEntity
  8
Layer_1
 62
7
100
AcDbSpline
 70
8
 71
3
 72
8
 73
4
 74
0
 40
0
 40
0
 40
0
 40
0
 40
1
 40
1
 40
1
 40
1
 10
182.562056
 20
143.623072
 30
0.0
 10
183.026157
 20
143.891021
 30
0.0
 10
183.312055
 20
144.386211
 30
0.0
 10
183.312055
 20
144.922109
 30
0.0
  0
LWPOLYLINE
  5
1e4
100
AcDbEntity
  8
Layer_1
 62
7
100
AcDbPolyline
 90
1
 70
1
 10
241.271982
 20
144.922109
 30
0.0
  0
SPLINE
  5
1e5
100
AcDbEntity
  8
Layer_1
 62
7
100
AcDbSpline
 70
8
 71
3
 72
8
 73
4
 74
0
 40
0
 40
0
 40
0
 40
0
 40
1
 40
1
 40
1
 40
1
 10
241.271982
 20
203.792036
 30
0.0
 10
241.271982
 20
204.327934
 30
0.0
 10
240.986083
 20
204.823123
 30
0.0
 10
240.521982
 20
205.091072
 30
0.0
  0
SPLINE
  5
1e6
100
AcDbEntity
  8
Layer_1
 62
7
100
AcDbSpline
 70
8
 71
3
 72
8
 73
4
 74
0
 40
0
 40
0
 40
0
 40
0
 40
1
 40
1
 40
1
 40
1
 10
240.521982
 20
205.091072
 30
0.0
 10
240.057881
 20
205.359021
 30
0.0
 10
239.486085
 20
205.359021
 30
0.0
 10
239.021984
 20
205.091072
 30
0.0
  0
SPLINE
  5
1e7
100
AcDbEntity
  8
Layer_1
 62
7
100
AcDbSpline
 70
8
 71
3
 72
8
 73
4
 74
0
 40
0
 40
0
 40
0
 40
0
 40
1
 40
1
 40
1
 40
1
 10
239.021984
 20
205.091072
 30
0.0
 10
238.557883
 20
204.823123
 30
0.0
 10
238.271985
 20
204.327934
 30
0.0
 10
238.271985
 20
203.792036
 30
0.0
  0
SPLINE
  5
1e8
100
AcDbEntity
  8
Layer_1
 62
7
100
AcDbSpline
 70
8
 71
3
 72
8
 73
4
 74
0
 40
0
 40
0
 40
0
 40
0
 40
1
 40
1
 40
1
 40
1
 10
238.271985
 20
203.792036
 30
0.0
 10
238.271985
 20
203.256138
 30
0.0
 10
238.557883
 20
202.760948
 30
0.0
 10
239.021984
 20
202.492999
 30
0.0
  0
SPLINE
  5
1e9
100
AcDbEntity
  8
Layer_1
 62
7
100
AcDbSpline
 70
8
 71
3
 72
8
 73
4
 74
0
 40
0
 40
0
 40
0
 40
0
 40
1
 40
1
 40
1
 40
1
 10
239.021984
 20
202.492999
 30
0.0
 10
239.486085
 20
202.225050
 30
0.0
 10
240.057881
 20
202.225050
 30
0.0
 10
240.521982
 20
202.492999
 30
0.0
  0
SPLINE
  5
1ea
100
AcDbEntity
  8
Layer_1
 62
7
100
AcDbSpline
 70
8
 71
3
 72
8
 73
4
 74
0
 40
0
 40
0
 40
0
 40
0
 40
1
 40
1
 40
1
 40
1
 10
240.521982
 20
202.492999
 30
0.0
 10
240.986083
 20
202.760948
 30
0.0
 10
241.271982
 20
203.256138
 30
0.0
 10
241.271982
 20
203.792036
 30
0.0
  0
LWPOLYLINE
  5
1eb
100
AcDbEntity
  8
Layer_1
 62
7
100
AcDbPolyline
 90
1
 70
1
 10
183.312055
 20
144.922109
 30
0.0
  0
SPLINE
  5
1ec
100
AcDbEntity
  8
Layer_1
 62
7
100
AcDbSpline
 70
8
 71
3
 72
8
 73
4
 74
0
 40
0
 40
0
 40
0
 40
0
 40
1
 40
1
 40
1
 40
1
 10
233.611991
 20
20.352803
 30
0.0
 10
233.611991
 20
21.067333
 30
0.0
 10
233.230794
 20
21.727586
 30
0.0
 10
232.611992
 20
22.084851
 30
0.0
  0
SPLINE
  5
1ed
100
AcDbEntity
  8
Layer_1
 62
7
100
AcDbSpline
 70
8
 71
3
 72
8
 73
4
 74
0
 40
0
 40
0
 40
0
 40
0
 40
1
 40
1
 40
1
 40
1
 10
232.611992
 20
22.084851
 30
0.0
 10
231.993191
 20
22.442117
 30
0.0
 10
231.230796
 20
22.442117
 30
0.0
 10
230.611995
 20
22.084851
 30
0.0
  0
SPLINE
  5
1ee
100
AcDbEntity
  8
Layer_1
 62
7
100
AcDbSpline
 70
8
 71
3
 72
8
 73
4
 74
0
 40
0
 40
0
 40
0
 40
0
 40
1
 40
1
 40
1
 40
1
 10
230.611995
 20
22.084851
 30
0.0
 10
229.993194
 20
21.727586
 30
0.0
 10
229.611996
 20
21.067333
 30
0.0
 10
229.611996
 20
20.352803
 30
0.0
  0
SPLINE
  5
1ef
100
AcDbEntity
  8
Layer_1
 62
7
100
AcDbSpline
 70
8
 71
3
 72
8
 73
4
 74
0
 40
0
 40
0
 40
0
 40
0
 40
1
 40
1
 40
1
 40
1
 10
229.611996
 20
20.352803
 30
0.0
 10
229.611996
 20
19.638273
 30
0.0
 10
229.993194
 20
18.978019
 30
0.0
 10
230.611995
 20
18.620754
 30
0.0
  0
SPLINE
  5
1f0
100
AcDbEntity
  8
Layer_1
 62
7
100
AcDbSpline
 70
8
 71
3
 72
8
 73
4
 74
0
 40
0
 40
0
 40
0
 40
0
 40
1
 40
1
 40
1
 40
1
 10
230.611995
 20
18.620754
 30
0.0
 10
231.230796
 20
18.263489
 30
0.0
 10
231.993191
 20
18.263489
 30
0.0
 10
232.611992
 20
18.620754
 30
0.0
  0
SPLINE
  5
1f1
100
AcDbEntity
  8
Layer_1
 62
7
100
AcDbSpline
 70
8
 71
3
 72
8
 73
4
 74
0
 40
0
 40
0
 40
0
 40
0
 40
1
 40
1
 40
1
 40
1
 10
232.611992
 20
18.620754
 30
0.0
 10
233.230794
 20
18.978019
 30
0.0
 10
233.611991
 20
19.638273
 30
0.0
 10
233.611991
 20
20.352803
 30
0.0
  0
LWPOLYLINE
  5
1f2
100
AcDbEntity
  8
Layer_1
 62
7
100
AcDbPolyline
 90
1
 70
1
 10
241.271982
 20
203.792036
 30
0.0
  0
SPLINE
  5
1f3
100
AcDbEntity
  8
Layer_1
 62
7
100
AcDbSpline
 70
8
 71
3
 72
8
 73
4
 74
0
 40
0
 40
0
 40
0
 40
0
 40
1
 40
1
 40
1
 40
1
 10
223.612004
 20
68.952736
 30
0.0
 10
223.612004
 20
69.667267
 30
0.0
 10
223.230806
 20
70.327520
 30
0.0
 10
222.612005
 20
70.684785
 30
0.0
  0
SPLINE
  5
1f4
100
AcDbEntity
  8
Layer_1
 62
7
100
AcDbSpline
 70
8
 71
3
 72
8
 73
4
 74
0
 40
0
 40
0
 40
0
 40
0
 40
1
 40
1
 40
1
 40
1
 10
222.612005
 20
70.684785
 30
0.0
 10
221.993204
 20
71.042050
 30
0.0
 10
221.230809
 20
71.042050
 30
0.0
 10
220.612008
 20
70.684785
 30
0.0
  0
SPLINE
  5
1f5
100
AcDbEntity
  8
Layer_1
 62
7
100
AcDbSpline
 70
8
 71
3
 72
8
 73
4
 74
0
 40
0
 40
0
 40
0
 40
0
 40
1
 40
1
 40
1
 40
1
 10
220.612008
 20
70.684785
 30
0.0
 10
219.993206
 20
70.327520
 30
0.0
 10
219.612009
 20
69.667267
 30
0.0
 10
219.612009
 20
68.952736
 30
0.0
  0
SPLINE
  5
1f6
100
AcDbEntity
  8
Layer_1
 62
7
100
AcDbSpline
 70
8
 71
3
 72
8
 73
4
 74
0
 40
0
 40
0
 40
0
 40
0
 40
1
 40
1
 40
1
 40
1
 10
219.612009
 20
68.952736
 30
0.0
 10
219.612009
 20
68.238206
 30
0.0
 10
219.993206
 20
67.577953
 30
0.0
 10
220.612008
 20
67.220688
 30
0.0
  0
SPLINE
  5
1f7
100
AcDbEntity
  8
Layer_1
 62
7
100
AcDbSpline
 70
8
 71
3
 72
8
 73
4
 74
0
 40
0
 40
0
 40
0
 40
0
 40
1
 40
1
 40
1
 40
1
 10
220.612008
 20
67.220688
 30
0.0
 10
221.230809
 20
66.863423
 30
0.0
 10
221.993204
 20
66.863423
 30
0.0
 10
222.612005
 20
67.220688
 30
0.0
  0
SPLINE
  5
1f8
100
AcDbEntity
  8
Layer_1
 62
7
100
AcDbSpline
 70
8
 71
3
 72
8
 73
4
 74
0
 40
0
 40
0
 40
0
 40
0
 40
1
 40
1
 40
1
 40
1
 10
222.612005
 20
67.220688
 30
0.0
 10
223.230806
 20
67.577953
 30
0.0
 10
223.612004
 20
68.238206
 30
0.0
 10
223.612004
 20
68.952736
 30
0.0
  0
LWPOLYLINE
  5
1f9
100
AcDbEntity
  8
Layer_1
 62
7
100
AcDbPolyline
 90
1
 70
1
 10
233.611991
 20
20.352803
 30
0.0
  0
SPLINE
  5
1fa
100
AcDbEntity
  8
Layer_1
 62
7
100
AcDbSpline
 70
8
 71
3
 72
8
 73
4
 74
0
 40
0
 40
0
 40
0
 40
0
 40
1
 40
1
 40
1
 40
1
 10
233.611991
 20
68.952736
 30
0.0
 10
233.611991
 20
69.667267
 30
0.0
 10
233.230794
 20
70.327520
 30
0.0
 10
232.611992
 20
70.684785
 30
0.0
  0
SPLINE
  5
1fb
100
AcDbEntity
  8
Layer_1
 62
7
100
AcDbSpline
 70
8
 71
3
 72
8
 73
4
 74
0
 40
0
 40
0
 40
0
 40
0
 40
1
 40
1
 40
1
 40
1
 10
232.611992
 20
70.684785
 30
0.0
 10
231.993191
 20
71.042050
 30
0.0
 10
231.230796
 20
71.042050
 30
0.0
 10
230.611995
 20
70.684785
 30
0.0
  0
SPLINE
  5
1fc
100
AcDbEntity
  8
Layer_1
 62
7
100
AcDbSpline
 70
8
 71
3
 72
8
 73
4
 74
0
 40
0
 40
0
 40
0
 40
0
 40
1
 40
1
 40
1
 40
1
 10
230.611995
 20
70.684785
 30
0.0
 10
229.993194
 20
70.327520
 30
0.0
 10
229.611996
 20
69.667267
 30
0.0
 10
229.611996
 20
68.952736
 30
0.0
  0
SPLINE
  5
1fd
100
AcDbEntity
  8
Layer_1
 62
7
100
AcDbSpline
 70
8
 71
3
 72
8
 73
4
 74
0
 40
0
 40
0
 40
0
 40
0
 40
1
 40
1
 40
1
 40
1
 10
229.611996
 20
68.952736
 30
0.0
 10
229.611996
 20
68.238206
 30
0.0
 10
229.993194
 20
67.577953
 30
0.0
 10
230.611995
 20
67.220688
 30
0.0
  0
SPLINE
  5
1fe
100
AcDbEntity
  8
Layer_1
 62
7
100
AcDbSpline
 70
8
 71
3
 72
8
 73
4
 74
0
 40
0
 40
0
 40
0
 40
0
 40
1
 40
1
 40
1
 40
1
 10
230.611995
 20
67.220688
 30
0.0
 10
231.230796
 20
66.863423
 30
0.0
 10
231.993191
 20
66.863423
 30
0.0
 10
232.611992
 20
67.220688
 30
0.0
  0
SPLINE
  5
1ff
100
AcDbEntity
  8
Layer_1
 62
7
100
AcDbSpline
 70
8
 71
3
 72
8
 73
4
 74
0
 40
0
 40
0
 40
0
 40
0
 40
1
 40
1
 40
1
 40
1
 10
232.611992
 20
67.220688
 30
0.0
 10
233.230794
 20
67.577953
 30
0.0
 10
233.611991
 20
68.238206
 30
0.0
 10
233.611991
 20
68.952736
 30
0.0
  0
LWPOLYLINE
  5
200
100
AcDbEntity
  8
Layer_1
 62
7
100
AcDbPolyline
 90
1
 70
1
 10
223.612004
 20
68.952736
 30
0.0
  0
SPLINE
  5
201
100
AcDbEntity
  8
Layer_1
 62
7
100
AcDbSpline
 70
8
 71
3
 72
8
 73
4
 74
0
 40
0
 40
0
 40
0
 40
0
 40
1
 40
1
 40
1
 40
1
 10
223.612004
 20
20.352803
 30
0.0
 10
223.612004
 20
21.067333
 30
0.0
 10
223.230806
 20
21.727586
 30
0.0
 10
222.612005
 20
22.084851
 30
0.0
  0
SPLINE
  5
202
100
AcDbEntity
  8
Layer_1
 62
7
100
AcDbSpline
 70
8
 71
3
 72
8
 73
4
 74
0
 40
0
 40
0
 40
0
 40
0
 40
1
 40
1
 40
1
 40
1
 10
222.612005
 20
22.084851
 30
0.0
 10
221.993204
 20
22.442117
 30
0.0
 10
221.230809
 20
22.442117
 30
0.0
 10
220.612008
 20
22.084851
 30
0.0
  0
SPLINE
  5
203
100
AcDbEntity
  8
Layer_1
 62
7
100
AcDbSpline
 70
8
 71
3
 72
8
 73
4
 74
0
 40
0
 40
0
 40
0
 40
0
 40
1
 40
1
 40
1
 40
1
 10
220.612008
 20
22.084851
 30
0.0
 10
219.993206
 20
21.727586
 30
0.0
 10
219.612009
 20
21.067333
 30
0.0
 10
219.612009
 20
20.352803
 30
0.0
  0
SPLINE
  5
204
100
AcDbEntity
  8
Layer_1
 62
7
100
AcDbSpline
 70
8
 71
3
 72
8
 73
4
 74
0
 40
0
 40
0
 40
0
 40
0
 40
1
 40
1
 40
1
 40
1
 10
219.612009
 20
20.352803
 30
0.0
 10
219.612009
 20
19.638273
 30
0.0
 10
219.993206
 20
18.978019
 30
0.0
 10
220.612008
 20
18.620754
 30
0.0
  0
SPLINE
  5
205
100
AcDbEntity
  8
Layer_1
 62
7
100
AcDbSpline
 70
8
 71
3
 72
8
 73
4
 74
0
 40
0
 40
0
 40
0
 40
0
 40
1
 40
1
 40
1
 40
1
 10
220.612008
 20
18.620754
 30
0.0
 10
221.230809
 20
18.263489
 30
0.0
 10
221.993204
 20
18.263489
 30
0.0
 10
222.612005
 20
18.620754
 30
0.0
  0
SPLINE
  5
206
100
AcDbEntity
  8
Layer_1
 62
7
100
AcDbSpline
 70
8
 71
3
 72
8
 73
4
 74
0
 40
0
 40
0
 40
0
 40
0
 40
1
 40
1
 40
1
 40
1
 10
222.612005
 20
18.620754
 30
0.0
 10
223.230806
 20
18.978019
 30
0.0
 10
223.612004
 20
19.638273
 30
0.0
 10
223.612004
 20
20.352803
 30
0.0
  0
LWPOLYLINE
  5
207
100
AcDbEntity
  8
Layer_1
 62
7
100
AcDbPolyline
 90
1
 70
1
 10
233.611991
 20
68.952736
 30
0.0
  0
SPLINE
  5
208
100
AcDbEntity
  8
Layer_1
 62
7
100
AcDbSpline
 70
8
 71
3
 72
8
 73
4
 74
0
 40
0
 40
0
 40
0
 40
0
 40
1
 40
1
 40
1
 40
1
 10
288.120914
 20
124.428280
 30
0.0
 10
288.120312
 20
125.256280
 30
0.0
 10
287.448917
 20
125.927187
 30
0.0
 10
286.620917
 20
125.927187
 30
0.0
  0
SPLINE
  5
209
100
AcDbEntity
  8
Layer_1
 62
7
100
AcDbSpline
 70
8
 71
3
 72
8
 73
4
 74
0
 40
0
 40
0
 40
0
 40
0
 40
1
 40
1
 40
1
 40
1
 10
286.620917
 20
125.927187
 30
0.0
 10
285.792917
 20
125.927187
 30
0.0
 10
285.121521
 20
125.256280
 30
0.0
 10
285.120919
 20
124.428280
 30
0.0
  0
SPLINE
  5
20a
100
AcDbEntity
  8
Layer_1
 62
7
100
AcDbSpline
 70
8
 71
3
 72
8
 73
4
 74
0
 40
0
 40
0
 40
0
 40
0
 40
1
 40
1
 40
1
 40
1
 10
285.120919
 20
124.428280
 30
0.0
 10
285.121521
 20
123.600280
 30
0.0
 10
285.792917
 20
122.929373
 30
0.0
 10
286.620917
 20
122.929373
 30
0.0
  0
SPLINE
  5
20b
100
AcDbEntity
  8
Layer_1
 62
7
100
AcDbSpline
 70
8
 71
3
 72
8
 73
4
 74
0
 40
0
 40
0
 40
0
 40
0
 40
1
 40
1
 40
1
 40
1
 10
286.620917
 20
122.929373
 30
0.0
 10
287.448917
 20
122.929373
 30
0.0
 10
288.120312
 20
123.600280
 30
0.0
 10
288.120914
 20
124.428280
 30
0.0
  0
LWPOLYLINE
  5
20c
100
AcDbEntity
  8
Layer_1
 62
7
100
AcDbPolyline
 90
1
 70
1
 10
223.612004
 20
20.352803
 30
0.0
  0
SPLINE
  5
20d
100
AcDbEntity
  8
Layer_1
 62
7
100
AcDbSpline
 70
8
 71
3
 72
8
 73
4
 74
0
 40
0
 40
0
 40
0
 40
0
 40
1
 40
1
 40
1
 40
1
 10
168.121067
 20
182.940220
 30
0.0
 10
168.121067
 20
183.476119
 30
0.0
 10
167.835169
 20
183.971309
 30
0.0
 10
167.371068
 20
184.239258
 30
0.0
  0
SPLINE
  5
20e
100
AcDbEntity
  8
Layer_1
 62
7
100
AcDbSpline
 70
8
 71
3
 72
8
 73
4
 74
0
 40
0
 40
0
 40
0
 40
0
 40
1
 40
1
 40
1
 40
1
 10
167.371068
 20
184.239258
 30
0.0
 10
166.906967
 20
184.507207
 30
0.0
 10
166.335170
 20
184.507207
 30
0.0
 10
165.871069
 20
184.239258
 30
0.0
  0
SPLINE
  5
20f
100
AcDbEntity
  8
Layer_1
 62
7
100
AcDbSpline
 70
8
 71
3
 72
8
 73
4
 74
0
 40
0
 40
0
 40
0
 40
0
 40
1
 40
1
 40
1
 40
1
 10
165.871069
 20
184.239258
 30
0.0
 10
165.406968
 20
183.971309
 30
0.0
 10
165.121069
 20
183.476119
 30
0.0
 10
165.121069
 20
182.940220
 30
0.0
  0
SPLINE
  5
210
100
AcDbEntity
  8
Layer_1
 62
7
100
AcDbSpline
 70
8
 71
3
 72
8
 73
4
 74
0
 40
0
 40
0
 40
0
 40
0
 40
1
 40
1
 40
1
 40
1
 10
165.121069
 20
182.940220
 30
0.0
 10
165.121069
 20
182.404322
 30
0.0
 10
165.406968
 20
181.909132
 30
0.0
 10
165.871069
 20
181.641183
 30
0.0
  0
SPLINE
  5
211
100
AcDbEntity
  8
Layer_1
 62
7
100
AcDbSpline
 70
8
 71
3
 72
8
 73
4
 74
0
 40
0
 40
0
 40
0
 40
0
 40
1
 40
1
 40
1
 40
1
 10
165.871069
 20
181.641183
 30
0.0
 10
166.335170
 20
181.373234
 30
0.0
 10
166.906967
 20
181.373234
 30
0.0
 10
167.371068
 20
181.641183
 30
0.0
  0
SPLINE
  5
212
100
AcDbEntity
  8
Layer_1
 62
7
100
AcDbSpline
 70
8
 71
3
 72
8
 73
4
 74
0
 40
0
 40
0
 40
0
 40
0
 40
1
 40
1
 40
1
 40
1
 10
167.371068
 20
181.641183
 30
0.0
 10
167.835169
 20
181.909132
 30
0.0
 10
168.121067
 20
182.404322
 30
0.0
 10
168.121067
 20
182.940220
 30
0.0
  0
LWPOLYLINE
  5
213
100
AcDbEntity
  8
Layer_1
 62
7
100
AcDbPolyline
 90
1
 70
1
 10
288.120914
 20
124.428280
 30
0.0
  0
SPLINE
  5
214
100
AcDbEntity
  8
Layer_1
 62
7
100
AcDbSpline
 70
8
 71
3
 72
8
 73
4
 74
0
 40
0
 40
0
 40
0
 40
0
 40
1
 40
1
 40
1
 40
1
 10
168.121067
 20
124.428280
 30
0.0
 10
168.121067
 20
124.964178
 30
0.0
 10
167.835169
 20
125.459368
 30
0.0
 10
167.371068
 20
125.727317
 30
0.0
  0
SPLINE
  5
215
100
AcDbEntity
  8
Layer_1
 62
7
100
AcDbSpline
 70
8
 71
3
 72
8
 73
4
 74
0
 40
0
 40
0
 40
0
 40
0
 40
1
 40
1
 40
1
 40
1
 10
167.371068
 20
125.727317
 30
0.0
 10
166.906967
 20
125.995266
 30
0.0
 10
166.335170
 20
125.995266
 30
0.0
 10
165.871069
 20
125.727317
 30
0.0
  0
SPLINE
  5
216
100
AcDbEntity
  8
Layer_1
 62
7
100
AcDbSpline
 70
8
 71
3
 72
8
 73
4
 74
0
 40
0
 40
0
 40
0
 40
0
 40
1
 40
1
 40
1
 40
1
 10
165.871069
 20
125.727317
 30
0.0
 10
165.406968
 20
125.459368
 30
0.0
 10
165.121069
 20
124.964178
 30
0.0
 10
165.121069
 20
124.428280
 30
0.0
  0
SPLINE
  5
217
100
AcDbEntity
  8
Layer_1
 62
7
100
AcDbSpline
 70
8
 71
3
 72
8
 73
4
 74
0
 40
0
 40
0
 40
0
 40
0
 40
1
 40
1
 40
1
 40
1
 10
165.121069
 20
124.428280
 30
0.0
 10
165.121069
 20
123.892382
 30
0.0
 10
165.406968
 20
123.397192
 30
0.0
 10
165.871069
 20
123.129243
 30
0.0
  0
SPLINE
  5
218
100
AcDbEntity
  8
Layer_1
 62
7
100
AcDbSpline
 70
8
 71
3
 72
8
 73
4
 74
0
 40
0
 40
0
 40
0
 40
0
 40
1
 40
1
 40
1
 40
1
 10
165.871069
 20
123.129243
 30
0.0
 10
166.335170
 20
122.861294
 30
0.0
 10
166.906967
 20
122.861294
 30
0.0
 10
167.371068
 20
123.129243
 30
0.0
  0
SPLINE
  5
219
100
AcDbEntity
  8
Layer_1
 62
7
100
AcDbSpline
 70
8
 71
3
 72
8
 73
4
 74
0
 40
0
 40
0
 40
0
 40
0
 40
1
 40
1
 40
1
 40
1
 10
167.371068
 20
123.129243
 30
0.0
 10
167.835169
 20
123.397192
 30
0.0
 10
168.121067
 20
123.892382
 30
0.0
 10
168.121067
 20
124.428280
 30
0.0
  0
LWPOLYLINE
  5
21a
100
AcDbEntity
  8
Layer_1
 62
7
100
AcDbPolyline
 90
1
 70
1
 10
168.121067
 20
182.940220
 30
0.0
  0
SPLINE
  5
21b
100
AcDbEntity
  8
Layer_1
 62
7
100
AcDbSpline
 70
8
 71
3
 72
8
 73
4
 74
0
 40
0
 40
0
 40
0
 40
0
 40
1
 40
1
 40
1
 40
1
 10
288.120914
 20
182.940220
 30
0.0
 10
288.120312
 20
183.768220
 30
0.0
 10
287.448917
 20
184.439127
 30
0.0
 10
286.620917
 20
184.439127
 30
0.0
  0
SPLINE
  5
21c
100
AcDbEntity
  8
Layer_1
 62
7
100
AcDbSpline
 70
8
 71
3
 72
8
 73
4
 74
0
 40
0
 40
0
 40
0
 40
0
 40
1
 40
1
 40
1
 40
1
 10
286.620917
 20
184.439127
 30
0.0
 10
285.792917
 20
184.439127
 30
0.0
 10
285.121521
 20
183.768220
 30
0.0
 10
285.120919
 20
182.940220
 30
0.0
  0
SPLINE
  5
21d
100
AcDbEntity
  8
Layer_1
 62
7
100
AcDbSpline
 70
8
 71
3
 72
8
 73
4
 74
0
 40
0
 40
0
 40
0
 40
0
 40
1
 40
1
 40
1
 40
1
 10
285.120919
 20
182.940220
 30
0.0
 10
285.121521
 20
182.112221
 30
0.0
 10
285.792917
 20
181.441313
 30
0.0
 10
286.620917
 20
181.441313
 30
0.0
  0
SPLINE
  5
21e
100
AcDbEntity
  8
Layer_1
 62
7
100
AcDbSpline
 70
8
 71
3
 72
8
 73
4
 74
0
 40
0
 40
0
 40
0
 40
0
 40
1
 40
1
 40
1
 40
1
 10
286.620917
 20
181.441313
 30
0.0
 10
287.448917
 20
181.441313
 30
0.0
 10
288.120312
 20
182.112221
 30
0.0
 10
288.120914
 20
182.940220
 30
0.0
  0
LWPOLYLINE
  5
21f
100
AcDbEntity
  8
Layer_1
 62
7
100
AcDbPolyline
 90
1
 70
1
 10
168.121067
 20
124.428280
 30
0.0
  0
SPLINE
  5
220
100
AcDbEntity
  8
Layer_1
 62
7
100
AcDbSpline
 70
8
 71
3
 72
8
 73
4
 74
0
 40
0
 40
0
 40
0
 40
0
 40
1
 40
1
 40
1
 40
1
 10
199.112034
 20
100.102696
 30
0.0
 10
199.112034
 20
100.995859
 30
0.0
 10
198.635537
 20
101.821176
 30
0.0
 10
197.862036
 20
102.267757
 30
0.0
  0
SPLINE
  5
221
100
AcDbEntity
  8
Layer_1
 62
7
100
AcDbSpline
 70
8
 71
3
 72
8
 73
4
 74
0
 40
0
 40
0
 40
0
 40
0
 40
1
 40
1
 40
1
 40
1
 10
197.862036
 20
102.267757
 30
0.0
 10
197.088534
 20
102.714339
 30
0.0
 10
196.135540
 20
102.714339
 30
0.0
 10
195.362038
 20
102.267757
 30
0.0
  0
SPLINE
  5
222
100
AcDbEntity
  8
Layer_1
 62
7
100
AcDbSpline
 70
8
 71
3
 72
8
 73
4
 74
0
 40
0
 40
0
 40
0
 40
0
 40
1
 40
1
 40
1
 40
1
 10
195.362038
 20
102.267757
 30
0.0
 10
194.588537
 20
101.821176
 30
0.0
 10
194.112040
 20
100.995859
 30
0.0
 10
194.112040
 20
100.102696
 30
0.0
  0
SPLINE
  5
223
100
AcDbEntity
  8
Layer_1
 62
7
100
AcDbSpline
 70
8
 71
3
 72
8
 73
4
 74
0
 40
0
 40
0
 40
0
 40
0
 40
1
 40
1
 40
1
 40
1
 10
194.112040
 20
100.102696
 30
0.0
 10
194.112040
 20
99.209533
 30
0.0
 10
194.588537
 20
98.384217
 30
0.0
 10
195.362038
 20
97.937635
 30
0.0
  0
SPLINE
  5
224
100
AcDbEntity
  8
Layer_1
 62
7
100
AcDbSpline
 70
8
 71
3
 72
8
 73
4
 74
0
 40
0
 40
0
 40
0
 40
0
 40
1
 40
1
 40
1
 40
1
 10
195.362038
 20
97.937635
 30
0.0
 10
196.135540
 20
97.491054
 30
0.0
 10
197.088534
 20
97.491054
 30
0.0
 10
197.862036
 20
97.937635
 30
0.0
  0
SPLINE
  5
225
100
AcDbEntity
  8
Layer_1
 62
7
100
AcDbSpline
 70
8
 71
3
 72
8
 73
4
 74
0
 40
0
 40
0
 40
0
 40
0
 40
1
 40
1
 40
1
 40
1
 10
197.862036
 20
97.937635
 30
0.0
 10
198.635537
 20
98.384217
 30
0.0
 10
199.112034
 20
99.209533
 30
0.0
 10
199.112034
 20
100.102696
 30
0.0
  0
LWPOLYLINE
  5
226
100
AcDbEntity
  8
Layer_1
 62
7
100
AcDbPolyline
 90
1
 70
1
 10
288.120914
 20
182.940220
 30
0.0
  0
SPLINE
  5
227
100
AcDbEntity
  8
Layer_1
 62
7
100
AcDbSpline
 70
8
 71
3
 72
8
 73
4
 74
0
 40
0
 40
0
 40
0
 40
0
 40
1
 40
1
 40
1
 40
1
 10
259.111960
 20
100.102696
 30
0.0
 10
259.111960
 20
100.995859
 30
0.0
 10
258.635463
 20
101.821176
 30
0.0
 10
257.861962
 20
102.267757
 30
0.0
  0
SPLINE
  5
228
100
AcDbEntity
  8
Layer_1
 62
7
100
AcDbSpline
 70
8
 71
3
 72
8
 73
4
 74
0
 40
0
 40
0
 40
0
 40
0
 40
1
 40
1
 40
1
 40
1
 10
257.861962
 20
102.267757
 30
0.0
 10
257.088460
 20
102.714339
 30
0.0
 10
256.135466
 20
102.714339
 30
0.0
 10
255.361964
 20
102.267757
 30
0.0
  0
SPLINE
  5
229
100
AcDbEntity
  8
Layer_1
 62
7
100
AcDbSpline
 70
8
 71
3
 72
8
 73
4
 74
0
 40
0
 40
0
 40
0
 40
0
 40
1
 40
1
 40
1
 40
1
 10
255.361964
 20
102.267757
 30
0.0
 10
254.588463
 20
101.821176
 30
0.0
 10
254.111966
 20
100.995859
 30
0.0
 10
254.111966
 20
100.102696
 30
0.0
  0
SPLINE
  5
22a
100
AcDbEntity
  8
Layer_1
 62
7
100
AcDbSpline
 70
8
 71
3
 72
8
 73
4
 74
0
 40
0
 40
0
 40
0
 40
0
 40
1
 40
1
 40
1
 40
1
 10
254.111966
 20
100.102696
 30
0.0
 10
254.111966
 20
99.209533
 30
0.0
 10
254.588463
 20
98.384217
 30
0.0
 10
255.361964
 20
97.937635
 30
0.0
  0
SPLINE
  5
22b
100
AcDbEntity
  8
Layer_1
 62
7
100
AcDbSpline
 70
8
 71
3
 72
8
 73
4
 74
0
 40
0
 40
0
 40
0
 40
0
 40
1
 40
1
 40
1
 40
1
 10
255.361964
 20
97.937635
 30
0.0
 10
256.135466
 20
97.491054
 30
0.0
 10
257.088460
 20
97.491054
 30
0.0
 10
257.861962
 20
97.937635
 30
0.0
  0
SPLINE
  5
22c
100
AcDbEntity
  8
Layer_1
 62
7
100
AcDbSpline
 70
8
 71
3
 72
8
 73
4
 74
0
 40
0
 40
0
 40
0
 40
0
 40
1
 40
1
 40
1
 40
1
 10
257.861962
 20
97.937635
 30
0.0
 10
258.635463
 20
98.384217
 30
0.0
 10
259.111960
 20
99.209533
 30
0.0
 10
259.111960
 20
100.102696
 30
0.0
  0
LWPOLYLINE
  5
22d
100
AcDbEntity
  8
Layer_1
 62
7
100
AcDbPolyline
 90
1
 70
1
 10
199.112034
 20
100.102696
 30
0.0
  0
SPLINE
  5
22e
100
AcDbEntity
  8
Layer_1
 62
7
100
AcDbSpline
 70
8
 71
3
 72
8
 73
4
 74
0
 40
0
 40
0
 40
0
 40
0
 40
1
 40
1
 40
1
 40
1
 10
203.112030
 20
55.102753
 30
0.0
 10
203.112030
 20
55.638651
 30
0.0
 10
202.826132
 20
56.133841
 30
0.0
 10
202.362031
 20
56.401789
 30
0.0
  0
SPLINE
  5
22f
100
AcDbEntity
  8
Layer_1
 62
7
100
AcDbSpline
 70
8
 71
3
 72
8
 73
4
 74
0
 40
0
 40
0
 40
0
 40
0
 40
1
 40
1
 40
1
 40
1
 10
202.362031
 20
56.401789
 30
0.0
 10
201.897929
 20
56.669738
 30
0.0
 10
201.326133
 20
56.669738
 30
0.0
 10
200.862032
 20
56.401789
 30
0.0
  0
SPLINE
  5
230
100
AcDbEntity
  8
Layer_1
 62
7
100
AcDbSpline
 70
8
 71
3
 72
8
 73
4
 74
0
 40
0
 40
0
 40
0
 40
0
 40
1
 40
1
 40
1
 40
1
 10
200.862032
 20
56.401789
 30
0.0
 10
200.397931
 20
56.133841
 30
0.0
 10
200.112033
 20
55.638651
 30
0.0
 10
200.112033
 20
55.102753
 30
0.0
  0
SPLINE
  5
231
100
AcDbEntity
  8
Layer_1
 62
7
100
AcDbSpline
 70
8
 71
3
 72
8
 73
4
 74
0
 40
0
 40
0
 40
0
 40
0
 40
1
 40
1
 40
1
 40
1
 10
200.112033
 20
55.102753
 30
0.0
 10
200.112033
 20
54.566855
 30
0.0
 10
200.397931
 20
54.071665
 30
0.0
 10
200.862032
 20
53.803717
 30
0.0
  0
SPLINE
  5
232
100
AcDbEntity
  8
Layer_1
 62
7
100
AcDbSpline
 70
8
 71
3
 72
8
 73
4
 74
0
 40
0
 40
0
 40
0
 40
0
 40
1
 40
1
 40
1
 40
1
 10
200.862032
 20
53.803717
 30
0.0
 10
201.326133
 20
53.535768
 30
0.0
 10
201.897929
 20
53.535768
 30
0.0
 10
202.362031
 20
53.803717
 30
0.0
  0
SPLINE
  5
233
100
AcDbEntity
  8
Layer_1
 62
7
100
AcDbSpline
 70
8
 71
3
 72
8
 73
4
 74
0
 40
0
 40
0
 40
0
 40
0
 40
1
 40
1
 40
1
 40
1
 10
202.362031
 20
53.803717
 30
0.0
 10
202.826132
 20
54.071665
 30
0.0
 10
203.112030
 20
54.566855
 30
0.0
 10
203.112030
 20
55.102753
 30
0.0
  0
LWPOLYLINE
  5
234
100
AcDbEntity
  8
Layer_1
 62
7
100
AcDbPolyline
 90
1
 70
1
 10
259.111960
 20
100.102696
 30
0.0
  0
SPLINE
  5
235
100
AcDbEntity
  8
Layer_1
 62
7
100
AcDbSpline
 70
8
 71
3
 72
8
 73
4
 74
0
 40
0
 40
0
 40
0
 40
0
 40
1
 40
1
 40
1
 40
1
 10
253.111967
 20
55.102753
 30
0.0
 10
253.111967
 20
55.638651
 30
0.0
 10
252.826069
 20
56.133841
 30
0.0
 10
252.361968
 20
56.401789
 30
0.0
  0
SPLINE
  5
236
100
AcDbEntity
  8
Layer_1
 62
7
100
AcDbSpline
 70
8
 71
3
 72
8
 73
4
 74
0
 40
0
 40
0
 40
0
 40
0
 40
1
 40
1
 40
1
 40
1
 10
252.361968
 20
56.401789
 30
0.0
 10
251.897867
 20
56.669738
 30
0.0
 10
251.326071
 20
56.669738
 30
0.0
 10
250.861969
 20
56.401789
 30
0.0
  0
SPLINE
  5
237
100
AcDbEntity
  8
Layer_1
 62
7
100
AcDbSpline
 70
8
 71
3
 72
8
 73
4
 74
0
 40
0
 40
0
 40
0
 40
0
 40
1
 40
1
 40
1
 40
1
 10
250.861969
 20
56.401789
 30
0.0
 10
250.397868
 20
56.133841
 30
0.0
 10
250.111970
 20
55.638651
 30
0.0
 10
250.111970
 20
55.102753
 30
0.0
  0
SPLINE
  5
238
100
AcDbEntity
  8
Layer_1
 62
7
100
AcDbSpline
 70
8
 71
3
 72
8
 73
4
 74
0
 40
0
 40
0
 40
0
 40
0
 40
1
 40
1
 40
1
 40
1
 10
250.111970
 20
55.102753
 30
0.0
 10
250.111970
 20
54.566855
 30
0.0
 10
250.397868
 20
54.071665
 30
0.0
 10
250.861969
 20
53.803717
 30
0.0
  0
SPLINE
  5
239
100
AcDbEntity
  8
Layer_1
 62
7
100
AcDbSpline
 70
8
 71
3
 72
8
 73
4
 74
0
 40
0
 40
0
 40
0
 40
0
 40
1
 40
1
 40
1
 40
1
 10
250.861969
 20
53.803717
 30
0.0
 10
251.326071
 20
53.535768
 30
0.0
 10
251.897867
 20
53.535768
 30
0.0
 10
252.361968
 20
53.803717
 30
0.0
  0
SPLINE
  5
23a
100
AcDbEntity
  8
Layer_1
 62
7
100
AcDbSpline
 70
8
 71
3
 72
8
 73
4
 74
0
 40
0
 40
0
 40
0
 40
0
 40
1
 40
1
 40
1
 40
1
 10
252.361968
 20
53.803717
 30
0.0
 10
252.826069
 20
54.071665
 30
0.0
 10
253.111967
 20
54.566855
 30
0.0
 10
253.111967
 20
55.102753
 30
0.0
  0
LWPOLYLINE
  5
23b
100
AcDbEntity
  8
Layer_1
 62
7
100
AcDbPolyline
 90
1
 70
1
 10
203.112030
 20
55.102753
 30
0.0
  0
SPLINE
  5
23c
100
AcDbEntity
  8
Layer_1
 62
7
100
AcDbSpline
 70
8
 71
3
 72
8
 73
4
 74
0
 40
0
 40
0
 40
0
 40
0
 40
1
 40
1
 40
1
 40
1
 10
251.155122
 20
23.506553
 30
0.0
 10
251.155122
 20
24.334979
 30
0.0
 10
250.483550
 20
25.006551
 30
0.0
 10
249.655124
 20
25.006551
 30
0.0
  0
SPLINE
  5
23d
100
AcDbEntity
  8
Layer_1
 62
7
100
AcDbSpline
 70
8
 71
3
 72
8
 73
4
 74
0
 40
0
 40
0
 40
0
 40
0
 40
1
 40
1
 40
1
 40
1
 10
249.655124
 20
25.006551
 30
0.0
 10
248.826698
 20
25.006551
 30
0.0
 10
248.155126
 20
24.334979
 30
0.0
 10
248.155126
 20
23.506553
 30
0.0
  0
SPLINE
  5
23e
100
AcDbEntity
  8
Layer_1
 62
7
100
AcDbSpline
 70
8
 71
3
 72
8
 73
4
 74
0
 40
0
 40
0
 40
0
 40
0
 40
1
 40
1
 40
1
 40
1
 10
248.155126
 20
23.506553
 30
0.0
 10
248.155126
 20
22.678127
 30
0.0
 10
248.826698
 20
22.006555
 30
0.0
 10
249.655124
 20
22.006555
 30
0.0
  0
SPLINE
  5
23f
100
AcDbEntity
  8
Layer_1
 62
7
100
AcDbSpline
 70
8
 71
3
 72
8
 73
4
 74
0
 40
0
 40
0
 40
0
 40
0
 40
1
 40
1
 40
1
 40
1
 10
249.655124
 20
22.006555
 30
0.0
 10
250.483550
 20
22.006555
 30
0.0
 10
251.155122
 20
22.678127
 30
0.0
 10
251.155122
 20
23.506553
 30
0.0
  0
LWPOLYLINE
  5
240
100
AcDbEntity
  8
Layer_1
 62
7
100
AcDbPolyline
 90
1
 70
1
 10
253.111967
 20
55.102753
 30
0.0
  0
SPLINE
  5
241
100
AcDbEntity
  8
Layer_1
 62
7
100
AcDbSpline
 70
8
 71
3
 72
8
 73
4
 74
0
 40
0
 40
0
 40
0
 40
0
 40
1
 40
1
 40
1
 40
1
 10
192.588137
 20
31.827053
 30
0.0
 10
192.588137
 20
32.362951
 30
0.0
 10
192.302239
 20
32.858141
 30
0.0
 10
191.838137
 20
33.126090
 30
0.0
  0
SPLINE
  5
242
100
AcDbEntity
  8
Layer_1
 62
7
100
AcDbSpline
 70
8
 71
3
 72
8
 73
4
 74
0
 40
0
 40
0
 40
0
 40
0
 40
1
 40
1
 40
1
 40
1
 10
191.838137
 20
33.126090
 30
0.0
 10
191.374036
 20
33.394039
 30
0.0
 10
190.802240
 20
33.394039
 30
0.0
 10
190.338138
 20
33.126090
 30
0.0
  0
SPLINE
  5
243
100
AcDbEntity
  8
Layer_1
 62
7
100
AcDbSpline
 70
8
 71
3
 72
8
 73
4
 74
0
 40
0
 40
0
 40
0
 40
0
 40
1
 40
1
 40
1
 40
1
 10
190.338138
 20
33.126090
 30
0.0
 10
189.874037
 20
32.858141
 30
0.0
 10
189.588139
 20
32.362951
 30
0.0
 10
189.588139
 20
31.827053
 30
0.0
  0
SPLINE
  5
244
100
AcDbEntity
  8
Layer_1
 62
7
100
AcDbSpline
 70
8
 71
3
 72
8
 73
4
 74
0
 40
0
 40
0
 40
0
 40
0
 40
1
 40
1
 40
1
 40
1
 10
189.588139
 20
31.827053
 30
0.0
 10
189.588139
 20
31.291155
 30
0.0
 10
189.874037
 20
30.795965
 30
0.0
 10
190.338138
 20
30.528016
 30
0.0
  0
SPLINE
  5
245
100
AcDbEntity
  8
Layer_1
 62
7
100
AcDbSpline
 70
8
 71
3
 72
8
 73
4
 74
0
 40
0
 40
0
 40
0
 40
0
 40
1
 40
1
 40
1
 40
1
 10
190.338138
 20
30.528016
 30
0.0
 10
190.802240
 20
30.260067
 30
0.0
 10
191.374036
 20
30.260067
 30
0.0
 10
191.838137
 20
30.528016
 30
0.0
  0
SPLINE
  5
246
100
AcDbEntity
  8
Layer_1
 62
7
100
AcDbSpline
 70
8
 71
3
 72
8
 73
4
 74
0
 40
0
 40
0
 40
0
 40
0
 40
1
 40
1
 40
1
 40
1
 10
191.838137
 20
30.528016
 30
0.0
 10
192.302239
 20
30.795965
 30
0.0
 10
192.588137
 20
31.291155
 30
0.0
 10
192.588137
 20
31.827053
 30
0.0
  0
LWPOLYLINE
  5
247
100
AcDbEntity
  8
Layer_1
 62
7
100
AcDbPolyline
 90
1
 70
1
 10
251.155122
 20
23.506553
 30
0.0
  0
SPLINE
  5
248
100
AcDbEntity
  8
Layer_1
 62
7
100
AcDbSpline
 70
8
 71
3
 72
8
 73
4
 74
0
 40
0
 40
0
 40
0
 40
0
 40
1
 40
1
 40
1
 40
1
 10
205.068874
 20
23.506553
 30
0.0
 10
205.068874
 20
24.334979
 30
0.0
 10
204.397302
 20
25.006551
 30
0.0
 10
203.568876
 20
25.006551
 30
0.0
  0
SPLINE
  5
249
100
AcDbEntity
  8
Layer_1
 62
7
100
AcDbSpline
 70
8
 71
3
 72
8
 73
4
 74
0
 40
0
 40
0
 40
0
 40
0
 40
1
 40
1
 40
1
 40
1
 10
203.568876
 20
25.006551
 30
0.0
 10
202.740450
 20
25.006551
 30
0.0
 10
202.068878
 20
24.334979
 30
0.0
 10
202.068878
 20
23.506553
 30
0.0
  0
SPLINE
  5
24a
100
AcDbEntity
  8
Layer_1
 62
7
100
AcDbSpline
 70
8
 71
3
 72
8
 73
4
 74
0
 40
0
 40
0
 40
0
 40
0
 40
1
 40
1
 40
1
 40
1
 10
202.068878
 20
23.506553
 30
0.0
 10
202.068878
 20
22.678127
 30
0.0
 10
202.740450
 20
22.006555
 30
0.0
 10
203.568876
 20
22.006555
 30
0.0
  0
SPLINE
  5
24b
100
AcDbEntity
  8
Layer_1
 62
7
100
AcDbSpline
 70
8
 71
3
 72
8
 73
4
 74
0
 40
0
 40
0
 40
0
 40
0
 40
1
 40
1
 40
1
 40
1
 10
203.568876
 20
22.006555
 30
0.0
 10
204.397302
 20
22.006555
 30
0.0
 10
205.068874
 20
22.678127
 30
0.0
 10
205.068874
 20
23.506553
 30
0.0
  0
LWPOLYLINE
  5
24c
100
AcDbEntity
  8
Layer_1
 62
7
100
AcDbPolyline
 90
1
 70
1
 10
192.588137
 20
31.827053
 30
0.0
  0
SPLINE
  5
24d
100
AcDbEntity
  8
Layer_1
 62
7
100
AcDbSpline
 70
8
 71
3
 72
8
 73
4
 74
0
 40
0
 40
0
 40
0
 40
0
 40
1
 40
1
 40
1
 40
1
 10
263.635861
 20
31.827053
 30
0.0
 10
263.635861
 20
32.362951
 30
0.0
 10
263.349963
 20
32.858141
 30
0.0
 10
262.885862
 20
33.126090
 30
0.0
  0
SPLINE
  5
24e
100
AcDbEntity
  8
Layer_1
 62
7
100
AcDbSpline
 70
8
 71
3
 72
8
 73
4
 74
0
 40
0
 40
0
 40
0
 40
0
 40
1
 40
1
 40
1
 40
1
 10
262.885862
 20
33.126090
 30
0.0
 10
262.421760
 20
33.394039
 30
0.0
 10
261.849964
 20
33.394039
 30
0.0
 10
261.385863
 20
33.126090
 30
0.0
  0
SPLINE
  5
24f
100
AcDbEntity
  8
Layer_1
 62
7
100
AcDbSpline
 70
8
 71
3
 72
8
 73
4
 74
0
 40
0
 40
0
 40
0
 40
0
 40
1
 40
1
 40
1
 40
1
 10
261.385863
 20
33.126090
 30
0.0
 10
260.921761
 20
32.858141
 30
0.0
 10
260.635863
 20
32.362951
 30
0.0
 10
260.635863
 20
31.827053
 30
0.0
  0
SPLINE
  5
250
100
AcDbEntity
  8
Layer_1
 62
7
100
AcDbSpline
 70
8
 71
3
 72
8
 73
4
 74
0
 40
0
 40
0
 40
0
 40
0
 40
1
 40
1
 40
1
 40
1
 10
260.635863
 20
31.827053
 30
0.0
 10
260.635863
 20
31.291155
 30
0.0
 10
260.921761
 20
30.795965
 30
0.0
 10
261.385863
 20
30.528016
 30
0.0
  0
SPLINE
  5
251
100
AcDbEntity
  8
Layer_1
 62
7
100
AcDbSpline
 70
8
 71
3
 72
8
 73
4
 74
0
 40
0
 40
0
 40
0
 40
0
 40
1
 40
1
 40
1
 40
1
 10
261.385863
 20
30.528016
 30
0.0
 10
261.849964
 20
30.260067
 30
0.0
 10
262.421760
 20
30.260067
 30
0.0
 10
262.885862
 20
30.528016
 30
0.0
  0
SPLINE
  5
252
100
AcDbEntity
  8
Layer_1
 62
7
100
AcDbSpline
 70
8
 71
3
 72
8
 73
4
 74
0
 40
0
 40
0
 40
0
 40
0
 40
1
 40
1
 40
1
 40
1
 10
262.885862
 20
30.528016
 30
0.0
 10
263.349963
 20
30.795965
 30
0.0
 10
263.635861
 20
31.291155
 30
0.0
 10
263.635861
 20
31.827053
 30
0.0
  0
LWPOLYLINE
  5
253
100
AcDbEntity
  8
Layer_1
 62
7
100
AcDbPolyline
 90
1
 70
1
 10
205.068874
 20
23.506553
 30
0.0
  0
SPLINE
  5
254
100
AcDbEntity
  8
Layer_1
 62
7
100
AcDbSpline
 70
8
 71
3
 72
8
 73
4
 74
0
 40
0
 40
0
 40
0
 40
0
 40
1
 40
1
 40
1
 40
1
 10
240.111983
 20
18.529641
 30
0.0
 10
240.111983
 20
19.065538
 30
0.0
 10
239.826085
 20
19.560728
 30
0.0
 10
239.361984
 20
19.828677
 30
0.0
  0
SPLINE
  5
255
100
AcDbEntity
  8
Layer_1
 62
7
100
AcDbSpline
 70
8
 71
3
 72
8
 73
4
 74
0
 40
0
 40
0
 40
0
 40
0
 40
1
 40
1
 40
1
 40
1
 10
239.361984
 20
19.828677
 30
0.0
 10
238.897883
 20
20.096626
 30
0.0
 10
238.326087
 20
20.096626
 30
0.0
 10
237.861986
 20
19.828677
 30
0.0
  0
SPLINE
  5
256
100
AcDbEntity
  8
Layer_1
 62
7
100
AcDbSpline
 70
8
 71
3
 72
8
 73
4
 74
0
 40
0
 40
0
 40
0
 40
0
 40
1
 40
1
 40
1
 40
1
 10
237.861986
 20
19.828677
 30
0.0
 10
237.397885
 20
19.560728
 30
0.0
 10
237.111987
 20
19.065538
 30
0.0
 10
237.111987
 20
18.529641
 30
0.0
  0
SPLINE
  5
257
100
AcDbEntity
  8
Layer_1
 62
7
100
AcDbSpline
 70
8
 71
3
 72
8
 73
4
 74
0
 40
0
 40
0
 40
0
 40
0
 40
1
 40
1
 40
1
 40
1
 10
237.111987
 20
18.529641
 30
0.0
 10
237.111987
 20
17.701215
 30
0.0
 10
237.783559
 20
17.029643
 30
0.0
 10
238.611985
 20
17.029643
 30
0.0
  0
SPLINE
  5
258
100
AcDbEntity
  8
Layer_1
 62
7
100
AcDbSpline
 70
8
 71
3
 72
8
 73
4
 74
0
 40
0
 40
0
 40
0
 40
0
 40
1
 40
1
 40
1
 40
1
 10
238.611985
 20
17.029643
 30
0.0
 10
239.440411
 20
17.029643
 30
0.0
 10
240.111983
 20
17.701215
 30
0.0
 10
240.111983
 20
18.529641
 30
0.0
  0
LWPOLYLINE
  5
259
100
AcDbEntity
  8
Layer_1
 62
7
100
AcDbPolyline
 90
1
 70
1
 10
263.635861
 20
31.827053
 30
0.0
  0
SPLINE
  5
25a
100
AcDbEntity
  8
Layer_1
 62
7
100
AcDbSpline
 70
8
 71
3
 72
8
 73
4
 74
0
 40
0
 40
0
 40
0
 40
0
 40
1
 40
1
 40
1
 40
1
 10
216.112013
 20
18.529641
 30
0.0
 10
216.112013
 20
19.065538
 30
0.0
 10
215.826115
 20
19.560728
 30
0.0
 10
215.362014
 20
19.828677
 30
0.0
  0
SPLINE
  5
25b
100
AcDbEntity
  8
Layer_1
 62
7
100
AcDbSpline
 70
8
 71
3
 72
8
 73
4
 74
0
 40
0
 40
0
 40
0
 40
0
 40
1
 40
1
 40
1
 40
1
 10
215.362014
 20
19.828677
 30
0.0
 10
214.897913
 20
20.096626
 30
0.0
 10
214.326117
 20
20.096626
 30
0.0
 10
213.862016
 20
19.828677
 30
0.0
  0
SPLINE
  5
25c
100
AcDbEntity
  8
Layer_1
 62
7
100
AcDbSpline
 70
8
 71
3
 72
8
 73
4
 74
0
 40
0
 40
0
 40
0
 40
0
 40
1
 40
1
 40
1
 40
1
 10
213.862016
 20
19.828677
 30
0.0
 10
213.397915
 20
19.560728
 30
0.0
 10
213.112017
 20
19.065538
 30
0.0
 10
213.112017
 20
18.529641
 30
0.0
  0
SPLINE
  5
25d
100
AcDbEntity
  8
Layer_1
 62
7
100
AcDbSpline
 70
8
 71
3
 72
8
 73
4
 74
0
 40
0
 40
0
 40
0
 40
0
 40
1
 40
1
 40
1
 40
1
 10
213.112017
 20
18.529641
 30
0.0
 10
213.112017
 20
17.701215
 30
0.0
 10
213.783589
 20
17.029643
 30
0.0
 10
214.612015
 20
17.029643
 30
0.0
  0
SPLINE
  5
25e
100
AcDbEntity
  8
Layer_1
 62
7
100
AcDbSpline
 70
8
 71
3
 72
8
 73
4
 74
0
 40
0
 40
0
 40
0
 40
0
 40
1
 40
1
 40
1
 40
1
 10
214.612015
 20
17.029643
 30
0.0
 10
215.440441
 20
17.029643
 30
0.0
 10
216.112013
 20
17.701215
 30
0.0
 10
216.112013
 20
18.529641
 30
0.0
  0
LWPOLYLINE
  5
25f
100
AcDbEntity
  8
Layer_1
 62
7
100
AcDbPolyline
 90
1
 70
1
 10
240.111983
 20
18.529641
 30
0.0
  0
LWPOLYLINE
  5
260
100
AcDbEntity
  8
Layer_1
 62
7
100
AcDbPolyline
 90
1
 70
1
 10
216.112013
 20
18.529641
 30
0.0
  0
LWPOLYLINE
  5
261
100
AcDbEntity
  8
Layer_1
 62
7
100
AcDbPolyline
 90
2
 70
0
 10
221.612016
 20
8.529197
 30
0.0
 10
221.612016
 20
13.529816
 30
0.0
  0
LWPOLYLINE
  5
262
100
AcDbEntity
  8
Layer_1
 62
7
100
AcDbPolyline
 90
2
 70
0
 10
211.612022
 20
8.529197
 30
0.0
 10
221.612016
 20
8.529197
 30
0.0
  0
LWPOLYLINE
  5
263
100
AcDbEntity
  8
Layer_1
 62
7
100
AcDbPolyline
 90
2
 70
0
 10
172.873341
 20
34.355144
 30
0.0
 10
211.612022
 20
8.529197
 30
0.0
  0
LWPOLYLINE
  5
264
100
AcDbEntity
  8
Layer_1
 62
7
100
AcDbPolyline
 90
2
 70
0
 10
172.873341
 20
47.602815
 30
0.0
 10
172.873341
 20
34.355144
 30
0.0
  0
LWPOLYLINE
  5
265
100
AcDbEntity
  8
Layer_1
 62
7
100
AcDbPolyline
 90
2
 70
0
 10
172.873341
 20
89.931067
 30
0.0
 10
172.873341
 20
62.602819
 30
0.0
  0
LWPOLYLINE
  5
266
100
AcDbEntity
  8
Layer_1
 62
7
100
AcDbPolyline
 90
2
 70
0
 10
172.873341
 20
89.931067
 30
0.0
 10
158.771067
 20
101.683051
 30
0.0
  0
LWPOLYLINE
  5
267
100
AcDbEntity
  8
Layer_1
 62
7
100
AcDbPolyline
 90
2
 70
0
 10
156.612069
 20
106.292351
 30
0.0
 10
156.612069
 20
202.482030
 30
0.0
  0
LWPOLYLINE
  5
268
100
AcDbEntity
  8
Layer_1
 62
7
100
AcDbPolyline
 90
2
 70
0
 10
170.611950
 20
208.481979
 30
0.0
 10
162.612018
 20
208.481979
 30
0.0
  0
LWPOLYLINE
  5
269
100
AcDbEntity
  8
Layer_1
 62
7
100
AcDbPolyline
 90
2
 70
0
 10
176.612163
 20
214.481927
 30
0.0
 10
176.612163
 20
277.482050
 30
0.0
  0
LWPOLYLINE
  5
26a
100
AcDbEntity
  8
Layer_1
 62
7
100
AcDbPolyline
 90
2
 70
0
 10
270.611888
 20
283.481999
 30
0.0
 10
182.612112
 20
283.481999
 30
0.0
  0
LWPOLYLINE
  5
26b
100
AcDbEntity
  8
Layer_1
 62
7
100
AcDbPolyline
 90
2
 70
0
 10
276.611837
 20
277.482050
 30
0.0
 10
276.611837
 20
214.481927
 30
0.0
  0
LWPOLYLINE
  5
26c
100
AcDbEntity
  8
Layer_1
 62
7
100
AcDbPolyline
 90
2
 70
0
 10
290.611982
 20
208.481979
 30
0.0
 10
282.612050
 20
208.481979
 30
0.0
  0
LWPOLYLINE
  5
26d
100
AcDbEntity
  8
Layer_1
 62
7
100
AcDbPolyline
 90
2
 70
0
 10
296.611931
 20
202.482030
 30
0.0
 10
296.611931
 20
106.292351
 30
0.0
  0
LWPOLYLINE
  5
26e
100
AcDbEntity
  8
Layer_1
 62
7
100
AcDbPolyline
 90
2
 70
0
 10
294.452933
 20
101.683051
 30
0.0
 10
280.350659
 20
89.931067
 30
0.0
  0
LWPOLYLINE
  5
26f
100
AcDbEntity
  8
Layer_1
 62
7
100
AcDbPolyline
 90
2
 70
0
 10
280.350659
 20
62.602819
 30
0.0
 10
280.350659
 20
89.931067
 30
0.0
  0
LWPOLYLINE
  5
270
100
AcDbEntity
  8
Layer_1
 62
7
100
AcDbPolyline
 90
2
 70
0
 10
280.350659
 20
34.355144
 30
0.0
 10
280.350659
 20
47.602815
 30
0.0
  0
LWPOLYLINE
  5
271
100
AcDbEntity
  8
Layer_1
 62
7
100
AcDbPolyline
 90
2
 70
0
 10
241.611978
 20
8.529197
 30
0.0
 10
280.350659
 20
34.355144
 30
0.0
  0
LWPOLYLINE
  5
272
100
AcDbEntity
  8
Layer_1
 62
7
100
AcDbPolyline
 90
2
 70
0
 10
231.611984
 20
8.529197
 30
0.0
 10
241.611978
 20
8.529197
 30
0.0
  0
LWPOLYLINE
  5
273
100
AcDbEntity
  8
Layer_1
 62
7
100
AcDbPolyline
 90
2
 70
0
 10
231.611984
 20
13.529816
 30
0.0
 10
231.611984
 20
8.529197
 30
0.0
  0
LWPOLYLINE
  5
274
100
AcDbEntity
  8
Layer_1
 62
7
100
AcDbPolyline
 90
2
 70
0
 10
221.612016
 20
13.529816
 30
0.0
 10
231.611984
 20
13.529816
 30
0.0
  0
LWPOLYLINE
  5
275
100
AcDbEntity
  8
Layer_1
 62
7
100
AcDbPolyline
 90
4
 70
1
 10
216.112024
 20
65.602661
 30
0.0
 10
216.112024
 20
23.703032
 30
0.0
 10
237.111976
 20
23.703032
 30
0.0
 10
237.111976
 20
65.602661
 30
0.0
  0
LWPOLYLINE
  5
276
100
AcDbEntity
  8
Layer_1
 62
7
100
AcDbPolyline
 90
2
 70
0
 10
246.611988
 20
208.413716
 30
0.0
 10
206.612012
 20
208.413716
 30
0.0
  0
LWPOLYLINE
  5
277
100
AcDbEntity
  8
Layer_1
 62
7
100
AcDbPolyline
 90
2
 70
0
 10
246.611988
 20
219.413490
 30
0.0
 10
246.611988
 20
208.413716
 30
0.0
  0
LWPOLYLINE
  5
278
100
AcDbEntity
  8
Layer_1
 62
7
100
AcDbPolyline
 90
2
 70
0
 10
206.612012
 20
219.413490
 30
0.0
 10
246.611988
 20
219.413490
 30
0.0
  0
LWPOLYLINE
  5
279
100
AcDbEntity
  8
Layer_1
 62
7
100
AcDbPolyline
 90
2
 70
0
 10
206.612012
 20
208.413716
 30
0.0
 10
206.612012
 20
219.413490
 30
0.0
  0
LWPOLYLINE
  5
27a
100
AcDbEntity
  8
Layer_1
 62
7
100
AcDbPolyline
 90
2
 70
0
 10
236.611994
 20
133.413696
 30
0.0
 10
236.611994
 20
123.413782
 30
0.0
  0
LWPOLYLINE
  5
27b
100
AcDbEntity
  8
Layer_1
 62
7
100
AcDbPolyline
 90
2
 70
0
 10
216.612006
 20
133.413696
 30
0.0
 10
236.611994
 20
133.413696
 30
0.0
  0
LWPOLYLINE
  5
27c
100
AcDbEntity
  8
Layer_1
 62
7
100
AcDbPolyline
 90
2
 70
0
 10
216.612006
 20
123.413782
 30
0.0
 10
216.612006
 20
133.413696
 30
0.0
  0
SPLINE
  5
27d
100
AcDbEntity
  8
Layer_1
 62
7
100
AcDbSpline
 70
8
 71
3
 72
8
 73
4
 74
0
 40
0
 40
0
 40
0
 40
0
 40
1
 40
1
 40
1
 40
1
 10
172.873446
 20
62.602744
 30
0.0
 10
168.731316
 20
62.602744
 30
0.0
 10
165.373456
 20
59.244884
 30
0.0
 10
165.373456
 20
55.102753
 30
0.0
  0
SPLINE
  5
27e
100
AcDbEntity
  8
Layer_1
 62
7
100
AcDbSpline
 70
8
 71
3
 72
8
 73
4
 74
0
 40
0
 40
0
 40
0
 40
0
 40
1
 40
1
 40
1
 40
1
 10
165.373456
 20
55.102753
 30
0.0
 10
165.373456
 20
50.960622
 30
0.0
 10
168.731316
 20
47.602762
 30
0.0
 10
172.873446
 20
47.602762
 30
0.0
  0
SPLINE
  5
27f
100
AcDbEntity
  8
Layer_1
 62
7
100
AcDbSpline
 70
8
 71
3
 72
8
 73
4
 74
0
 40
0
 40
0
 40
0
 40
0
 40
1
 40
1
 40
1
 40
1
 10
156.612088
 20
106.292407
 30
0.0
 10
156.612088
 20
104.511730
 30
0.0
 10
157.403025
 20
102.823046
 30
0.0
 10
158.770979
 20
101.683085
 30
0.0
  0
SPLINE
  5
280
100
AcDbEntity
  8
Layer_1
 62
7
100
AcDbSpline
 70
8
 71
3
 72
8
 73
4
 74
0
 40
0
 40
0
 40
0
 40
0
 40
1
 40
1
 40
1
 40
1
 10
162.612082
 20
208.482029
 30
0.0
 10
161.020784
 20
208.482029
 30
0.0
 10
159.494662
 20
207.849889
 30
0.0
 10
158.369445
 20
206.724672
 30
0.0
  0
SPLINE
  5
281
100
AcDbEntity
  8
Layer_1
 62
7
100
AcDbSpline
 70
8
 71
3
 72
8
 73
4
 74
0
 40
0
 40
0
 40
0
 40
0
 40
1
 40
1
 40
1
 40
1
 10
158.369445
 20
206.724672
 30
0.0
 10
157.244228
 20
205.599455
 30
0.0
 10
156.612088
 20
204.073332
 30
0.0
 10
156.612088
 20
202.482035
 30
0.0
  0
SPLINE
  5
282
100
AcDbEntity
  8
Layer_1
 62
7
100
AcDbSpline
 70
8
 71
3
 72
8
 73
4
 74
0
 40
0
 40
0
 40
0
 40
0
 40
1
 40
1
 40
1
 40
1
 10
170.612071
 20
208.482029
 30
0.0
 10
173.925775
 20
208.482030
 30
0.0
 10
176.612062
 20
211.168317
 30
0.0
 10
176.612062
 20
214.482020
 30
0.0
  0
SPLINE
  5
283
100
AcDbEntity
  8
Layer_1
 62
7
100
AcDbSpline
 70
8
 71
3
 72
8
 73
4
 74
0
 40
0
 40
0
 40
0
 40
0
 40
1
 40
1
 40
1
 40
1
 10
182.612056
 20
283.481935
 30
0.0
 10
181.020759
 20
283.481935
 30
0.0
 10
179.494637
 20
282.849795
 30
0.0
 10
178.369420
 20
281.724578
 30
0.0
  0
SPLINE
  5
284
100
AcDbEntity
  8
Layer_1
 62
7
100
AcDbSpline
 70
8
 71
3
 72
8
 73
4
 74
0
 40
0
 40
0
 40
0
 40
0
 40
1
 40
1
 40
1
 40
1
 10
178.369420
 20
281.724578
 30
0.0
 10
177.244202
 20
280.599361
 30
0.0
 10
176.612062
 20
279.073239
 30
0.0
 10
176.612062
 20
277.481941
 30
0.0
  0
SPLINE
  5
285
100
AcDbEntity
  8
Layer_1
 62
7
100
AcDbSpline
 70
8
 71
3
 72
8
 73
4
 74
0
 40
0
 40
0
 40
0
 40
0
 40
1
 40
1
 40
1
 40
1
 10
276.611938
 20
277.481941
 30
0.0
 10
276.611938
 20
279.073239
 30
0.0
 10
275.979798
 20
280.599361
 30
0.0
 10
274.854580
 20
281.724578
 30
0.0
  0
SPLINE
  5
286
100
AcDbEntity
  8
Layer_1
 62
7
100
AcDbSpline
 70
8
 71
3
 72
8
 73
4
 74
0
 40
0
 40
0
 40
0
 40
0
 40
1
 40
1
 40
1
 40
1
 10
274.854580
 20
281.724578
 30
0.0
 10
273.729363
 20
282.849795
 30
0.0
 10
272.203241
 20
283.481935
 30
0.0
 10
270.611944
 20
283.481935
 30
0.0
  0
SPLINE
  5
287
100
AcDbEntity
  8
Layer_1
 62
7
100
AcDbSpline
 70
8
 71
3
 72
8
 73
4
 74
0
 40
0
 40
0
 40
0
 40
0
 40
1
 40
1
 40
1
 40
1
 10
276.611938
 20
214.482020
 30
0.0
 10
276.611938
 20
211.168317
 30
0.0
 10
279.298225
 20
208.482030
 30
0.0
 10
282.611929
 20
208.482029
 30
0.0
  0
SPLINE
  5
288
100
AcDbEntity
  8
Layer_1
 62
7
100
AcDbSpline
 70
8
 71
3
 72
8
 73
4
 74
0
 40
0
 40
0
 40
0
 40
0
 40
1
 40
1
 40
1
 40
1
 10
296.611912
 20
202.482035
 30
0.0
 10
296.611912
 20
204.073332
 30
0.0
 10
295.979772
 20
205.599455
 30
0.0
 10
294.854555
 20
206.724672
 30
0.0
  0
SPLINE
  5
289
100
AcDbEntity
  8
Layer_1
 62
7
100
AcDbSpline
 70
8
 71
3
 72
8
 73
4
 74
0
 40
0
 40
0
 40
0
 40
0
 40
1
 40
1
 40
1
 40
1
 10
294.854555
 20
206.724672
 30
0.0
 10
293.729338
 20
207.849889
 30
0.0
 10
292.203216
 20
208.482029
 30
0.0
 10
290.611918
 20
208.482029
 30
0.0
  0
SPLINE
  5
28a
100
AcDbEntity
  8
Layer_1
 62
7
100
AcDbSpline
 70
8
 71
3
 72
8
 73
4
 74
0
 40
0
 40
0
 40
0
 40
0
 40
1
 40
1
 40
1
 40
1
 10
294.453021
 20
101.683085
 30
0.0
 10
295.820975
 20
102.823046
 30
0.0
 10
296.611912
 20
104.511730
 30
0.0
 10
296.611912
 20
106.292407
 30
0.0
  0
SPLINE
  5
28b
100
AcDbEntity
  8
Layer_1
 62
7
100
AcDbSpline
 70
8
 71
3
 72
8
 73
4
 74
0
 40
0
 40
0
 40
0
 40
0
 40
1
 40
1
 40
1
 40
1
 10
280.350554
 20
47.602762
 30
0.0
 10
284.492684
 20
47.602762
 30
0.0
 10
287.850544
 20
50.960622
 30
0.0
 10
287.850544
 20
55.102753
 30
0.0
  0
SPLINE
  5
28c
100
AcDbEntity
  8
Layer_1
 62
7
100
AcDbSpline
 70
8
 71
3
 72
8
 73
4
 74
0
 40
0
 40
0
 40
0
 40
0
 40
1
 40
1
 40
1
 40
1
 10
287.850544
 20
55.102753
 30
0.0
 10
287.850544
 20
59.244884
 30
0.0
 10
284.492684
 20
62.602744
 30
0.0
 10
280.350554
 20
62.602744
 30
0.0
  0
LWPOLYLINE
  5
28d
100
AcDbEntity
  8
Layer_1
 62
7
100
AcDbPolyline
 90
2
 70
0
 10
236.611994
 20
123.413782
 30
0.0
 10
216.612006
 20
123.413782
 30
0.0
  0
ENDSEC
  0
SECTION
  2
OBJECTS
  0
DICTIONARY
  5
C
330
0
100
AcDbDictionary
  3
ACAD_GROUP
350
D
  3
ACAD_MLINESTYLE
350
17
  0
DICTIONARY
  5
D
330
C
100
AcDbDictionary
  0
DICTIONARY
  5
1A
330
C
100
AcDbDictionary
  0
DICTIONARY
  5
17
330
C
100
AcDbDictionary
  3
STANDARD
350
18
  0
DICTIONARY
  5
19
330
C
100
AcDbDictionary
  0
ENDSEC
  0
EOF
