<?xml version="1.0" encoding="UTF-8" standalone="no"?>
<!-- Created with Inkscape (http://www.inkscape.org/) -->

<svg
   width="300mm"
   height="297mm"
   viewBox="0 0 300 297"
   version="1.1"
   id="svg1"
   xml:space="preserve"
   inkscape:version="1.4.2 (f4327f4, 2025-05-13)"
   sodipodi:docname="nxp.svg"
   xmlns:inkscape="http://www.inkscape.org/namespaces/inkscape"
   xmlns:sodipodi="http://sodipodi.sourceforge.net/DTD/sodipodi-0.dtd"
   xmlns="http://www.w3.org/2000/svg"
   xmlns:svg="http://www.w3.org/2000/svg"><sodipodi:namedview
     id="namedview1"
     pagecolor="#ffffff"
     bordercolor="#000000"
     borderopacity="0.25"
     inkscape:showpageshadow="2"
     inkscape:pageopacity="0.0"
     inkscape:pagecheckerboard="0"
     inkscape:deskcolor="#d1d1d1"
     inkscape:document-units="mm"
     inkscape:zoom="0.48693448"
     inkscape:cx="797.84861"
     inkscape:cy="740.34601"
     inkscape:window-width="1920"
     inkscape:window-height="991"
     inkscape:window-x="-9"
     inkscape:window-y="-9"
     inkscape:window-maximized="1"
     inkscape:current-layer="layer1" /><defs
     id="defs1"><marker
       id="DistanceX"
       orient="auto"
       refX="0"
       refY="0"
       style="overflow:visible"><path
         d="M 3,-3 -3,3 M 0,-5 V 5"
         style="stroke:#000000;stroke-width:0.5"
         id="path1" /></marker><pattern
       id="Hatch"
       patternUnits="userSpaceOnUse"
       width="8"
       height="8"
       x="0"
       y="0"><path
         d="M8 4 l-4,4"
         stroke="#000000"
         stroke-width="0.25"
         linecap="square"
         id="path2" /><path
         d="M6 2 l-4,4"
         stroke="#000000"
         stroke-width="0.25"
         linecap="square"
         id="path3" /><path
         d="M4 0 l-4,4"
         stroke="#000000"
         stroke-width="0.25"
         linecap="square"
         id="path4" /></pattern><symbol
       id="*Model_Space" /><symbol
       id="*Paper_Space" /><symbol
       id="*Paper_Space0" /><marker
       id="DistanceX-0"
       orient="auto"
       refX="0"
       refY="0"
       style="overflow:visible"><path
         d="M 3,-3 -3,3 M 0,-5 V 5"
         style="stroke:#000000;stroke-width:0.5"
         id="path1-9" /></marker><pattern
       id="Hatch-4"
       patternUnits="userSpaceOnUse"
       width="8"
       height="8"
       x="0"
       y="0"><path
         d="M8 4 l-4,4"
         stroke="#000000"
         stroke-width="0.25"
         linecap="square"
         id="path2-8" /><path
         d="M6 2 l-4,4"
         stroke="#000000"
         stroke-width="0.25"
         linecap="square"
         id="path3-8" /><path
         d="M4 0 l-4,4"
         stroke="#000000"
         stroke-width="0.25"
         linecap="square"
         id="path4-2" /></pattern><symbol
       id="*Model_Space-4" /><symbol
       id="*Paper_Space-5" /><symbol
       id="*Paper_Space0-5" /></defs><g
     inkscape:label="Layer 1"
     inkscape:groupmode="layer"
     id="layer1"><g
       inkscape:label="0"
       id="g61"
       transform="matrix(0.26458333,0,0,0.26458333,77.871312,-225.82248)"><path
         d="m 141.73228,1888.6741 a 5.669291,5.669291 0 0 0 -11.33858,0 5.669291,5.669291 0 0 0 11.33858,0 z"
         style="fill:none;stroke:#000000;stroke-width:3.571;stroke-linecap:round"
         id="path5" /><path
         d="m -130.3937,1888.6741 a 5.669291,5.669291 0 0 0 -11.33858,0 5.669291,5.669291 0 0 0 11.33858,0 z"
         style="fill:none;stroke:#000000;stroke-width:3.571;stroke-linecap:round"
         id="path6" /><path
         d="m -221.10236,1314.9059 a 5.6692915,5.6692915 0 0 0 -11.33858,0 5.6692915,5.6692915 0 0 0 11.33858,0 z"
         style="fill:none;stroke:#000000;stroke-width:3.571;stroke-linecap:round"
         id="path7" /><path
         d="m -221.10236,1536.0537 a 5.6692915,5.6692915 0 0 0 -11.33858,0 5.6692915,5.6692915 0 0 0 11.33858,0 z"
         style="fill:none;stroke:#000000;stroke-width:3.571;stroke-linecap:round"
         id="path8" /><path
         d="m 232.44094,1536.0537 a 5.6692915,5.6692915 0 0 0 -11.33858,0 5.6692915,5.6692915 0 0 0 11.33858,0 z"
         style="fill:none;stroke:#000000;stroke-width:3.571;stroke-linecap:round"
         id="path9" /><path
         d="m 232.44094,1314.9059 a 5.6692915,5.6692915 0 0 0 -11.33858,0 5.6692915,5.6692915 0 0 0 11.33858,0 z"
         style="fill:none;stroke:#000000;stroke-width:3.571;stroke-linecap:round"
         id="path10" /><path
         d="m 100.12349,1052.8879 a 5.6692915,5.6692915 0 0 0 -11.33858,0 5.6692915,5.6692915 0 0 0 11.33858,0 z"
         style="fill:none;stroke:#000000;stroke-width:3.571;stroke-linecap:round"
         id="path11" /><path
         d="m -88.852885,1052.8879 a 5.6692925,5.6692925 0 0 0 -11.338585,0 5.6692925,5.6692925 0 0 0 11.338585,0 z"
         style="fill:none;stroke:#000000;stroke-width:3.571;stroke-linecap:round"
         id="path12" /><path
         d="m 210.69964,1052.8879 a 7.559055,7.559055 0 0 0 -15.11811,0 7.559055,7.559055 0 0 0 15.11811,0 z"
         style="fill:none;stroke:#000000;stroke-width:3.571;stroke-linecap:round"
         id="path13" /><path
         d="m -195.58153,1052.8879 a 7.559055,7.559055 0 0 0 -15.11811,0 7.559055,7.559055 0 0 0 15.11811,0 z"
         style="fill:none;stroke:#000000;stroke-width:3.571;stroke-linecap:round"
         id="path14" /><path
         d="m -217.32283,1757.9037 a 5.669295,5.669295 0 0 0 -11.33859,0 5.669295,5.669295 0 0 0 11.33859,0 z"
         style="fill:none;stroke:#000000;stroke-width:3.571;stroke-linecap:round"
         id="path15" /><path
         d="m 209.76378,1816.8644 a 5.6692915,5.6692915 0 0 0 -11.33858,0 5.6692915,5.6692915 0 0 0 11.33858,0 z"
         style="fill:none;stroke:#000000;stroke-width:3.571;stroke-linecap:round"
         id="path16" /><path
         d="m 209.76378,1757.1478 a 5.6692915,5.6692915 0 0 0 -11.33858,0 5.6692915,5.6692915 0 0 0 11.33858,0 z"
         style="fill:none;stroke:#000000;stroke-width:3.571;stroke-linecap:round"
         id="path17" /><path
         d="m 157.22835,1757.1478 a 5.669295,5.669295 0 0 0 -11.33859,0 5.669295,5.669295 0 0 0 11.33859,0 z"
         style="fill:none;stroke:#000000;stroke-width:3.571;stroke-linecap:round"
         id="path18" /><path
         d="m -217.32283,1817.6203 a 5.669295,5.669295 0 0 0 -11.33859,0 5.669295,5.669295 0 0 0 11.33859,0 z"
         style="fill:none;stroke:#000000;stroke-width:3.571;stroke-linecap:round"
         id="path19" /><path
         d="m -164.7874,1817.6203 a 5.669291,5.669291 0 0 0 -11.33858,0 5.669291,5.669291 0 0 0 11.33858,0 z"
         style="fill:none;stroke:#000000;stroke-width:3.571;stroke-linecap:round"
         id="path20" /><path
         d="m -164.7874,1757.9037 a 5.669291,5.669291 0 0 0 -11.33858,0 5.669291,5.669291 0 0 0 11.33858,0 z"
         style="fill:none;stroke:#000000;stroke-width:3.571;stroke-linecap:round"
         id="path21" /><path
         d="m 157.22835,1816.8644 a 5.669295,5.669295 0 0 0 -11.33859,0 5.669295,5.669295 0 0 0 11.33859,0 z"
         style="fill:none;stroke:#000000;stroke-width:3.571;stroke-linecap:round"
         id="path22" /><path
         style="fill:none;stroke:#000000;stroke-width:3.571;stroke-linecap:round"
         d="M -18.8518,895.753 H 18.9435"
         id="path23" /><path
         style="fill:none;stroke:#000000;stroke-width:3.571;stroke-linecap:round"
         d="M 18.9435,895.753 V 876.856"
         id="path24" /><path
         style="fill:none;stroke:#000000;stroke-width:3.571;stroke-linecap:round"
         d="M 18.9435,876.856 H 56.7151"
         id="path25" /><path
         style="fill:none;stroke:#000000;stroke-width:3.571;stroke-linecap:round"
         d="m 100.054,905.748 103.019,68.725"
         id="path26" /><path
         style="fill:none;stroke:#000000;stroke-width:3.571;stroke-linecap:round"
         d="m 203.073,974.473 v 50.067"
         id="path27" /><path
         style="fill:none;stroke:#000000;stroke-width:3.571;stroke-linecap:round"
         d="m 203.073,1081.23 v 103.29"
         id="path28" /><path
         style="fill:none;stroke:#000000;stroke-width:3.571;stroke-linecap:round"
         d="m 203.073,1184.52 53.3,44.42"
         id="path29" /><path
         style="fill:none;stroke:#000000;stroke-width:3.571;stroke-linecap:round"
         d="m 264.533,1246.36 v 9.61"
         id="path30" /><path
         style="fill:none;stroke:#000000;stroke-width:3.571;stroke-linecap:round"
         d="m 273.018,1260.21 -8.485,-4.24"
         id="path31" /><path
         style="fill:none;stroke:#000000;stroke-width:3.571;stroke-linecap:round"
         d="M 283.465,1573.85 V 1277.11"
         id="path32" /><path
         style="fill:none;stroke:#000000;stroke-width:3.571;stroke-linecap:round"
         d="m 255.118,1592.93 28.347,-19.08"
         id="path33" /><path
         style="fill:none;stroke:#000000;stroke-width:3.571;stroke-linecap:round"
         d="M 255.118,1875.82 V 1592.93"
         id="path34" /><path
         style="fill:none;stroke:#000000;stroke-width:3.571;stroke-linecap:round"
         d="m 177.638,1875.82 h 77.48"
         id="path35" /><path
         style="fill:none;stroke:#000000;stroke-width:3.571;stroke-linecap:round"
         d="m 177.638,1900.39 v -24.57"
         id="path36" /><path
         style="fill:none;stroke:#000000;stroke-width:3.571;stroke-linecap:round"
         d="M -158.74,1919.29 H 158.74"
         id="path37" /><path
         style="fill:none;stroke:#000000;stroke-width:3.571;stroke-linecap:round"
         d="m -177.638,1875.82 v 24.57"
         id="path38" /><path
         style="fill:none;stroke:#000000;stroke-width:3.571;stroke-linecap:round"
         d="m -255.118,1875.82 h 77.48"
         id="path39" /><path
         style="fill:none;stroke:#000000;stroke-width:3.571;stroke-linecap:round"
         d="m -255.118,1592.93 v 282.89"
         id="path40" /><path
         style="fill:none;stroke:#000000;stroke-width:3.571;stroke-linecap:round"
         d="m -283.465,1573.85 28.347,19.08"
         id="path41" /><path
         style="fill:none;stroke:#000000;stroke-width:3.571;stroke-linecap:round"
         d="m -283.465,1277.11 v 296.74"
         id="path42" /><path
         style="fill:none;stroke:#000000;stroke-width:3.571;stroke-linecap:round"
         d="m -264.533,1255.97 -8.485,4.24"
         id="path43" /><path
         style="fill:none;stroke:#000000;stroke-width:3.571;stroke-linecap:round"
         d="m -264.533,1255.97 v -9.61"
         id="path44" /><path
         style="fill:none;stroke:#000000;stroke-width:3.571;stroke-linecap:round"
         d="m -256.373,1228.94 53.3,-44.42"
         id="path45" /><path
         style="fill:none;stroke:#000000;stroke-width:3.571;stroke-linecap:round"
         d="M -203.073,1184.52 V 1081.23"
         id="path46" /><path
         style="fill:none;stroke:#000000;stroke-width:3.571;stroke-linecap:round"
         d="M -203.073,1024.54 V 974.473"
         id="path47" /><path
         style="fill:none;stroke:#000000;stroke-width:3.571;stroke-linecap:round"
         d="m -203.073,974.473 103.019,-68.725"
         id="path48" /><path
         style="fill:none;stroke:#000000;stroke-width:3.571;stroke-linecap:round"
         d="m -100.054,905.748 -0.081,0.1"
         id="path49" /><path
         style="fill:none;stroke:#000000;stroke-width:3.571;stroke-linecap:round"
         d="m -100.135,905.848 43.4879,-28.992"
         id="path50" /><path
         style="fill:none;stroke:#000000;stroke-width:3.571;stroke-linecap:round"
         d="m -56.6471,876.856 h 37.7953"
         id="path51" /><path
         style="fill:none;stroke:#000000;stroke-width:3.571;stroke-linecap:round"
         d="m -18.8518,876.856 v 18.897"
         id="path52" /><path
         style="fill:none;stroke:#000000;stroke-width:3.571;stroke-linecap:round"
         d="m 56.7151,876.856 43.3389,28.892"
         id="path53" /><path
         d="m 203.07261,1081.2343 a 28.346457,28.346457 0 0 0 0,-56.6929"
         style="fill:none;stroke:#000000;stroke-width:3.571;stroke-linecap:round"
         id="path54" /><path
         d="m 264.53294,1246.3608 a 22.677165,22.677165 0 0 0 -8.1596,-17.4211"
         style="fill:none;stroke:#000000;stroke-width:3.571;stroke-linecap:round"
         id="path55" /><path
         d="m 283.46457,1277.1107 a 18.897638,18.897638 0 0 0 -10.44636,-16.9026"
         style="fill:none;stroke:#000000;stroke-width:3.571;stroke-linecap:round"
         id="path56" /><path
         d="m 158.74016,1919.2896 a 18.897638,18.897638 0 0 0 18.89763,-18.8977"
         style="fill:none;stroke:#000000;stroke-width:3.571;stroke-linecap:round"
         id="path57" /><path
         d="m -177.63779,1900.3919 a 18.897638,18.897638 0 0 0 18.89763,18.8977"
         style="fill:none;stroke:#000000;stroke-width:3.571;stroke-linecap:round"
         id="path58" /><path
         d="m -273.01821,1260.2081 a 18.897638,18.897638 0 0 0 -10.44636,16.9026"
         style="fill:none;stroke:#000000;stroke-width:3.571;stroke-linecap:round"
         id="path59" /><path
         d="m -256.37334,1228.9397 a 22.677165,22.677165 0 0 0 -8.1596,17.4211"
         style="fill:none;stroke:#000000;stroke-width:3.571;stroke-linecap:round"
         id="path60" /><path
         d="m -203.07261,1024.5414 a 28.346457,28.346457 0 0 0 0,56.6929"
         style="fill:none;stroke:#000000;stroke-width:3.571;stroke-linecap:round"
         id="path61" /></g><g
       inkscape:label="0"
       id="g80"
       transform="matrix(0.26458333,0,0,0.26458333,226.61207,-13.481862)"><path
         d="m -130.35971,129.42751 a 5.669295,5.669295 0 0 0 -11.33859,0 5.669295,5.669295 0 0 0 11.33859,0 z"
         style="fill:none;stroke:#000000;stroke-width:3.571;stroke-linecap:round"
         id="path5-1" /><path
         d="m 141.6983,129.42751 a 5.669295,5.669295 0 0 0 -11.33859,0 5.669295,5.669295 0 0 0 11.33859,0 z"
         style="fill:none;stroke:#000000;stroke-width:3.571;stroke-linecap:round"
         id="path6-7" /><path
         d="m 210.66565,965.21374 a 7.559055,7.559055 0 0 0 -15.11811,0 7.559055,7.559055 0 0 0 15.11811,0 z"
         style="fill:none;stroke:#000000;stroke-width:3.571;stroke-linecap:round"
         id="path7-1" /><path
         d="m -195.54754,965.21374 a 7.559055,7.559055 0 0 0 -15.11811,0 7.559055,7.559055 0 0 0 15.11811,0 z"
         style="fill:none;stroke:#000000;stroke-width:3.571;stroke-linecap:round"
         id="path8-1" /><path
         d="m -164.40945,325.03937 a 5.669291,5.669291 0 0 0 -11.33858,0 5.669291,5.669291 0 0 0 11.33858,0 z"
         style="fill:none;stroke:#000000;stroke-width:3.571;stroke-linecap:round"
         id="path9-5" /><path
         d="m 24.566929,325.03937 a 5.6692915,5.6692915 0 0 0 -11.338583,0 5.6692915,5.6692915 0 0 0 11.338583,0 z"
         style="fill:none;stroke:#000000;stroke-width:3.571;stroke-linecap:round"
         id="path10-2" /><path
         d="m 175.74803,325.03937 a 5.669291,5.669291 0 0 0 -11.33858,0 5.669291,5.669291 0 0 0 11.33858,0 z"
         style="fill:none;stroke:#000000;stroke-width:3.571;stroke-linecap:round"
         id="path11-7" /><path
         d="m 175.74803,173.10236 a 5.669291,5.669291 0 0 0 -11.33858,0 5.669291,5.669291 0 0 0 11.33858,0 z"
         style="fill:none;stroke:#000000;stroke-width:3.571;stroke-linecap:round"
         id="path12-6" /><path
         d="m -13.228346,325.03937 a 5.6692915,5.6692915 0 0 0 -11.338583,0 5.6692915,5.6692915 0 0 0 11.338583,0 z"
         style="fill:none;stroke:#000000;stroke-width:3.571;stroke-linecap:round"
         id="path13-1" /><path
         d="m -164.40945,173.10236 a 5.669291,5.669291 0 0 0 -11.33858,0 5.669291,5.669291 0 0 0 11.33858,0 z"
         style="fill:none;stroke:#000000;stroke-width:3.571;stroke-linecap:round"
         id="path14-4" /><path
         d="m -13.228346,173.10236 a 5.6692915,5.6692915 0 0 0 -11.338583,0 5.6692915,5.6692915 0 0 0 11.338583,0 z"
         style="fill:none;stroke:#000000;stroke-width:3.571;stroke-linecap:round"
         id="path15-2" /><path
         d="m 24.566929,173.10236 a 5.6692915,5.6692915 0 0 0 -11.338583,0 5.6692915,5.6692915 0 0 0 11.338583,0 z"
         style="fill:none;stroke:#000000;stroke-width:3.571;stroke-linecap:round"
         id="path16-3" /><path
         d="m -165.05197,403.23779 a 5.669291,5.669291 0 0 0 -11.33858,0 5.669291,5.669291 0 0 0 11.33858,0 z"
         style="fill:none;stroke:#000000;stroke-width:3.571;stroke-linecap:round"
         id="path17-2" /><path
         d="m 55.407874,625.73858 a 5.6692915,5.6692915 0 0 0 -11.338583,0 5.6692915,5.6692915 0 0 0 11.338583,0 z"
         style="fill:none;stroke:#000000;stroke-width:3.571;stroke-linecap:round"
         id="path18-2" /><path
         d="m -163.65354,625.73858 a 5.669295,5.669295 0 0 0 -11.33859,0 5.669295,5.669295 0 0 0 11.33859,0 z"
         style="fill:none;stroke:#000000;stroke-width:3.571;stroke-linecap:round"
         id="path19-1" /><path
         d="m 55.407874,403.23779 a 5.6692915,5.6692915 0 0 0 -11.338583,0 5.6692915,5.6692915 0 0 0 11.338583,0 z"
         style="fill:none;stroke:#000000;stroke-width:3.571;stroke-linecap:round"
         id="path20-6" /><path
         d="m 26.456693,1096.5523 a 7.559055,7.559055 0 0 0 -15.11811,0 7.559055,7.559055 0 0 0 15.11811,0 z"
         style="fill:none;stroke:#000000;stroke-width:3.571;stroke-linecap:round"
         id="path21-8" /><path
         d="m -11.338583,912.86728 a 7.559055,7.559055 0 0 0 -15.11811,0 7.559055,7.559055 0 0 0 15.11811,0 z"
         style="fill:none;stroke:#000000;stroke-width:3.571;stroke-linecap:round"
         id="path22-5" /><path
         d="m 26.456693,912.86728 a 7.559055,7.559055 0 0 0 -15.11811,0 7.559055,7.559055 0 0 0 15.11811,0 z"
         style="fill:none;stroke:#000000;stroke-width:3.571;stroke-linecap:round"
         id="path23-7" /><path
         d="m -11.338583,1096.5523 a 7.559055,7.559055 0 0 0 -15.11811,0 7.559055,7.559055 0 0 0 15.11811,0 z"
         style="fill:none;stroke:#000000;stroke-width:3.571;stroke-linecap:round"
         id="path24-6" /><path
         d="m 232.47493,703.19567 a 5.6692915,5.6692915 0 0 0 -11.33858,0 5.6692915,5.6692915 0 0 0 11.33858,0 z"
         style="fill:none;stroke:#000000;stroke-width:3.571;stroke-linecap:round"
         id="path25-1" /><path
         d="m -221.06837,482.0479 a 5.669295,5.669295 0 0 0 -11.33859,0 5.669295,5.669295 0 0 0 11.33859,0 z"
         style="fill:none;stroke:#000000;stroke-width:3.571;stroke-linecap:round"
         id="path26-8" /><path
         d="m -221.06837,703.19567 a 5.669295,5.669295 0 0 0 -11.33859,0 5.669295,5.669295 0 0 0 11.33859,0 z"
         style="fill:none;stroke:#000000;stroke-width:3.571;stroke-linecap:round"
         id="path27-9" /><path
         d="m 232.47493,482.0479 a 5.6692915,5.6692915 0 0 0 -11.33858,0 5.6692915,5.6692915 0 0 0 11.33858,0 z"
         style="fill:none;stroke:#000000;stroke-width:3.571;stroke-linecap:round"
         id="path28-2" /><path
         d="m -103.93701,795.135 a 9.44882,9.44882 0 0 0 -18.89764,0 9.44882,9.44882 0 0 0 18.89764,0 z"
         style="fill:none;stroke:#000000;stroke-width:3.571;stroke-linecap:round"
         id="path29-7" /><path
         d="m 122.83465,795.135 a 9.44882,9.44882 0 0 0 -18.89764,0 9.44882,9.44882 0 0 0 18.89764,0 z"
         style="fill:none;stroke:#000000;stroke-width:3.571;stroke-linecap:round"
         id="path30-9" /><path
         d="m -88.818898,965.21374 a 5.669291,5.669291 0 0 0 -11.338582,0 5.669291,5.669291 0 0 0 11.338582,0 z"
         style="fill:none;stroke:#000000;stroke-width:3.571;stroke-linecap:round"
         id="path31-5" /><path
         d="m 100.15748,965.21374 a 5.669291,5.669291 0 0 0 -11.338582,0 5.669291,5.669291 0 0 0 11.338582,0 z"
         style="fill:none;stroke:#000000;stroke-width:3.571;stroke-linecap:round"
         id="path32-4" /><path
         d="m 92.761523,1084.6326 a 5.6692915,5.6692915 0 0 0 -11.338583,0 5.6692915,5.6692915 0 0 0 11.338583,0 z"
         style="fill:none;stroke:#000000;stroke-width:3.571;stroke-linecap:round"
         id="path33-3" /><path
         d="m -128.59429,1053.185 a 5.669295,5.669295 0 0 0 -11.33859,0 5.669295,5.669295 0 0 0 11.33859,0 z"
         style="fill:none;stroke:#000000;stroke-width:3.571;stroke-linecap:round"
         id="path34-1" /><path
         d="m -81.42294,1084.6326 a 5.6692915,5.6692915 0 0 0 -11.338583,0 5.6692915,5.6692915 0 0 0 11.338583,0 z"
         style="fill:none;stroke:#000000;stroke-width:3.571;stroke-linecap:round"
         id="path35-2" /><path
         d="m 139.93288,1053.185 a 5.669295,5.669295 0 0 0 -11.33859,0 5.669295,5.669295 0 0 0 11.33859,0 z"
         style="fill:none;stroke:#000000;stroke-width:3.571;stroke-linecap:round"
         id="path36-3" /><path
         d="m 51.023622,1103.443 a 5.6692915,5.6692915 0 0 0 -11.338583,0 5.6692915,5.6692915 0 0 0 11.338583,0 z"
         style="fill:none;stroke:#000000;stroke-width:3.571;stroke-linecap:round"
         id="path37-3" /><path
         d="m -39.685039,1103.443 a 5.6692915,5.6692915 0 0 0 -11.338583,0 5.6692915,5.6692915 0 0 0 11.338583,0 z"
         style="fill:none;stroke:#000000;stroke-width:3.571;stroke-linecap:round"
         id="path38-4" /><path
         style="fill:none;stroke:#000000;stroke-width:3.571;stroke-linecap:round"
         d="m -18.8976,1141.24 v -18.9"
         id="path39-1" /><path
         style="fill:none;stroke:#000000;stroke-width:3.571;stroke-linecap:round"
         d="m -56.6929,1141.24 h 37.7953"
         id="path40-1" /><path
         style="fill:none;stroke:#000000;stroke-width:3.571;stroke-linecap:round"
         d="m -203.107,1043.63 146.4141,97.61"
         id="path41-3" /><path
         style="fill:none;stroke:#000000;stroke-width:3.571;stroke-linecap:round"
         d="m -203.107,993.56 v 50.07"
         id="path42-8" /><path
         style="fill:none;stroke:#000000;stroke-width:3.571;stroke-linecap:round"
         d="M -203.107,833.579 V 936.867"
         id="path43-7" /><path
         style="fill:none;stroke:#000000;stroke-width:3.571;stroke-linecap:round"
         d="m -203.107,833.579 -53.3,-44.417"
         id="path44-4" /><path
         style="fill:none;stroke:#000000;stroke-width:3.571;stroke-linecap:round"
         d="M -264.567,771.741 V 408.189"
         id="path45-2" /><path
         style="fill:none;stroke:#000000;stroke-width:3.571;stroke-linecap:round"
         d="M -211.654,385.512 H -241.89"
         id="path46-7" /><path
         style="fill:none;stroke:#000000;stroke-width:3.571;stroke-linecap:round"
         d="M -188.976,362.835 V 124.724"
         id="path47-7" /><path
         style="fill:none;stroke:#000000;stroke-width:3.571;stroke-linecap:round"
         d="M 166.299,102.047 H -166.299"
         id="path48-9" /><path
         style="fill:none;stroke:#000000;stroke-width:3.571;stroke-linecap:round"
         d="M 188.976,124.724 V 362.835"
         id="path49-3" /><path
         style="fill:none;stroke:#000000;stroke-width:3.571;stroke-linecap:round"
         d="M 241.89,385.512 H 211.654"
         id="path50-1" /><path
         style="fill:none;stroke:#000000;stroke-width:3.571;stroke-linecap:round"
         d="M 264.567,408.189 V 771.741"
         id="path51-9" /><path
         style="fill:none;stroke:#000000;stroke-width:3.571;stroke-linecap:round"
         d="m 256.407,789.162 -53.3,44.417"
         id="path52-8" /><path
         style="fill:none;stroke:#000000;stroke-width:3.571;stroke-linecap:round"
         d="M 203.107,936.867 V 833.579"
         id="path53-6" /><path
         style="fill:none;stroke:#000000;stroke-width:3.571;stroke-linecap:round"
         d="M 203.107,1043.63 V 993.56"
         id="path54-5" /><path
         style="fill:none;stroke:#000000;stroke-width:3.571;stroke-linecap:round"
         d="M 56.6929,1141.24 203.107,1043.63"
         id="path55-0" /><path
         style="fill:none;stroke:#000000;stroke-width:3.571;stroke-linecap:round"
         d="M 18.8976,1141.24 H 56.6929"
         id="path56-2" /><path
         style="fill:none;stroke:#000000;stroke-width:3.571;stroke-linecap:round"
         d="m 18.8976,1122.34 v 18.9"
         id="path57-8" /><path
         style="fill:none;stroke:#000000;stroke-width:3.571;stroke-linecap:round"
         d="M -18.8976,1122.34 H 18.8976"
         id="path58-6" /><path
         style="fill:none;stroke:#000000;stroke-width:3.571;stroke-linecap:round"
         d="M -39.685,925.529 V 1083.89"
         id="path59-0" /><path
         style="fill:none;stroke:#000000;stroke-width:3.571;stroke-linecap:round"
         d="m -39.685,1083.89 h 79.37"
         id="path60-2" /><path
         style="fill:none;stroke:#000000;stroke-width:3.571;stroke-linecap:round"
         d="M 39.685,1083.89 V 925.529"
         id="path61-4" /><path
         style="fill:none;stroke:#000000;stroke-width:3.571;stroke-linecap:round"
         d="m 39.685,925.529 h -79.37"
         id="path62" /><path
         style="fill:none;stroke:#000000;stroke-width:3.571;stroke-linecap:round"
         d="M 75.5906,385.77 H -75.5906"
         id="path63" /><path
         style="fill:none;stroke:#000000;stroke-width:3.571;stroke-linecap:round"
         d="M 75.5906,344.196 V 385.77"
         id="path64" /><path
         style="fill:none;stroke:#000000;stroke-width:3.571;stroke-linecap:round"
         d="M -75.5906,344.196 H 75.5906"
         id="path65" /><path
         style="fill:none;stroke:#000000;stroke-width:3.571;stroke-linecap:round"
         d="M -75.5906,385.77 V 344.196"
         id="path66" /><path
         style="fill:none;stroke:#000000;stroke-width:3.571;stroke-linecap:round"
         d="M 37.7953,669.235 V 707.03"
         id="path67" /><path
         style="fill:none;stroke:#000000;stroke-width:3.571;stroke-linecap:round"
         d="M -37.7953,669.235 H 37.7953"
         id="path68" /><path
         style="fill:none;stroke:#000000;stroke-width:3.571;stroke-linecap:round"
         d="M -37.7953,707.03 V 669.235"
         id="path69" /><path
         style="fill:none;stroke:#000000;stroke-width:3.571;stroke-linecap:round"
         d="M 37.7953,707.03 H -37.7953"
         id="path70" /><path
         d="m -203.1066,936.86728 a 28.34646,28.34646 0 0 0 0,56.69292"
         style="fill:none;stroke:#000000;stroke-width:3.571;stroke-linecap:round"
         id="path71" /><path
         d="m -264.56693,771.74079 a 22.677165,22.677165 0 0 0 8.1596,17.42108"
         style="fill:none;stroke:#000000;stroke-width:3.571;stroke-linecap:round"
         id="path72" /><path
         d="m -241.88976,385.51181 a 22.677165,22.677165 0 0 0 -22.67717,22.67717"
         style="fill:none;stroke:#000000;stroke-width:3.571;stroke-linecap:round"
         id="path73" /><path
         d="m -211.65354,385.51181 a 22.677165,22.677165 0 0 0 22.67716,-22.67716"
         style="fill:none;stroke:#000000;stroke-width:3.571;stroke-linecap:round"
         id="path74" /><path
         d="m -166.29921,102.04724 a 22.677165,22.677165 0 0 0 -22.67717,22.67717"
         style="fill:none;stroke:#000000;stroke-width:3.571;stroke-linecap:round"
         id="path75" /><path
         d="M 188.97638,124.72441 A 22.677165,22.677165 0 0 0 166.29921,102.04724"
         style="fill:none;stroke:#000000;stroke-width:3.571;stroke-linecap:round"
         id="path76" /><path
         d="m 188.97638,362.83465 a 22.677165,22.677165 0 0 0 22.67716,22.67716"
         style="fill:none;stroke:#000000;stroke-width:3.571;stroke-linecap:round"
         id="path77" /><path
         d="M 264.56693,408.18898 A 22.677165,22.677165 0 0 0 241.88976,385.51181"
         style="fill:none;stroke:#000000;stroke-width:3.571;stroke-linecap:round"
         id="path78" /><path
         d="m 256.40733,789.16187 a 22.677165,22.677165 0 0 0 8.1596,-17.42108"
         style="fill:none;stroke:#000000;stroke-width:3.571;stroke-linecap:round"
         id="path79" /><path
         d="m 203.1066,993.5602 a 28.34646,28.34646 0 0 0 0,-56.69292"
         style="fill:none;stroke:#000000;stroke-width:3.571;stroke-linecap:round"
         id="path80" /></g></g></svg>
